<?xml version="1.0" encoding="UTF-8" standalone="no"?>
<!-- Created with Inkscape (http://www.inkscape.org/) -->

<svg
   width="210mm"
   height="297mm"
   viewBox="0 0 210 297"
   version="1.1"
   id="svg1"
   inkscape:version="1.3.2 (091e20e, 2023-11-25)"
   sodipodi:docname="Biglight.svg"
   xmlns:inkscape="http://www.inkscape.org/namespaces/inkscape"
   xmlns:sodipodi="http://sodipodi.sourceforge.net/DTD/sodipodi-0.dtd"
   xmlns="http://www.w3.org/2000/svg"
   xmlns:svg="http://www.w3.org/2000/svg">
  <sodipodi:namedview
     id="namedview1"
     pagecolor="#ffffff"
     bordercolor="#000000"
     borderopacity="0.25"
     inkscape:showpageshadow="2"
     inkscape:pageopacity="0.0"
     inkscape:pagecheckerboard="0"
     inkscape:deskcolor="#d1d1d1"
     inkscape:document-units="mm"
     inkscape:zoom="6.4898431"
     inkscape:cx="418.57715"
     inkscape:cy="588.99729"
     inkscape:window-width="1392"
     inkscape:window-height="1212"
     inkscape:window-x="0"
     inkscape:window-y="316"
     inkscape:window-maximized="0"
     inkscape:current-layer="layer1" />
  <defs
     id="defs1">
    <inkscape:path-effect
       effect="fillet_chamfer"
       id="path-effect21"
       is_visible="true"
       lpeversion="1"
       nodesatellites_param="F,0,0,1,0,0,0,1 @ F,0,0,1,0,0,0,1 @ F,0,0,1,0,0,0,1 @ F,0,0,1,0,0,0,1 @ F,0,0,1,0,0,0,1 @ F,0,0,1,0,0,0,1 @ F,0,0,1,0,0,0,1 @ F,0,0,1,0,0,0,1 | F,0,0,1,0,0,0,1 @ F,0,0,1,0,0,0,1 @ F,0,0,1,0,0,0,1 @ F,0,0,1,0,0,0,1 @ F,0,0,1,0,0,0,1 @ F,0,0,1,0,0,0,1 @ F,0,0,1,0,0,0,1 @ F,0,0,1,0,0,0,1 @ F,0,0,1,0,0,0,1 @ F,0,0,1,0,0,0,1"
       radius="0"
       unit="px"
       method="auto"
       mode="F"
       chamfer_steps="1"
       flexible="false"
       use_knot_distance="true"
       apply_no_radius="true"
       apply_with_radius="true"
       only_selected="false"
       hide_knots="false" />
  </defs>
  <g
     inkscape:label="Layer 1"
     inkscape:groupmode="layer"
     id="layer1">
    <g
       id="g20"
       transform="matrix(1.0372472,-1.0372472,1.0372472,1.0372472,-95.810536,309.37297)">
      <path
         id="path19"
         style="fill:none;stroke:#ff00ff;stroke-width:0.124;stroke-dasharray:none"
         inkscape:label="path3"
         d="m 171.74404,19.236552 a 6.2580194,6.2580194 0 0 0 -2.18695,2.186947 l 1.51774,1.51722 a 4.2056513,4.2056513 0 0 0 -0.35088,1.668115 4.2056513,4.2056513 0 0 0 4.20594,4.205945 4.2056513,4.2056513 0 0 0 1.66812,-0.350883 l 1.51722,1.517736 a 6.2580194,6.2580194 0 0 0 2.18694,-2.187463 l -1.51722,-1.51722 a 4.2056513,4.2056513 0 0 0 0.35037,-1.668115 4.2056513,4.2056513 0 0 0 -4.20543,-4.205428 4.2056513,4.2056513 0 0 0 -1.66863,0.350366 z" />
      <path
         id="path20"
         style="fill:none;stroke:#008000;stroke-width:0.0993569;stroke-dasharray:none"
         d="m 174.92976,31.209075 c -3.64516,-10e-7 -6.60015,-2.954989 -6.60015,-6.600152 0,-1.141044 0.29582,-2.262598 0.85858,-3.255209 l 1.58225,1.586135 c -0.21296,0.530696 -0.32239,1.097244 -0.32239,1.669074 0,2.475181 2.00653,4.481713 4.48171,4.481717 0.57183,1e-6 1.13838,-0.109432 1.66908,-0.322394 l 1.58613,1.582246 c -0.99261,0.562766 -2.11417,0.858583 -3.25521,0.858583 z m 4.15787,-4.927461 c 0.21391,-0.531727 0.32385,-1.099549 0.32385,-1.672691 0,-2.475185 -2.00653,-4.481719 -4.48172,-4.481717 -0.57276,10e-7 -1.14021,0.109791 -1.67164,0.323427 l -1.58088,-1.5848 c 0.99196,-0.561785 2.11252,-0.857061 3.25252,-0.857062 3.64517,-4e-6 6.60016,2.954986 6.60016,6.600152 0,1.139999 -0.29528,2.260562 -0.85707,3.252526 z"
         inkscape:path-effect="#path-effect21"
         inkscape:original-d="m 174.92976,31.209075 c -3.64516,-10e-7 -6.60015,-2.954989 -6.60015,-6.600152 0,-1.141044 0.29582,-2.262598 0.85858,-3.255209 l 1.58225,1.586135 c -0.21296,0.530696 -0.32239,1.097244 -0.32239,1.669074 0,2.475181 2.00653,4.481713 4.48171,4.481717 0.57183,1e-6 1.13838,-0.109432 1.66908,-0.322394 l 1.58613,1.582246 c -0.99261,0.562766 -2.11417,0.858583 -3.25521,0.858583 z m 4.15787,-4.927461 c 0.21391,-0.531727 0.32385,-1.099549 0.32385,-1.672691 v 0 c 0,-2.475185 -2.00653,-4.481719 -4.48172,-4.481717 -0.57276,10e-7 -1.14021,0.109791 -1.67164,0.323427 l -1.58088,-1.5848 c 0.99196,-0.561785 2.11252,-0.857061 3.25252,-0.857062 3.64517,-4e-6 6.60016,2.954986 6.60016,6.600152 v 0 c 0,1.139999 -0.29528,2.260562 -0.85707,3.252526 z" />
    </g>
  </g>
</svg>
