<?xml version="1.0" encoding="UTF-8" standalone="no"?>
<!-- Created with Inkscape (http://www.inkscape.org/) -->

<svg
   width="357.06708mm"
   height="320.2258mm"
   viewBox="0 0 357.06708 320.2258"
   version="1.1"
   id="svg1"
   xml:space="preserve"
   sodipodi:docname="Clearity.svg"
   inkscape:version="1.3.2 (091e20e, 2023-11-25)"
   xmlns:inkscape="http://www.inkscape.org/namespaces/inkscape"
   xmlns:sodipodi="http://sodipodi.sourceforge.net/DTD/sodipodi-0.dtd"
   xmlns:xlink="http://www.w3.org/1999/xlink"
   xmlns="http://www.w3.org/2000/svg"
   xmlns:svg="http://www.w3.org/2000/svg"><sodipodi:namedview
     id="namedview1"
     pagecolor="#ffffff"
     bordercolor="#000000"
     borderopacity="0.25"
     inkscape:showpageshadow="2"
     inkscape:pageopacity="0.0"
     inkscape:pagecheckerboard="0"
     inkscape:deskcolor="#d1d1d1"
     inkscape:document-units="mm"
     inkscape:zoom="0.52313933"
     inkscape:cx="675.7282"
     inkscape:cy="505.60144"
     inkscape:window-width="1392"
     inkscape:window-height="1212"
     inkscape:window-x="751"
     inkscape:window-y="418"
     inkscape:window-maximized="0"
     inkscape:current-layer="layer3" /><defs
     id="defs1" /><g
     id="layer2"
     transform="translate(6.6336639,61.86932)"
     style="display:inline"><path
       style="opacity:0.686;fill:none;stroke:#00ff00;stroke-width:0.3"
       d="m 215.68038,79.785311 h 9.57409 l 17.96118,11.021549 v 8.460983 l -10.79883,15.994377 h -27.83241 l -4.34185,-15.06679 V 84.572616 l 3.22874,-3.080433 h 10.09396 z"
       id="path1" /><path
       style="opacity:0.686;fill:none;stroke:#00ff00;stroke-width:0.3"
       d="m 175.07975,17.730701 c -8.68099,0.148161 -24.50499,0.333265 -33.39538,1.881022 v 2.86029 C 90.814802,27.841424 36.823728,54.091877 22.786206,71.638005 v 34.655765 l 2.45153,4.44882 v 5.75469 c 0.549288,0.9078 1.102999,1.58141 1.739429,2.25723 4.040352,3.71214 8.407786,6.67026 13.782104,8.35814 3.525614,1.11167 7.684139,1.59303 11.401371,1.61283 h 6.687964 v 3.56309 H 175.07975 291.3109 v -3.56309 h 6.68796 c 3.71724,-0.0198 7.87576,-0.50116 11.40138,-1.61283 5.37431,-1.68788 9.74174,-4.646 13.7821,-8.35814 0.63643,-0.67582 1.19014,-1.34943 1.73943,-2.25723 v -5.75469 l 2.45153,-4.44882 V 71.638005 C 313.33577,54.091877 259.34471,27.841424 208.47513,22.472013 v -2.86029 c -8.89037,-1.547757 -24.71439,-1.732861 -33.39538,-1.881022 z"
       id="path40" /><g
       id="g60"><g
         id="g55"><circle
           style="fill:none;stroke:#00ff00;stroke-width:0.3;stroke-dasharray:none"
           id="path41"
           cx="45.941479"
           cy="121.77898"
           r="4.0870504" /><circle
           style="fill:none;stroke:#00ff00;stroke-width:0.3;stroke-dasharray:none"
           id="circle41"
           cx="55.932049"
           cy="103.76568"
           r="4.0870504" /><circle
           style="fill:none;stroke:#00ff00;stroke-width:0.3;stroke-dasharray:none"
           id="circle42"
           cx="45.941479"
           cy="103.76568"
           r="4.0870504" /><circle
           style="fill:none;stroke:#00ff00;stroke-width:0.3;stroke-dasharray:none"
           id="circle43"
           cx="35.950909"
           cy="103.76568"
           r="4.0870504" /></g><g
         id="g56"><circle
           style="fill:none;stroke:#00ff00;stroke-width:0.3;stroke-dasharray:none"
           id="circle44"
           cx="124.12524"
           cy="73.793976"
           r="4.0870504" /><circle
           style="fill:none;stroke:#00ff00;stroke-width:0.3;stroke-dasharray:none"
           id="circle45"
           cx="133.96443"
           cy="73.793976"
           r="4.0870504" /><circle
           style="fill:none;stroke:#00ff00;stroke-width:0.3;stroke-dasharray:none"
           id="circle46"
           cx="114.28604"
           cy="73.793976"
           r="4.0870504" /><circle
           style="fill:none;stroke:#00ff00;stroke-width:0.3;stroke-dasharray:none"
           id="circle47"
           cx="124.12524"
           cy="55.70499"
           r="4.0870504" /></g><g
         id="g57"><circle
           style="fill:none;stroke:#00ff00;stroke-width:0.3;stroke-dasharray:none"
           id="circle48"
           cx="242.1199"
           cy="50.861076"
           r="4.0870504" /><circle
           style="fill:none;stroke:#00ff00;stroke-width:0.3;stroke-dasharray:none"
           id="circle49"
           cx="240.00069"
           cy="71.22065"
           r="4.0870504" /><circle
           style="fill:none;stroke:#00ff00;stroke-width:0.3;stroke-dasharray:none"
           id="circle50"
           cx="231.75092"
           cy="65.546936"
           r="4.0870504" /><circle
           style="fill:none;stroke:#00ff00;stroke-width:0.3;stroke-dasharray:none"
           id="circle51"
           cx="223.50113"
           cy="59.870476"
           r="4.0870504" /></g><g
         id="g59"><g
           id="g58"><circle
             style="fill:none;stroke:#00ff00;stroke-width:0.3;stroke-dasharray:none"
             id="circle52"
             cx="304.25821"
             cy="103.91705"
             r="4.0870504" /><circle
             style="fill:none;stroke:#00ff00;stroke-width:0.3;stroke-dasharray:none"
             id="circle53"
             cx="304.25821"
             cy="121.77898"
             r="4.0870504" /><circle
             style="fill:none;stroke:#00ff00;stroke-width:0.3;stroke-dasharray:none"
             id="circle54"
             cx="314.24878"
             cy="103.91705"
             r="4.0870504" /><circle
             style="fill:none;stroke:#00ff00;stroke-width:0.3;stroke-dasharray:none"
             id="circle55"
             cx="294.26764"
             cy="103.91705"
             r="4.0870504" /></g></g></g><path
       id="path177"
       style="fill:none;stroke:#00ff00;stroke-width:0.214685"
       d="m 314.16836,64.543773 a 1.9634302,1.9634302 0 0 0 -1.96367,1.963667 1.9634302,1.9634302 0 0 0 1.96367,1.963295 h 3.10378 a 1.9634302,1.9634302 0 0 0 1.96366,-1.963295 1.9634302,1.9634302 0 0 0 -1.96366,-1.963667 z" /><ellipse
       style="fill:none;stroke:#00ff00;stroke-width:0.3"
       id="path178"
       cx="290.31564"
       cy="63.845943"
       rx="3.5342808"
       ry="3.428453" /><ellipse
       style="fill:none;stroke:#00ff00;stroke-width:0.3"
       id="ellipse178"
       cx="202.42577"
       cy="24.608921"
       rx="3.5342808"
       ry="3.428453" /><ellipse
       style="fill:none;stroke:#00ff00;stroke-width:0.3"
       id="ellipse179"
       cx="147.43375"
       cy="24.608921"
       rx="3.5342808"
       ry="3.428453" /><ellipse
       style="fill:none;stroke:#00ff00;stroke-width:0.3"
       id="ellipse180"
       cx="60.008121"
       cy="63.70689"
       rx="3.5342808"
       ry="3.428453" /><circle
       style="fill:none;stroke:#00ff00;stroke-width:0.3"
       id="path180"
       cx="191.65489"
       cy="110.75597"
       r="2.8161011" /><circle
       style="fill:none;stroke:#00ff00;stroke-width:0.215846"
       id="circle180"
       cx="161.63782"
       cy="109.65823"
       r="2.0261481" /><circle
       style="fill:none;stroke:#00ff00;stroke-width:0.252608"
       id="circle181"
       cx="29.926069"
       cy="95.043015"
       r="2.3712296" /><circle
       style="fill:none;stroke:#00ff00;stroke-width:0.252608"
       id="circle182"
       cx="320.30328"
       cy="94.052452"
       r="2.3712296" /></g><g
     id="layer3"
     transform="translate(6.6336639,61.86932)"
     style="display:inline"><path
       d="m 111.94459,67.863558 v 2.586922 a 4.0870504,4.0870504 0 0 1 0.48576,-0.298173 4.0870504,4.0870504 0 0 1 0.59273,-0.245463 4.0870504,4.0870504 0 0 1 0.62373,-0.149345 4.0870504,4.0870504 0 0 1 0.63924,-0.05064 4.0870504,4.0870504 0 0 1 0.21394,0.0057 4.0870504,4.0870504 0 0 1 0.21342,0.01654 4.0870504,4.0870504 0 0 1 0.21187,0.02842 4.0870504,4.0870504 0 0 1 0.21033,0.03876 4.0870504,4.0870504 0 0 1 0.20825,0.05013 4.0870504,4.0870504 0 0 1 0.20516,0.06046 4.0870504,4.0870504 0 0 1 0.20154,0.07131 4.0870504,4.0870504 0 0 1 0.19792,0.08217 4.0870504,4.0870504 0 0 1 0.19327,0.09198 4.0870504,4.0870504 0 0 1 0.18758,0.102319 4.0870504,4.0870504 0 0 1 0.18242,0.111622 4.0870504,4.0870504 0 0 1 0.11576,0.07958 v -2.582271 z"
       style="fill:none;stroke:#ff0000;stroke-width:0.284714"
       id="path2" /><path
       d="m 121.78378,67.863624 v 2.586922 a 4.0870504,4.0870504 0 0 1 0.48576,-0.298173 4.0870504,4.0870504 0 0 1 0.59273,-0.245463 4.0870504,4.0870504 0 0 1 0.62373,-0.149345 4.0870504,4.0870504 0 0 1 0.63924,-0.05064 4.0870504,4.0870504 0 0 1 0.21394,0.0057 4.0870504,4.0870504 0 0 1 0.21342,0.01654 4.0870504,4.0870504 0 0 1 0.21187,0.02842 4.0870504,4.0870504 0 0 1 0.21033,0.03876 4.0870504,4.0870504 0 0 1 0.20825,0.05013 4.0870504,4.0870504 0 0 1 0.20516,0.06046 4.0870504,4.0870504 0 0 1 0.20154,0.07131 4.0870504,4.0870504 0 0 1 0.19792,0.08217 4.0870504,4.0870504 0 0 1 0.19327,0.09198 4.0870504,4.0870504 0 0 1 0.18758,0.102319 4.0870504,4.0870504 0 0 1 0.18242,0.111622 4.0870504,4.0870504 0 0 1 0.11576,0.07958 v -2.582271 z"
       style="fill:none;stroke:#ff0000;stroke-width:0.284714"
       id="path4" /><path
       d="m 131.62297,67.863624 v 2.586922 a 4.0870504,4.0870504 0 0 1 0.48576,-0.298173 4.0870504,4.0870504 0 0 1 0.59273,-0.245463 4.0870504,4.0870504 0 0 1 0.62373,-0.149345 4.0870504,4.0870504 0 0 1 0.63924,-0.05064 4.0870504,4.0870504 0 0 1 0.21394,0.0057 4.0870504,4.0870504 0 0 1 0.21342,0.01654 4.0870504,4.0870504 0 0 1 0.21187,0.02842 4.0870504,4.0870504 0 0 1 0.21033,0.03876 4.0870504,4.0870504 0 0 1 0.20825,0.05013 4.0870504,4.0870504 0 0 1 0.20516,0.06046 4.0870504,4.0870504 0 0 1 0.20154,0.07131 4.0870504,4.0870504 0 0 1 0.19792,0.08217 4.0870504,4.0870504 0 0 1 0.19327,0.09198 4.0870504,4.0870504 0 0 1 0.18758,0.102319 4.0870504,4.0870504 0 0 1 0.18242,0.111622 4.0870504,4.0870504 0 0 1 0.11576,0.07958 v -2.582271 z"
       style="fill:none;stroke:#ff0000;stroke-width:0.284714"
       id="path5" /><path
       d="m 121.78378,49.774639 v 2.586922 a 4.0870504,4.0870504 0 0 1 0.48576,-0.298173 4.0870504,4.0870504 0 0 1 0.59273,-0.245463 4.0870504,4.0870504 0 0 1 0.62373,-0.149345 4.0870504,4.0870504 0 0 1 0.63924,-0.05064 4.0870504,4.0870504 0 0 1 0.21394,0.0057 4.0870504,4.0870504 0 0 1 0.21342,0.01654 4.0870504,4.0870504 0 0 1 0.21187,0.02842 4.0870504,4.0870504 0 0 1 0.21033,0.03876 4.0870504,4.0870504 0 0 1 0.20825,0.05013 4.0870504,4.0870504 0 0 1 0.20516,0.06046 4.0870504,4.0870504 0 0 1 0.20154,0.07131 4.0870504,4.0870504 0 0 1 0.19792,0.08217 4.0870504,4.0870504 0 0 1 0.19327,0.09198 4.0870504,4.0870504 0 0 1 0.18758,0.102319 4.0870504,4.0870504 0 0 1 0.18242,0.111622 4.0870504,4.0870504 0 0 1 0.11576,0.07958 V 49.77466 Z"
       style="fill:none;stroke:#ff0000;stroke-width:0.284714"
       id="path6" /><path
       d="m 53.590589,97.835327 v 2.586923 a 4.0870504,4.0870504 0 0 1 0.48576,-0.29817 4.0870504,4.0870504 0 0 1 0.59273,-0.245467 4.0870504,4.0870504 0 0 1 0.62373,-0.149345 4.0870504,4.0870504 0 0 1 0.63924,-0.05064 4.0870504,4.0870504 0 0 1 0.21394,0.0057 4.0870504,4.0870504 0 0 1 0.21342,0.01654 4.0870504,4.0870504 0 0 1 0.21187,0.02842 4.0870504,4.0870504 0 0 1 0.21033,0.03876 4.0870504,4.0870504 0 0 1 0.20825,0.05013 4.0870504,4.0870504 0 0 1 0.20516,0.06046 4.0870504,4.0870504 0 0 1 0.20154,0.07131 4.0870504,4.0870504 0 0 1 0.19792,0.08217 4.0870504,4.0870504 0 0 1 0.19327,0.092 4.0870504,4.0870504 0 0 1 0.18758,0.10232 4.0870504,4.0870504 0 0 1 0.182424,0.11162 4.0870504,4.0870504 0 0 1 0.11576,0.0796 v -2.58232 z"
       style="fill:none;stroke:#ff0000;stroke-width:0.284714"
       id="path7" /><path
       d="m 43.600019,97.835327 v 2.586923 a 4.0870504,4.0870504 0 0 1 0.48576,-0.29817 4.0870504,4.0870504 0 0 1 0.59273,-0.245467 4.0870504,4.0870504 0 0 1 0.62373,-0.149345 4.0870504,4.0870504 0 0 1 0.63924,-0.05064 4.0870504,4.0870504 0 0 1 0.21394,0.0057 4.0870504,4.0870504 0 0 1 0.21342,0.01654 4.0870504,4.0870504 0 0 1 0.21187,0.02842 4.0870504,4.0870504 0 0 1 0.21033,0.03876 4.0870504,4.0870504 0 0 1 0.20825,0.05013 4.0870504,4.0870504 0 0 1 0.20516,0.06046 4.0870504,4.0870504 0 0 1 0.20154,0.07131 4.0870504,4.0870504 0 0 1 0.19792,0.08217 4.0870504,4.0870504 0 0 1 0.19327,0.092 4.0870504,4.0870504 0 0 1 0.18758,0.10232 4.0870504,4.0870504 0 0 1 0.182424,0.11162 4.0870504,4.0870504 0 0 1 0.11576,0.0796 v -2.582323 z"
       style="fill:none;stroke:#ff0000;stroke-width:0.284714"
       id="path8" /><path
       d="m 33.609449,97.835327 v 2.586923 a 4.0870504,4.0870504 0 0 1 0.48576,-0.29817 4.0870504,4.0870504 0 0 1 0.59273,-0.245467 4.0870504,4.0870504 0 0 1 0.62373,-0.149345 4.0870504,4.0870504 0 0 1 0.63924,-0.05064 4.0870504,4.0870504 0 0 1 0.21394,0.0057 4.0870504,4.0870504 0 0 1 0.21342,0.01654 4.0870504,4.0870504 0 0 1 0.21187,0.02842 4.0870504,4.0870504 0 0 1 0.21033,0.03876 4.0870504,4.0870504 0 0 1 0.20825,0.05013 4.0870504,4.0870504 0 0 1 0.20516,0.06046 4.0870504,4.0870504 0 0 1 0.20154,0.07131 4.0870504,4.0870504 0 0 1 0.19792,0.08217 4.0870504,4.0870504 0 0 1 0.19327,0.092 4.0870504,4.0870504 0 0 1 0.18758,0.10232 4.0870504,4.0870504 0 0 1 0.182424,0.11162 4.0870504,4.0870504 0 0 1 0.11576,0.0796 v -2.582325 z"
       style="fill:none;stroke:#ff0000;stroke-width:0.284714"
       id="path9" /><path
       d="m 43.600019,115.84863 v 2.58692 a 4.0870504,4.0870504 0 0 1 0.48576,-0.29817 4.0870504,4.0870504 0 0 1 0.59273,-0.24547 4.0870504,4.0870504 0 0 1 0.62373,-0.14934 4.0870504,4.0870504 0 0 1 0.63924,-0.0506 4.0870504,4.0870504 0 0 1 0.21394,0.006 4.0870504,4.0870504 0 0 1 0.21342,0.0165 4.0870504,4.0870504 0 0 1 0.21187,0.0284 4.0870504,4.0870504 0 0 1 0.21033,0.0388 4.0870504,4.0870504 0 0 1 0.20825,0.0501 4.0870504,4.0870504 0 0 1 0.20516,0.0605 4.0870504,4.0870504 0 0 1 0.20154,0.0713 4.0870504,4.0870504 0 0 1 0.19792,0.0822 4.0870504,4.0870504 0 0 1 0.19327,0.092 4.0870504,4.0870504 0 0 1 0.18758,0.10232 4.0870504,4.0870504 0 0 1 0.182424,0.11162 4.0870504,4.0870504 0 0 1 0.11576,0.0796 v -2.58228 z"
       style="fill:none;stroke:#ff0000;stroke-width:0.284714"
       id="path10" /><path
       d="m 221.15967,53.940085 v 2.58692 a 4.0870504,4.0870504 0 0 1 0.48576,-0.29817 4.0870504,4.0870504 0 0 1 0.59273,-0.24547 4.0870504,4.0870504 0 0 1 0.62373,-0.14934 4.0870504,4.0870504 0 0 1 0.63924,-0.0506 4.0870504,4.0870504 0 0 1 0.21394,0.006 4.0870504,4.0870504 0 0 1 0.21342,0.0165 4.0870504,4.0870504 0 0 1 0.21187,0.0284 4.0870504,4.0870504 0 0 1 0.21033,0.0388 4.0870504,4.0870504 0 0 1 0.20825,0.0501 4.0870504,4.0870504 0 0 1 0.20516,0.0605 4.0870504,4.0870504 0 0 1 0.20154,0.0713 4.0870504,4.0870504 0 0 1 0.19792,0.0822 4.0870504,4.0870504 0 0 1 0.19327,0.092 4.0870504,4.0870504 0 0 1 0.18758,0.10232 4.0870504,4.0870504 0 0 1 0.18242,0.11162 4.0870504,4.0870504 0 0 1 0.11576,0.0796 v -2.58228 z"
       style="fill:none;stroke:#ff0000;stroke-width:0.284714"
       id="path11" /><path
       d="m 229.40946,59.616546 v 2.58692 a 4.0870504,4.0870504 0 0 1 0.48576,-0.29817 4.0870504,4.0870504 0 0 1 0.59273,-0.24547 4.0870504,4.0870504 0 0 1 0.62373,-0.14934 4.0870504,4.0870504 0 0 1 0.63924,-0.0506 4.0870504,4.0870504 0 0 1 0.21394,0.006 4.0870504,4.0870504 0 0 1 0.21342,0.0165 4.0870504,4.0870504 0 0 1 0.21187,0.0284 4.0870504,4.0870504 0 0 1 0.21033,0.0388 4.0870504,4.0870504 0 0 1 0.20825,0.0501 4.0870504,4.0870504 0 0 1 0.20516,0.0605 4.0870504,4.0870504 0 0 1 0.20154,0.0713 4.0870504,4.0870504 0 0 1 0.19792,0.0822 4.0870504,4.0870504 0 0 1 0.19327,0.092 4.0870504,4.0870504 0 0 1 0.18758,0.10232 4.0870504,4.0870504 0 0 1 0.18242,0.11162 4.0870504,4.0870504 0 0 1 0.11576,0.0796 v -2.58228 z"
       style="fill:none;stroke:#ff0000;stroke-width:0.284714"
       id="path12" /><path
       d="m 237.65923,65.290259 v 2.58692 a 4.0870504,4.0870504 0 0 1 0.48576,-0.29817 4.0870504,4.0870504 0 0 1 0.59273,-0.24547 4.0870504,4.0870504 0 0 1 0.62373,-0.14934 4.0870504,4.0870504 0 0 1 0.63924,-0.0506 4.0870504,4.0870504 0 0 1 0.21394,0.006 4.0870504,4.0870504 0 0 1 0.21342,0.0165 4.0870504,4.0870504 0 0 1 0.21187,0.0284 4.0870504,4.0870504 0 0 1 0.21033,0.0388 4.0870504,4.0870504 0 0 1 0.20825,0.0501 4.0870504,4.0870504 0 0 1 0.20516,0.0605 4.0870504,4.0870504 0 0 1 0.20154,0.0713 4.0870504,4.0870504 0 0 1 0.19792,0.0822 4.0870504,4.0870504 0 0 1 0.19327,0.092 4.0870504,4.0870504 0 0 1 0.18758,0.10232 4.0870504,4.0870504 0 0 1 0.18242,0.11162 4.0870504,4.0870504 0 0 1 0.11576,0.0796 v -2.58228 z"
       style="fill:none;stroke:#ff0000;stroke-width:0.284714"
       id="path13" /><path
       d="m 239.77844,44.930686 v 2.58692 a 4.0870504,4.0870504 0 0 1 0.48576,-0.29817 4.0870504,4.0870504 0 0 1 0.59273,-0.24547 4.0870504,4.0870504 0 0 1 0.62373,-0.14934 4.0870504,4.0870504 0 0 1 0.63924,-0.0506 4.0870504,4.0870504 0 0 1 0.21394,0.006 4.0870504,4.0870504 0 0 1 0.21342,0.0165 4.0870504,4.0870504 0 0 1 0.21187,0.0284 4.0870504,4.0870504 0 0 1 0.21033,0.0388 4.0870504,4.0870504 0 0 1 0.20825,0.0501 4.0870504,4.0870504 0 0 1 0.20516,0.0605 4.0870504,4.0870504 0 0 1 0.20154,0.0713 4.0870504,4.0870504 0 0 1 0.19792,0.0822 4.0870504,4.0870504 0 0 1 0.19327,0.092 4.0870504,4.0870504 0 0 1 0.18758,0.10232 4.0870504,4.0870504 0 0 1 0.18242,0.11162 4.0870504,4.0870504 0 0 1 0.11576,0.0796 v -2.58228 z"
       style="fill:none;stroke:#ff0000;stroke-width:0.284714"
       id="path14" /><path
       d="m 301.91675,97.986663 v 2.586917 a 4.0870504,4.0870504 0 0 1 0.48576,-0.29817 4.0870504,4.0870504 0 0 1 0.59273,-0.24547 4.0870504,4.0870504 0 0 1 0.62373,-0.149337 4.0870504,4.0870504 0 0 1 0.63924,-0.0506 4.0870504,4.0870504 0 0 1 0.21394,0.006 4.0870504,4.0870504 0 0 1 0.21342,0.0165 4.0870504,4.0870504 0 0 1 0.21187,0.0284 4.0870504,4.0870504 0 0 1 0.21033,0.0388 4.0870504,4.0870504 0 0 1 0.20825,0.0501 4.0870504,4.0870504 0 0 1 0.20516,0.0605 4.0870504,4.0870504 0 0 1 0.20154,0.0713 4.0870504,4.0870504 0 0 1 0.19792,0.0822 4.0870504,4.0870504 0 0 1 0.19327,0.092 4.0870504,4.0870504 0 0 1 0.18758,0.10232 4.0870504,4.0870504 0 0 1 0.18242,0.11162 4.0870504,4.0870504 0 0 1 0.11576,0.0796 v -2.582205 z"
       style="fill:none;stroke:#ff0000;stroke-width:0.284714"
       id="path15" /><path
       d="m 291.92618,97.986663 v 2.586917 a 4.0870504,4.0870504 0 0 1 0.48576,-0.29817 4.0870504,4.0870504 0 0 1 0.59273,-0.24547 4.0870504,4.0870504 0 0 1 0.62373,-0.149337 4.0870504,4.0870504 0 0 1 0.63924,-0.0506 4.0870504,4.0870504 0 0 1 0.21394,0.006 4.0870504,4.0870504 0 0 1 0.21342,0.0165 4.0870504,4.0870504 0 0 1 0.21187,0.0284 4.0870504,4.0870504 0 0 1 0.21033,0.0388 4.0870504,4.0870504 0 0 1 0.20825,0.0501 4.0870504,4.0870504 0 0 1 0.20516,0.0605 4.0870504,4.0870504 0 0 1 0.20154,0.0713 4.0870504,4.0870504 0 0 1 0.19792,0.0822 4.0870504,4.0870504 0 0 1 0.19327,0.092 4.0870504,4.0870504 0 0 1 0.18758,0.10232 4.0870504,4.0870504 0 0 1 0.18242,0.11162 4.0870504,4.0870504 0 0 1 0.11576,0.0796 v -2.582202 z"
       style="fill:none;stroke:#ff0000;stroke-width:0.284714"
       id="path16" /><path
       d="m 311.90732,97.986663 v 2.586917 a 4.0870504,4.0870504 0 0 1 0.48576,-0.29817 4.0870504,4.0870504 0 0 1 0.59273,-0.24547 4.0870504,4.0870504 0 0 1 0.62373,-0.149337 4.0870504,4.0870504 0 0 1 0.63924,-0.0506 4.0870504,4.0870504 0 0 1 0.21394,0.006 4.0870504,4.0870504 0 0 1 0.21342,0.0165 4.0870504,4.0870504 0 0 1 0.21187,0.0284 4.0870504,4.0870504 0 0 1 0.21033,0.0388 4.0870504,4.0870504 0 0 1 0.20825,0.0501 4.0870504,4.0870504 0 0 1 0.20516,0.0605 4.0870504,4.0870504 0 0 1 0.20154,0.0713 4.0870504,4.0870504 0 0 1 0.19792,0.0822 4.0870504,4.0870504 0 0 1 0.19327,0.092 4.0870504,4.0870504 0 0 1 0.18758,0.10232 4.0870504,4.0870504 0 0 1 0.18242,0.11162 4.0870504,4.0870504 0 0 1 0.11576,0.0796 v -2.582202 z"
       style="fill:none;stroke:#ff0000;stroke-width:0.284714"
       id="path17" /><path
       d="m 301.91675,115.84859 v 2.58691 a 4.0870504,4.0870504 0 0 1 0.48576,-0.29817 4.0870504,4.0870504 0 0 1 0.59273,-0.24547 4.0870504,4.0870504 0 0 1 0.62373,-0.14933 4.0870504,4.0870504 0 0 1 0.63924,-0.0506 4.0870504,4.0870504 0 0 1 0.21394,0.006 4.0870504,4.0870504 0 0 1 0.21342,0.0165 4.0870504,4.0870504 0 0 1 0.21187,0.0284 4.0870504,4.0870504 0 0 1 0.21033,0.0388 4.0870504,4.0870504 0 0 1 0.20825,0.0501 4.0870504,4.0870504 0 0 1 0.20516,0.0605 4.0870504,4.0870504 0 0 1 0.20154,0.0713 4.0870504,4.0870504 0 0 1 0.19792,0.0822 4.0870504,4.0870504 0 0 1 0.19327,0.092 4.0870504,4.0870504 0 0 1 0.18758,0.10232 4.0870504,4.0870504 0 0 1 0.18242,0.11162 4.0870504,4.0870504 0 0 1 0.11576,0.0796 V 115.849 Z"
       style="fill:none;stroke:#ff0000;stroke-width:0.284714"
       id="path18" /><rect
       style="display:inline;fill:none;stroke:#ff0000;stroke-width:0.3;stroke-dasharray:none"
       id="rect18"
       width="3.0041502"
       height="3.5587623"
       x="257.12042"
       y="-53.824253"
       transform="rotate(34.025972)" /><rect
       style="display:inline;fill:none;stroke:#ff0000;stroke-width:0.3;stroke-dasharray:none"
       id="rect19"
       width="3.0041502"
       height="3.5587623"
       x="257.12042"
       y="-48.612408"
       transform="rotate(34.025972)" /><rect
       style="display:inline;fill:none;stroke:#ff0000;stroke-width:0.3;stroke-dasharray:none"
       id="rect20"
       width="3.0041502"
       height="3.5587623"
       x="257.12045"
       y="-43.270161"
       transform="rotate(34.025972)" /><rect
       style="display:inline;fill:none;stroke:#ff0000;stroke-width:0.3;stroke-dasharray:none"
       id="rect21"
       width="3.0041502"
       height="3.5587623"
       x="257.12045"
       y="-38.084442"
       transform="rotate(34.025972)" /></g><g
     id="layer4"
     style="display:inline;stroke:#ff00ff"
     transform="translate(6.6336639,61.86932)"><circle
       style="fill:none;stroke:#ff00ff;stroke-width:0.474417"
       id="path3"
       cx="174.92976"
       cy="91.746559"
       r="6.1615553" /><circle
       style="fill:none;stroke:#ff00ff;stroke-width:0.3"
       id="circle19"
       cx="174.92976"
       cy="109.97825"
       r="3.8962882" /><circle
       style="fill:none;stroke:#ff00ff;stroke-width:0.3"
       id="circle20"
       cx="174.92976"
       cy="124.44636"
       r="3.8962882" /><use
       x="0"
       y="0"
       xlink:href="#circle20"
       transform="translate(13.660269)"
       id="use152"
       style="stroke:#ff00ff" /><use
       x="0"
       y="0"
       xlink:href="#circle20"
       transform="translate(27.320539)"
       id="use153"
       style="stroke:#ff00ff" /><use
       x="0"
       y="0"
       xlink:href="#circle20"
       transform="translate(40.980808)"
       id="use154"
       style="stroke:#ff00ff" /><use
       x="0"
       y="0"
       xlink:href="#circle20"
       transform="translate(54.641077)"
       id="use155"
       style="stroke:#ff00ff" /><use
       x="0"
       y="0"
       xlink:href="#circle20"
       transform="translate(68.301347)"
       id="use156"
       style="stroke:#ff00ff" /><use
       x="0"
       y="0"
       xlink:href="#circle20"
       transform="translate(81.961616)"
       id="use157"
       style="stroke:#ff00ff" /><use
       x="0"
       y="0"
       xlink:href="#circle20"
       transform="translate(95.621885)"
       id="use158"
       style="stroke:#ff00ff" /><use
       x="0"
       y="0"
       xlink:href="#circle20"
       transform="translate(109.28215)"
       id="use159"
       style="stroke:#ff00ff" /><use
       x="0"
       y="0"
       xlink:href="#circle20"
       transform="translate(-109.28215)"
       id="use160"
       style="stroke:#ff00ff" /><use
       x="0"
       y="0"
       xlink:href="#circle20"
       transform="translate(-95.62188)"
       id="use161"
       style="stroke:#ff00ff" /><circle
       style="fill:none;stroke:#ff00ff;stroke-width:0.3"
       id="circle167"
       cx="282.73508"
       cy="53.952072"
       r="3.8962882" /><circle
       style="fill:none;stroke:#ff00ff;stroke-width:0.3"
       id="circle168"
       cx="319.34314"
       cy="76.042465"
       r="3.8962882" /><circle
       style="fill:none;stroke:#ff00ff;stroke-width:0.3"
       id="circle169"
       cx="67.586205"
       cy="53.952072"
       r="3.8962882" /><circle
       style="fill:none;stroke:#ff00ff;stroke-width:0.3"
       id="circle170"
       cx="30.924528"
       cy="76.042465"
       r="3.8962882" /><circle
       style="fill:none;stroke:#ff00ff;stroke-width:0.474417"
       id="circle171"
       cx="72.215889"
       cy="73.950188"
       r="6.1615553" /><circle
       style="fill:none;stroke:#ff00ff;stroke-width:0.474417"
       id="circle172"
       cx="278.13531"
       cy="73.950188"
       r="6.1615553" /><rect
       style="fill:none;stroke:#ff00ff;stroke-width:0.3"
       id="rect172"
       width="6.7396784"
       height="33.967979"
       x="91.390045"
       y="42.459976" /><rect
       style="fill:none;stroke:#ff00ff;stroke-width:0.3"
       id="rect173"
       width="6.7396784"
       height="33.967979"
       x="253.15778"
       y="42.459976" /><rect
       style="fill:none;stroke:#ff00ff;stroke-width:0.3"
       id="rect174"
       width="6.1727977"
       height="16.194517"
       x="44.189972"
       y="64.414955" /><use
       x="0"
       y="0"
       xlink:href="#circle20"
       transform="translate(-13.660276,-99.837436)"
       id="use174"
       style="stroke:#ff00ff" /><use
       x="0"
       y="0"
       xlink:href="#circle20"
       transform="translate(-6.4949381e-6,-99.837436)"
       id="use175"
       style="stroke:#ff00ff" /><use
       x="0"
       y="0"
       xlink:href="#circle20"
       transform="translate(13.660262,-99.837436)"
       id="use176"
       style="stroke:#ff00ff" /><rect
       style="fill:none;stroke:#ff00ff;stroke-width:0.3"
       id="rect176"
       width="7.4810753"
       height="6.727664"
       x="75.723099"
       y="105.54022" /><path
       id="path176"
       style="fill:none;stroke:#ff00ff;stroke-width:0.214685"
       d="m 32.995538,64.372297 a 1.9634302,1.9634302 0 0 0 -1.963667,1.963667 1.9634302,1.9634302 0 0 0 1.963667,1.963295 h 3.103776 a 1.9634302,1.9634302 0 0 0 1.96366,-1.963295 1.9634302,1.9634302 0 0 0 -1.96366,-1.963667 z" /><rect
       style="fill:none;stroke:#ff00ff;stroke-width:0.3"
       id="rect180"
       width="12.212067"
       height="6.3502746"
       x="272.83386"
       y="91.932442" /></g></svg>
