<?xml version="1.0" encoding="UTF-8" standalone="no"?>
<!-- Created with Inkscape (http://www.inkscape.org/) -->

<svg
   width="357.06708mm"
   height="320.2258mm"
   viewBox="0 0 357.06708 320.2258"
   version="1.1"
   id="svg1"
   xml:space="preserve"
   sodipodi:docname="Cut.svg"
   inkscape:version="1.3.2 (091e20e, 2023-11-25)"
   xmlns:inkscape="http://www.inkscape.org/namespaces/inkscape"
   xmlns:sodipodi="http://sodipodi.sourceforge.net/DTD/sodipodi-0.dtd"
   xmlns="http://www.w3.org/2000/svg"
   xmlns:svg="http://www.w3.org/2000/svg"><sodipodi:namedview
     id="namedview1"
     pagecolor="#ffffff"
     bordercolor="#000000"
     borderopacity="0.25"
     inkscape:showpageshadow="2"
     inkscape:pageopacity="0.0"
     inkscape:pagecheckerboard="0"
     inkscape:deskcolor="#d1d1d1"
     inkscape:document-units="mm"
     inkscape:zoom="0.983713"
     inkscape:cx="700.91581"
     inkscape:cy="533.69224"
     inkscape:window-width="2304"
     inkscape:window-height="1365"
     inkscape:window-x="38"
     inkscape:window-y="320"
     inkscape:window-maximized="0"
     inkscape:current-layer="svg1" /><defs
     id="defs1" /><g
     id="layer3"
     transform="translate(6.6336639,61.86932)"
     style="display:inline"><path
       d="m 111.94459,67.863558 v 2.586922 a 4.0870504,4.0870504 0 0 1 0.48576,-0.298173 4.0870504,4.0870504 0 0 1 0.59273,-0.245463 4.0870504,4.0870504 0 0 1 0.62373,-0.149345 4.0870504,4.0870504 0 0 1 0.63924,-0.05064 4.0870504,4.0870504 0 0 1 0.21394,0.0057 4.0870504,4.0870504 0 0 1 0.21342,0.01654 4.0870504,4.0870504 0 0 1 0.21187,0.02842 4.0870504,4.0870504 0 0 1 0.21033,0.03876 4.0870504,4.0870504 0 0 1 0.20825,0.05013 4.0870504,4.0870504 0 0 1 0.20516,0.06046 4.0870504,4.0870504 0 0 1 0.20154,0.07131 4.0870504,4.0870504 0 0 1 0.19792,0.08217 4.0870504,4.0870504 0 0 1 0.19327,0.09198 4.0870504,4.0870504 0 0 1 0.18758,0.102319 4.0870504,4.0870504 0 0 1 0.18242,0.111622 4.0870504,4.0870504 0 0 1 0.11576,0.07958 v -2.582271 z"
       style="fill:none;stroke:#ff0000;stroke-width:0.284714"
       id="path2" /><path
       d="m 121.78378,67.863624 v 2.586922 a 4.0870504,4.0870504 0 0 1 0.48576,-0.298173 4.0870504,4.0870504 0 0 1 0.59273,-0.245463 4.0870504,4.0870504 0 0 1 0.62373,-0.149345 4.0870504,4.0870504 0 0 1 0.63924,-0.05064 4.0870504,4.0870504 0 0 1 0.21394,0.0057 4.0870504,4.0870504 0 0 1 0.21342,0.01654 4.0870504,4.0870504 0 0 1 0.21187,0.02842 4.0870504,4.0870504 0 0 1 0.21033,0.03876 4.0870504,4.0870504 0 0 1 0.20825,0.05013 4.0870504,4.0870504 0 0 1 0.20516,0.06046 4.0870504,4.0870504 0 0 1 0.20154,0.07131 4.0870504,4.0870504 0 0 1 0.19792,0.08217 4.0870504,4.0870504 0 0 1 0.19327,0.09198 4.0870504,4.0870504 0 0 1 0.18758,0.102319 4.0870504,4.0870504 0 0 1 0.18242,0.111622 4.0870504,4.0870504 0 0 1 0.11576,0.07958 v -2.582271 z"
       style="fill:none;stroke:#ff0000;stroke-width:0.284714"
       id="path4" /><path
       d="m 131.62297,67.863624 v 2.586922 a 4.0870504,4.0870504 0 0 1 0.48576,-0.298173 4.0870504,4.0870504 0 0 1 0.59273,-0.245463 4.0870504,4.0870504 0 0 1 0.62373,-0.149345 4.0870504,4.0870504 0 0 1 0.63924,-0.05064 4.0870504,4.0870504 0 0 1 0.21394,0.0057 4.0870504,4.0870504 0 0 1 0.21342,0.01654 4.0870504,4.0870504 0 0 1 0.21187,0.02842 4.0870504,4.0870504 0 0 1 0.21033,0.03876 4.0870504,4.0870504 0 0 1 0.20825,0.05013 4.0870504,4.0870504 0 0 1 0.20516,0.06046 4.0870504,4.0870504 0 0 1 0.20154,0.07131 4.0870504,4.0870504 0 0 1 0.19792,0.08217 4.0870504,4.0870504 0 0 1 0.19327,0.09198 4.0870504,4.0870504 0 0 1 0.18758,0.102319 4.0870504,4.0870504 0 0 1 0.18242,0.111622 4.0870504,4.0870504 0 0 1 0.11576,0.07958 v -2.582271 z"
       style="fill:none;stroke:#ff0000;stroke-width:0.284714"
       id="path5" /><path
       d="m 121.78378,49.774639 v 2.586922 a 4.0870504,4.0870504 0 0 1 0.48576,-0.298173 4.0870504,4.0870504 0 0 1 0.59273,-0.245463 4.0870504,4.0870504 0 0 1 0.62373,-0.149345 4.0870504,4.0870504 0 0 1 0.63924,-0.05064 4.0870504,4.0870504 0 0 1 0.21394,0.0057 4.0870504,4.0870504 0 0 1 0.21342,0.01654 4.0870504,4.0870504 0 0 1 0.21187,0.02842 4.0870504,4.0870504 0 0 1 0.21033,0.03876 4.0870504,4.0870504 0 0 1 0.20825,0.05013 4.0870504,4.0870504 0 0 1 0.20516,0.06046 4.0870504,4.0870504 0 0 1 0.20154,0.07131 4.0870504,4.0870504 0 0 1 0.19792,0.08217 4.0870504,4.0870504 0 0 1 0.19327,0.09198 4.0870504,4.0870504 0 0 1 0.18758,0.102319 4.0870504,4.0870504 0 0 1 0.18242,0.111622 4.0870504,4.0870504 0 0 1 0.11576,0.07958 V 49.77466 Z"
       style="fill:none;stroke:#ff0000;stroke-width:0.284714"
       id="path6" /><path
       d="m 53.590589,97.835327 v 2.586923 a 4.0870504,4.0870504 0 0 1 0.48576,-0.29817 4.0870504,4.0870504 0 0 1 0.59273,-0.245467 4.0870504,4.0870504 0 0 1 0.62373,-0.149345 4.0870504,4.0870504 0 0 1 0.63924,-0.05064 4.0870504,4.0870504 0 0 1 0.21394,0.0057 4.0870504,4.0870504 0 0 1 0.21342,0.01654 4.0870504,4.0870504 0 0 1 0.21187,0.02842 4.0870504,4.0870504 0 0 1 0.21033,0.03876 4.0870504,4.0870504 0 0 1 0.20825,0.05013 4.0870504,4.0870504 0 0 1 0.20516,0.06046 4.0870504,4.0870504 0 0 1 0.20154,0.07131 4.0870504,4.0870504 0 0 1 0.19792,0.08217 4.0870504,4.0870504 0 0 1 0.19327,0.092 4.0870504,4.0870504 0 0 1 0.18758,0.10232 4.0870504,4.0870504 0 0 1 0.182424,0.11162 4.0870504,4.0870504 0 0 1 0.11576,0.0796 v -2.58232 z"
       style="fill:none;stroke:#ff0000;stroke-width:0.284714"
       id="path7" /><path
       d="m 43.600019,97.835327 v 2.586923 a 4.0870504,4.0870504 0 0 1 0.48576,-0.29817 4.0870504,4.0870504 0 0 1 0.59273,-0.245467 4.0870504,4.0870504 0 0 1 0.62373,-0.149345 4.0870504,4.0870504 0 0 1 0.63924,-0.05064 4.0870504,4.0870504 0 0 1 0.21394,0.0057 4.0870504,4.0870504 0 0 1 0.21342,0.01654 4.0870504,4.0870504 0 0 1 0.21187,0.02842 4.0870504,4.0870504 0 0 1 0.21033,0.03876 4.0870504,4.0870504 0 0 1 0.20825,0.05013 4.0870504,4.0870504 0 0 1 0.20516,0.06046 4.0870504,4.0870504 0 0 1 0.20154,0.07131 4.0870504,4.0870504 0 0 1 0.19792,0.08217 4.0870504,4.0870504 0 0 1 0.19327,0.092 4.0870504,4.0870504 0 0 1 0.18758,0.10232 4.0870504,4.0870504 0 0 1 0.182424,0.11162 4.0870504,4.0870504 0 0 1 0.11576,0.0796 v -2.582323 z"
       style="fill:none;stroke:#ff0000;stroke-width:0.284714"
       id="path8" /><path
       d="m 33.609449,97.835327 v 2.586923 a 4.0870504,4.0870504 0 0 1 0.48576,-0.29817 4.0870504,4.0870504 0 0 1 0.59273,-0.245467 4.0870504,4.0870504 0 0 1 0.62373,-0.149345 4.0870504,4.0870504 0 0 1 0.63924,-0.05064 4.0870504,4.0870504 0 0 1 0.21394,0.0057 4.0870504,4.0870504 0 0 1 0.21342,0.01654 4.0870504,4.0870504 0 0 1 0.21187,0.02842 4.0870504,4.0870504 0 0 1 0.21033,0.03876 4.0870504,4.0870504 0 0 1 0.20825,0.05013 4.0870504,4.0870504 0 0 1 0.20516,0.06046 4.0870504,4.0870504 0 0 1 0.20154,0.07131 4.0870504,4.0870504 0 0 1 0.19792,0.08217 4.0870504,4.0870504 0 0 1 0.19327,0.092 4.0870504,4.0870504 0 0 1 0.18758,0.10232 4.0870504,4.0870504 0 0 1 0.182424,0.11162 4.0870504,4.0870504 0 0 1 0.11576,0.0796 v -2.582325 z"
       style="fill:none;stroke:#ff0000;stroke-width:0.284714"
       id="path9" /><path
       d="m 43.600019,115.84863 v 2.58692 a 4.0870504,4.0870504 0 0 1 0.48576,-0.29817 4.0870504,4.0870504 0 0 1 0.59273,-0.24547 4.0870504,4.0870504 0 0 1 0.62373,-0.14934 4.0870504,4.0870504 0 0 1 0.63924,-0.0506 4.0870504,4.0870504 0 0 1 0.21394,0.006 4.0870504,4.0870504 0 0 1 0.21342,0.0165 4.0870504,4.0870504 0 0 1 0.21187,0.0284 4.0870504,4.0870504 0 0 1 0.21033,0.0388 4.0870504,4.0870504 0 0 1 0.20825,0.0501 4.0870504,4.0870504 0 0 1 0.20516,0.0605 4.0870504,4.0870504 0 0 1 0.20154,0.0713 4.0870504,4.0870504 0 0 1 0.19792,0.0822 4.0870504,4.0870504 0 0 1 0.19327,0.092 4.0870504,4.0870504 0 0 1 0.18758,0.10232 4.0870504,4.0870504 0 0 1 0.182424,0.11162 4.0870504,4.0870504 0 0 1 0.11576,0.0796 v -2.58228 z"
       style="fill:none;stroke:#ff0000;stroke-width:0.284714"
       id="path10" /><path
       d="m 221.15967,53.940085 v 2.58692 a 4.0870504,4.0870504 0 0 1 0.48576,-0.29817 4.0870504,4.0870504 0 0 1 0.59273,-0.24547 4.0870504,4.0870504 0 0 1 0.62373,-0.14934 4.0870504,4.0870504 0 0 1 0.63924,-0.0506 4.0870504,4.0870504 0 0 1 0.21394,0.006 4.0870504,4.0870504 0 0 1 0.21342,0.0165 4.0870504,4.0870504 0 0 1 0.21187,0.0284 4.0870504,4.0870504 0 0 1 0.21033,0.0388 4.0870504,4.0870504 0 0 1 0.20825,0.0501 4.0870504,4.0870504 0 0 1 0.20516,0.0605 4.0870504,4.0870504 0 0 1 0.20154,0.0713 4.0870504,4.0870504 0 0 1 0.19792,0.0822 4.0870504,4.0870504 0 0 1 0.19327,0.092 4.0870504,4.0870504 0 0 1 0.18758,0.10232 4.0870504,4.0870504 0 0 1 0.18242,0.11162 4.0870504,4.0870504 0 0 1 0.11576,0.0796 v -2.58228 z"
       style="fill:none;stroke:#ff0000;stroke-width:0.284714"
       id="path11" /><path
       d="m 229.40946,59.616546 v 2.58692 a 4.0870504,4.0870504 0 0 1 0.48576,-0.29817 4.0870504,4.0870504 0 0 1 0.59273,-0.24547 4.0870504,4.0870504 0 0 1 0.62373,-0.14934 4.0870504,4.0870504 0 0 1 0.63924,-0.0506 4.0870504,4.0870504 0 0 1 0.21394,0.006 4.0870504,4.0870504 0 0 1 0.21342,0.0165 4.0870504,4.0870504 0 0 1 0.21187,0.0284 4.0870504,4.0870504 0 0 1 0.21033,0.0388 4.0870504,4.0870504 0 0 1 0.20825,0.0501 4.0870504,4.0870504 0 0 1 0.20516,0.0605 4.0870504,4.0870504 0 0 1 0.20154,0.0713 4.0870504,4.0870504 0 0 1 0.19792,0.0822 4.0870504,4.0870504 0 0 1 0.19327,0.092 4.0870504,4.0870504 0 0 1 0.18758,0.10232 4.0870504,4.0870504 0 0 1 0.18242,0.11162 4.0870504,4.0870504 0 0 1 0.11576,0.0796 v -2.58228 z"
       style="fill:none;stroke:#ff0000;stroke-width:0.284714"
       id="path12" /><path
       d="m 237.65923,65.290259 v 2.58692 a 4.0870504,4.0870504 0 0 1 0.48576,-0.29817 4.0870504,4.0870504 0 0 1 0.59273,-0.24547 4.0870504,4.0870504 0 0 1 0.62373,-0.14934 4.0870504,4.0870504 0 0 1 0.63924,-0.0506 4.0870504,4.0870504 0 0 1 0.21394,0.006 4.0870504,4.0870504 0 0 1 0.21342,0.0165 4.0870504,4.0870504 0 0 1 0.21187,0.0284 4.0870504,4.0870504 0 0 1 0.21033,0.0388 4.0870504,4.0870504 0 0 1 0.20825,0.0501 4.0870504,4.0870504 0 0 1 0.20516,0.0605 4.0870504,4.0870504 0 0 1 0.20154,0.0713 4.0870504,4.0870504 0 0 1 0.19792,0.0822 4.0870504,4.0870504 0 0 1 0.19327,0.092 4.0870504,4.0870504 0 0 1 0.18758,0.10232 4.0870504,4.0870504 0 0 1 0.18242,0.11162 4.0870504,4.0870504 0 0 1 0.11576,0.0796 v -2.58228 z"
       style="fill:none;stroke:#ff0000;stroke-width:0.284714"
       id="path13" /><path
       d="m 239.77844,44.930686 v 2.58692 a 4.0870504,4.0870504 0 0 1 0.48576,-0.29817 4.0870504,4.0870504 0 0 1 0.59273,-0.24547 4.0870504,4.0870504 0 0 1 0.62373,-0.14934 4.0870504,4.0870504 0 0 1 0.63924,-0.0506 4.0870504,4.0870504 0 0 1 0.21394,0.006 4.0870504,4.0870504 0 0 1 0.21342,0.0165 4.0870504,4.0870504 0 0 1 0.21187,0.0284 4.0870504,4.0870504 0 0 1 0.21033,0.0388 4.0870504,4.0870504 0 0 1 0.20825,0.0501 4.0870504,4.0870504 0 0 1 0.20516,0.0605 4.0870504,4.0870504 0 0 1 0.20154,0.0713 4.0870504,4.0870504 0 0 1 0.19792,0.0822 4.0870504,4.0870504 0 0 1 0.19327,0.092 4.0870504,4.0870504 0 0 1 0.18758,0.10232 4.0870504,4.0870504 0 0 1 0.18242,0.11162 4.0870504,4.0870504 0 0 1 0.11576,0.0796 v -2.58228 z"
       style="fill:none;stroke:#ff0000;stroke-width:0.284714"
       id="path14" /><path
       d="m 301.91675,97.986663 v 2.586917 a 4.0870504,4.0870504 0 0 1 0.48576,-0.29817 4.0870504,4.0870504 0 0 1 0.59273,-0.24547 4.0870504,4.0870504 0 0 1 0.62373,-0.149337 4.0870504,4.0870504 0 0 1 0.63924,-0.0506 4.0870504,4.0870504 0 0 1 0.21394,0.006 4.0870504,4.0870504 0 0 1 0.21342,0.0165 4.0870504,4.0870504 0 0 1 0.21187,0.0284 4.0870504,4.0870504 0 0 1 0.21033,0.0388 4.0870504,4.0870504 0 0 1 0.20825,0.0501 4.0870504,4.0870504 0 0 1 0.20516,0.0605 4.0870504,4.0870504 0 0 1 0.20154,0.0713 4.0870504,4.0870504 0 0 1 0.19792,0.0822 4.0870504,4.0870504 0 0 1 0.19327,0.092 4.0870504,4.0870504 0 0 1 0.18758,0.10232 4.0870504,4.0870504 0 0 1 0.18242,0.11162 4.0870504,4.0870504 0 0 1 0.11576,0.0796 v -2.582205 z"
       style="fill:none;stroke:#ff0000;stroke-width:0.284714"
       id="path15" /><path
       d="m 291.92618,97.986663 v 2.586917 a 4.0870504,4.0870504 0 0 1 0.48576,-0.29817 4.0870504,4.0870504 0 0 1 0.59273,-0.24547 4.0870504,4.0870504 0 0 1 0.62373,-0.149337 4.0870504,4.0870504 0 0 1 0.63924,-0.0506 4.0870504,4.0870504 0 0 1 0.21394,0.006 4.0870504,4.0870504 0 0 1 0.21342,0.0165 4.0870504,4.0870504 0 0 1 0.21187,0.0284 4.0870504,4.0870504 0 0 1 0.21033,0.0388 4.0870504,4.0870504 0 0 1 0.20825,0.0501 4.0870504,4.0870504 0 0 1 0.20516,0.0605 4.0870504,4.0870504 0 0 1 0.20154,0.0713 4.0870504,4.0870504 0 0 1 0.19792,0.0822 4.0870504,4.0870504 0 0 1 0.19327,0.092 4.0870504,4.0870504 0 0 1 0.18758,0.10232 4.0870504,4.0870504 0 0 1 0.18242,0.11162 4.0870504,4.0870504 0 0 1 0.11576,0.0796 v -2.582202 z"
       style="fill:none;stroke:#ff0000;stroke-width:0.284714"
       id="path16" /><path
       d="m 311.90732,97.986663 v 2.586917 a 4.0870504,4.0870504 0 0 1 0.48576,-0.29817 4.0870504,4.0870504 0 0 1 0.59273,-0.24547 4.0870504,4.0870504 0 0 1 0.62373,-0.149337 4.0870504,4.0870504 0 0 1 0.63924,-0.0506 4.0870504,4.0870504 0 0 1 0.21394,0.006 4.0870504,4.0870504 0 0 1 0.21342,0.0165 4.0870504,4.0870504 0 0 1 0.21187,0.0284 4.0870504,4.0870504 0 0 1 0.21033,0.0388 4.0870504,4.0870504 0 0 1 0.20825,0.0501 4.0870504,4.0870504 0 0 1 0.20516,0.0605 4.0870504,4.0870504 0 0 1 0.20154,0.0713 4.0870504,4.0870504 0 0 1 0.19792,0.0822 4.0870504,4.0870504 0 0 1 0.19327,0.092 4.0870504,4.0870504 0 0 1 0.18758,0.10232 4.0870504,4.0870504 0 0 1 0.18242,0.11162 4.0870504,4.0870504 0 0 1 0.11576,0.0796 v -2.582202 z"
       style="fill:none;stroke:#ff0000;stroke-width:0.284714"
       id="path17" /><path
       d="m 301.91675,115.84859 v 2.58691 a 4.0870504,4.0870504 0 0 1 0.48576,-0.29817 4.0870504,4.0870504 0 0 1 0.59273,-0.24547 4.0870504,4.0870504 0 0 1 0.62373,-0.14933 4.0870504,4.0870504 0 0 1 0.63924,-0.0506 4.0870504,4.0870504 0 0 1 0.21394,0.006 4.0870504,4.0870504 0 0 1 0.21342,0.0165 4.0870504,4.0870504 0 0 1 0.21187,0.0284 4.0870504,4.0870504 0 0 1 0.21033,0.0388 4.0870504,4.0870504 0 0 1 0.20825,0.0501 4.0870504,4.0870504 0 0 1 0.20516,0.0605 4.0870504,4.0870504 0 0 1 0.20154,0.0713 4.0870504,4.0870504 0 0 1 0.19792,0.0822 4.0870504,4.0870504 0 0 1 0.19327,0.092 4.0870504,4.0870504 0 0 1 0.18758,0.10232 4.0870504,4.0870504 0 0 1 0.18242,0.11162 4.0870504,4.0870504 0 0 1 0.11576,0.0796 V 115.849 Z"
       style="fill:none;stroke:#ff0000;stroke-width:0.284714"
       id="path18" /><rect
       style="display:inline;fill:none;stroke:#ff0000;stroke-width:0.3;stroke-dasharray:none"
       id="rect18"
       width="3.0041502"
       height="3.5587623"
       x="257.12042"
       y="-53.824253"
       transform="rotate(34.025972)" /><rect
       style="display:inline;fill:none;stroke:#ff0000;stroke-width:0.3;stroke-dasharray:none"
       id="rect19"
       width="3.0041502"
       height="3.5587623"
       x="257.12042"
       y="-48.612408"
       transform="rotate(34.025972)" /><rect
       style="display:inline;fill:none;stroke:#ff0000;stroke-width:0.3;stroke-dasharray:none"
       id="rect20"
       width="3.0041502"
       height="3.5587623"
       x="257.12045"
       y="-43.270161"
       transform="rotate(34.025972)" /><rect
       style="display:inline;fill:none;stroke:#ff0000;stroke-width:0.3;stroke-dasharray:none"
       id="rect21"
       width="3.0041502"
       height="3.5587623"
       x="257.12045"
       y="-38.084442"
       transform="rotate(34.025972)" /></g></svg>
