%TF.GenerationSoftware,KiCad,Pcbnew,8.0.2-1*%
%TF.CreationDate,2024-05-26T16:10:42+02:00*%
%TF.ProjectId,Full-Backplane,46756c6c-2d42-4616-936b-706c616e652e,rev?*%
%TF.SameCoordinates,Original*%
%TF.FileFunction,Profile,NP*%
%FSLAX46Y46*%
G04 Gerber Fmt 4.6, Leading zero omitted, Abs format (unit mm)*
G04 Created by KiCad (PCBNEW 8.0.2-1) date 2024-05-26 16:10:42*
%MOMM*%
%LPD*%
G01*
G04 APERTURE LIST*
%TA.AperFunction,Profile*%
%ADD10C,0.181894*%
%TD*%
%TA.AperFunction,Profile*%
%ADD11C,0.123999*%
%TD*%
%TA.AperFunction,Profile*%
%ADD12C,0.300000*%
%TD*%
%TA.AperFunction,Profile*%
%ADD13C,0.252608*%
%TD*%
%TA.AperFunction,Profile*%
%ADD14C,0.215846*%
%TD*%
%TA.AperFunction,Profile*%
%ADD15C,0.214684*%
%TD*%
G04 APERTURE END LIST*
D10*
%TO.C,REF\u002A\u002A*%
X313796230Y-101338058D02*
X314091597Y-101359239D01*
X314385866Y-101394534D01*
X314678490Y-101443942D01*
X314968919Y-101507465D01*
X315256607Y-101585101D01*
X315541004Y-101676851D01*
X315821563Y-101782714D01*
X316097736Y-101902691D01*
X316368974Y-102036781D01*
X316634730Y-102184985D01*
X316894455Y-102347302D01*
X317147601Y-102523733D01*
X317393620Y-102714276D01*
X317631963Y-102918933D01*
X317862084Y-103137703D01*
X317971896Y-103251034D01*
X318078653Y-103367002D01*
X318182312Y-103485541D01*
X318282833Y-103606589D01*
X318380172Y-103730079D01*
X318474288Y-103855950D01*
X318565139Y-103984135D01*
X318652682Y-104114570D01*
X318736876Y-104247193D01*
X318817679Y-104381938D01*
X318895048Y-104518740D01*
X318968942Y-104657537D01*
X319039318Y-104798263D01*
X319106134Y-104940854D01*
X319169349Y-105085247D01*
X319228921Y-105231376D01*
X322376382Y-105231376D01*
X322443155Y-105511287D01*
X322501029Y-105792665D01*
X322550005Y-106075300D01*
X322590083Y-106358983D01*
X322621262Y-106643505D01*
X322643542Y-106928657D01*
X322656925Y-107214228D01*
X322661408Y-107500009D01*
X322656993Y-107785792D01*
X322643680Y-108071366D01*
X322621468Y-108356522D01*
X322590357Y-108641050D01*
X322550349Y-108924741D01*
X322501441Y-109207386D01*
X322443635Y-109488776D01*
X322376931Y-109768700D01*
X319228921Y-109768181D01*
X319169389Y-109914337D01*
X319106214Y-110058756D01*
X319039438Y-110201375D01*
X318969103Y-110342129D01*
X318895252Y-110480952D01*
X318817926Y-110617780D01*
X318737169Y-110752548D01*
X318653023Y-110885191D01*
X318565531Y-111015644D01*
X318474734Y-111143844D01*
X318380675Y-111269724D01*
X318283397Y-111393220D01*
X318182942Y-111514267D01*
X318079352Y-111632801D01*
X317972670Y-111748756D01*
X317862939Y-111862068D01*
X317641271Y-112073069D01*
X317410444Y-112271977D01*
X317170965Y-112458583D01*
X316923338Y-112632677D01*
X316668070Y-112794050D01*
X316405666Y-112942492D01*
X316136633Y-113077794D01*
X315861476Y-113199745D01*
X315580700Y-113308136D01*
X315294812Y-113402758D01*
X315004318Y-113483401D01*
X314709723Y-113549856D01*
X314411533Y-113601912D01*
X314110254Y-113639360D01*
X313806391Y-113661990D01*
X313500451Y-113669594D01*
X313194510Y-113662033D01*
X312890644Y-113639445D01*
X312589359Y-113602038D01*
X312291160Y-113550021D01*
X311996552Y-113483604D01*
X311706041Y-113402996D01*
X311420132Y-113308405D01*
X311139331Y-113200041D01*
X310864142Y-113078112D01*
X310595071Y-112942828D01*
X310332624Y-112794399D01*
X310077306Y-112633031D01*
X309829622Y-112458936D01*
X309590078Y-112272322D01*
X309359178Y-112073398D01*
X309137429Y-111862373D01*
X309027641Y-111749007D01*
X308920910Y-111633005D01*
X308817277Y-111514431D01*
X308716785Y-111393348D01*
X308619476Y-111269823D01*
X308525391Y-111143918D01*
X308434573Y-111015699D01*
X308347064Y-110885229D01*
X308262905Y-110752573D01*
X308182138Y-110617796D01*
X308104805Y-110480961D01*
X308030949Y-110342134D01*
X307960611Y-110201377D01*
X307893833Y-110058757D01*
X307830658Y-109914337D01*
X307771126Y-109768181D01*
X304623116Y-109768730D01*
X304556394Y-109488841D01*
X304498567Y-109207487D01*
X304449637Y-108924877D01*
X304409604Y-108641221D01*
X304378467Y-108356729D01*
X304356226Y-108071608D01*
X304342881Y-107786069D01*
X304338433Y-107500320D01*
X304342881Y-107214572D01*
X304356226Y-106929033D01*
X304378467Y-106643912D01*
X304409604Y-106359419D01*
X304449637Y-106075763D01*
X304498567Y-105793154D01*
X304556394Y-105511800D01*
X304623116Y-105231911D01*
X307770592Y-105231895D01*
X307830184Y-105085723D01*
X307893421Y-104941289D01*
X307960262Y-104798657D01*
X308030665Y-104657890D01*
X308104587Y-104519052D01*
X308181989Y-104382208D01*
X308262828Y-104247422D01*
X308347062Y-104114757D01*
X308434650Y-103984278D01*
X308525550Y-103856048D01*
X308619721Y-103730132D01*
X308717120Y-103606592D01*
X308817707Y-103485495D01*
X308921440Y-103366902D01*
X309028277Y-103250879D01*
X309138177Y-103137489D01*
X309368342Y-102918722D01*
X309606727Y-102714070D01*
X309852784Y-102523533D01*
X310105966Y-102347111D01*
X310365724Y-102184804D01*
X310631509Y-102036612D01*
X310902775Y-101902534D01*
X311178972Y-101782571D01*
X311459553Y-101676723D01*
X311743969Y-101584990D01*
X312031672Y-101507371D01*
X312322114Y-101443866D01*
X312614748Y-101394476D01*
X312909024Y-101359201D01*
X313204396Y-101338039D01*
X313500313Y-101330992D01*
X313796230Y-101338058D01*
D11*
X208971497Y-139459467D02*
X209070685Y-139417731D01*
X209170793Y-139378590D01*
X209271769Y-139342054D01*
X209373563Y-139308135D01*
X209476124Y-139276843D01*
X209579400Y-139248189D01*
X209683342Y-139222183D01*
X209787898Y-139198837D01*
X209893017Y-139178162D01*
X209998648Y-139160167D01*
X210104740Y-139144864D01*
X210211242Y-139132263D01*
X210318104Y-139122376D01*
X210425274Y-139115213D01*
X210532702Y-139110785D01*
X210640336Y-139109102D01*
X210856741Y-139114597D01*
X211070305Y-139130858D01*
X211280763Y-139157621D01*
X211487852Y-139194623D01*
X211691306Y-139241599D01*
X211890862Y-139298284D01*
X212086256Y-139364415D01*
X212277222Y-139439728D01*
X212463499Y-139523957D01*
X212644820Y-139616839D01*
X212820921Y-139718109D01*
X212991540Y-139827503D01*
X213156411Y-139944758D01*
X213315270Y-140069608D01*
X213467853Y-140201790D01*
X213613896Y-140341039D01*
X213753135Y-140487091D01*
X213885305Y-140639681D01*
X214010143Y-140798546D01*
X214127383Y-140963421D01*
X214236763Y-141134043D01*
X214338017Y-141310145D01*
X214430882Y-141491466D01*
X214515094Y-141677739D01*
X214590387Y-141868702D01*
X214656499Y-142064089D01*
X214713164Y-142263636D01*
X214760119Y-142467080D01*
X214797099Y-142674155D01*
X214823841Y-142884599D01*
X214840080Y-143098146D01*
X214845551Y-143314531D01*
X214843855Y-143422096D01*
X214839416Y-143529459D01*
X214832243Y-143636569D01*
X214822348Y-143743374D01*
X214809742Y-143849824D01*
X214794435Y-143955867D01*
X214776438Y-144061452D01*
X214755761Y-144166527D01*
X214732416Y-144271042D01*
X214706413Y-144374945D01*
X214677762Y-144478184D01*
X214646476Y-144580710D01*
X214612563Y-144682470D01*
X214576036Y-144783414D01*
X214536904Y-144883489D01*
X214495179Y-144982645D01*
X216012406Y-146499865D01*
X215909664Y-146666982D01*
X215801925Y-146830517D01*
X215689291Y-146990369D01*
X215571861Y-147146436D01*
X215449738Y-147298618D01*
X215323022Y-147446815D01*
X215191815Y-147590924D01*
X215056216Y-147730845D01*
X214916328Y-147866477D01*
X214772250Y-147997719D01*
X214624085Y-148124470D01*
X214471932Y-148246629D01*
X214315893Y-148364095D01*
X214156070Y-148476767D01*
X213992562Y-148584545D01*
X213825471Y-148687327D01*
X212308244Y-147169596D01*
X212209093Y-147211353D01*
X212109022Y-147250516D01*
X212008084Y-147287076D01*
X211906329Y-147321020D01*
X211803810Y-147352340D01*
X211700578Y-147381022D01*
X211596685Y-147407058D01*
X211492183Y-147430435D01*
X211387122Y-147451144D01*
X211281556Y-147469173D01*
X211175536Y-147484512D01*
X211069112Y-147497149D01*
X210962338Y-147507075D01*
X210855265Y-147514278D01*
X210747944Y-147518747D01*
X210640427Y-147520472D01*
X210431862Y-147515331D01*
X210224710Y-147499945D01*
X210019317Y-147474459D01*
X209816029Y-147439014D01*
X209615189Y-147393753D01*
X209417142Y-147338819D01*
X209222235Y-147274354D01*
X209030810Y-147200502D01*
X208843214Y-147117406D01*
X208659791Y-147025208D01*
X208480886Y-146924050D01*
X208306843Y-146814077D01*
X208138009Y-146695429D01*
X207974727Y-146568251D01*
X207817342Y-146432685D01*
X207666199Y-146288874D01*
X207522368Y-146137751D01*
X207386780Y-145980384D01*
X207259579Y-145817119D01*
X207140909Y-145648298D01*
X207030911Y-145474267D01*
X206929728Y-145295370D01*
X206837505Y-145111951D01*
X206754382Y-144924355D01*
X206680503Y-144732926D01*
X206616012Y-144538008D01*
X206561050Y-144339947D01*
X206515761Y-144139085D01*
X206480288Y-143935769D01*
X206454773Y-143730341D01*
X206439359Y-143523147D01*
X206434190Y-143314531D01*
X206435914Y-143206961D01*
X206440384Y-143099594D01*
X206447586Y-142992480D01*
X206457512Y-142885671D01*
X206470149Y-142779219D01*
X206485488Y-142673174D01*
X206503517Y-142567589D01*
X206524226Y-142462513D01*
X206547603Y-142357999D01*
X206573639Y-142254097D01*
X206602322Y-142150859D01*
X206633641Y-142048336D01*
X206667586Y-141946579D01*
X206704145Y-141845639D01*
X206743309Y-141745569D01*
X206785065Y-141646418D01*
X205267319Y-140129198D01*
X205370075Y-139962117D01*
X205477825Y-139798617D01*
X205590469Y-139638800D01*
X205707905Y-139482768D01*
X205830034Y-139330620D01*
X205956754Y-139182458D01*
X206087964Y-139038382D01*
X206223563Y-138898494D01*
X206363451Y-138762894D01*
X206507526Y-138631684D01*
X206655689Y-138504963D01*
X206807837Y-138382834D01*
X206963870Y-138265397D01*
X207123687Y-138152753D01*
X207287187Y-138045003D01*
X207454270Y-137942247D01*
X208971497Y-139459467D01*
%TA.AperFunction,Profile*%
G36*
X208971497Y-139459467D02*
G01*
X209070685Y-139417731D01*
X209170793Y-139378590D01*
X209271769Y-139342054D01*
X209373563Y-139308135D01*
X209476124Y-139276843D01*
X209579400Y-139248189D01*
X209683342Y-139222183D01*
X209787898Y-139198837D01*
X209893017Y-139178162D01*
X209998648Y-139160167D01*
X210104740Y-139144864D01*
X210211242Y-139132263D01*
X210318104Y-139122376D01*
X210425274Y-139115213D01*
X210532702Y-139110785D01*
X210640336Y-139109102D01*
X210856741Y-139114597D01*
X211070305Y-139130858D01*
X211280763Y-139157621D01*
X211487852Y-139194623D01*
X211691306Y-139241599D01*
X211890862Y-139298284D01*
X212086256Y-139364415D01*
X212277222Y-139439728D01*
X212463499Y-139523957D01*
X212644820Y-139616839D01*
X212820921Y-139718109D01*
X212991540Y-139827503D01*
X213156411Y-139944758D01*
X213315270Y-140069608D01*
X213467853Y-140201790D01*
X213613896Y-140341039D01*
X213753135Y-140487091D01*
X213885305Y-140639681D01*
X214010143Y-140798546D01*
X214127383Y-140963421D01*
X214236763Y-141134043D01*
X214338017Y-141310145D01*
X214430882Y-141491466D01*
X214515094Y-141677739D01*
X214590387Y-141868702D01*
X214656499Y-142064089D01*
X214713164Y-142263636D01*
X214760119Y-142467080D01*
X214797099Y-142674155D01*
X214823841Y-142884599D01*
X214840080Y-143098146D01*
X214845551Y-143314531D01*
X214843855Y-143422096D01*
X214839416Y-143529459D01*
X214832243Y-143636569D01*
X214822348Y-143743374D01*
X214809742Y-143849824D01*
X214794435Y-143955867D01*
X214776438Y-144061452D01*
X214755761Y-144166527D01*
X214732416Y-144271042D01*
X214706413Y-144374945D01*
X214677762Y-144478184D01*
X214646476Y-144580710D01*
X214612563Y-144682470D01*
X214576036Y-144783414D01*
X214536904Y-144883489D01*
X214495179Y-144982645D01*
X216012406Y-146499865D01*
X215909664Y-146666982D01*
X215801925Y-146830517D01*
X215689291Y-146990369D01*
X215571861Y-147146436D01*
X215449738Y-147298618D01*
X215323022Y-147446815D01*
X215191815Y-147590924D01*
X215056216Y-147730845D01*
X214916328Y-147866477D01*
X214772250Y-147997719D01*
X214624085Y-148124470D01*
X214471932Y-148246629D01*
X214315893Y-148364095D01*
X214156070Y-148476767D01*
X213992562Y-148584545D01*
X213825471Y-148687327D01*
X212308244Y-147169596D01*
X212209093Y-147211353D01*
X212109022Y-147250516D01*
X212008084Y-147287076D01*
X211906329Y-147321020D01*
X211803810Y-147352340D01*
X211700578Y-147381022D01*
X211596685Y-147407058D01*
X211492183Y-147430435D01*
X211387122Y-147451144D01*
X211281556Y-147469173D01*
X211175536Y-147484512D01*
X211069112Y-147497149D01*
X210962338Y-147507075D01*
X210855265Y-147514278D01*
X210747944Y-147518747D01*
X210640427Y-147520472D01*
X210431862Y-147515331D01*
X210224710Y-147499945D01*
X210019317Y-147474459D01*
X209816029Y-147439014D01*
X209615189Y-147393753D01*
X209417142Y-147338819D01*
X209222235Y-147274354D01*
X209030810Y-147200502D01*
X208843214Y-147117406D01*
X208659791Y-147025208D01*
X208480886Y-146924050D01*
X208306843Y-146814077D01*
X208138009Y-146695429D01*
X207974727Y-146568251D01*
X207817342Y-146432685D01*
X207666199Y-146288874D01*
X207522368Y-146137751D01*
X207386780Y-145980384D01*
X207259579Y-145817119D01*
X207140909Y-145648298D01*
X207030911Y-145474267D01*
X206929728Y-145295370D01*
X206837505Y-145111951D01*
X206754382Y-144924355D01*
X206680503Y-144732926D01*
X206616012Y-144538008D01*
X206561050Y-144339947D01*
X206515761Y-144139085D01*
X206480288Y-143935769D01*
X206454773Y-143730341D01*
X206439359Y-143523147D01*
X206434190Y-143314531D01*
X206435914Y-143206961D01*
X206440384Y-143099594D01*
X206447586Y-142992480D01*
X206457512Y-142885671D01*
X206470149Y-142779219D01*
X206485488Y-142673174D01*
X206503517Y-142567589D01*
X206524226Y-142462513D01*
X206547603Y-142357999D01*
X206573639Y-142254097D01*
X206602322Y-142150859D01*
X206633641Y-142048336D01*
X206667586Y-141946579D01*
X206704145Y-141845639D01*
X206743309Y-141745569D01*
X206785065Y-141646418D01*
X205267319Y-140129198D01*
X205370075Y-139962117D01*
X205477825Y-139798617D01*
X205590469Y-139638800D01*
X205707905Y-139482768D01*
X205830034Y-139330620D01*
X205956754Y-139182458D01*
X206087964Y-139038382D01*
X206223563Y-138898494D01*
X206363451Y-138762894D01*
X206507526Y-138631684D01*
X206655689Y-138504963D01*
X206807837Y-138382834D01*
X206963870Y-138265397D01*
X207123687Y-138152753D01*
X207287187Y-138045003D01*
X207454270Y-137942247D01*
X208971497Y-139459467D01*
G37*
%TD.AperFunction*%
D12*
%TO.C,B1*%
X171941056Y-115041511D02*
X182035020Y-115041511D01*
X185263764Y-118121940D01*
X185263764Y-133744743D01*
X180921921Y-148811531D01*
X153089509Y-148811531D01*
X142290681Y-132817161D01*
X142290681Y-124356178D01*
X160251862Y-113334633D01*
X169825959Y-113334633D01*
X171941056Y-115041511D01*
D13*
X65325073Y-125233623D02*
X65445495Y-125242780D01*
X65564165Y-125257859D01*
X65680936Y-125278712D01*
X65795658Y-125305190D01*
X65908182Y-125337144D01*
X66018359Y-125374424D01*
X66126040Y-125416881D01*
X66231076Y-125464368D01*
X66333318Y-125516734D01*
X66432617Y-125573830D01*
X66528825Y-125635509D01*
X66621792Y-125701619D01*
X66711369Y-125772014D01*
X66797407Y-125846543D01*
X66879758Y-125925058D01*
X66958271Y-126007410D01*
X67032799Y-126093449D01*
X67103193Y-126183027D01*
X67169303Y-126275994D01*
X67230980Y-126372203D01*
X67288075Y-126471503D01*
X67340440Y-126573745D01*
X67387925Y-126678782D01*
X67430382Y-126786463D01*
X67467661Y-126896640D01*
X67499614Y-127009164D01*
X67526091Y-127123885D01*
X67546944Y-127240655D01*
X67562023Y-127359325D01*
X67571180Y-127479746D01*
X67574265Y-127601768D01*
X67571180Y-127723792D01*
X67562023Y-127844214D01*
X67546944Y-127962885D01*
X67526091Y-128079656D01*
X67499614Y-128194378D01*
X67467661Y-128306902D01*
X67430382Y-128417079D01*
X67387925Y-128524761D01*
X67340440Y-128629798D01*
X67288075Y-128732040D01*
X67230980Y-128831340D01*
X67169303Y-128927549D01*
X67103193Y-129020516D01*
X67032799Y-129110094D01*
X66958271Y-129196133D01*
X66879758Y-129278484D01*
X66797407Y-129356999D01*
X66711369Y-129431527D01*
X66621792Y-129501921D01*
X66528825Y-129568032D01*
X66432617Y-129629710D01*
X66333318Y-129686806D01*
X66231076Y-129739171D01*
X66126040Y-129786657D01*
X66018359Y-129829114D01*
X65908182Y-129866394D01*
X65795658Y-129898347D01*
X65680936Y-129924825D01*
X65564165Y-129945677D01*
X65445495Y-129960757D01*
X65325073Y-129969914D01*
X65203049Y-129972999D01*
X65081026Y-129969914D01*
X64960604Y-129960757D01*
X64841933Y-129945677D01*
X64725162Y-129924825D01*
X64610441Y-129898347D01*
X64497917Y-129866394D01*
X64387740Y-129829114D01*
X64280059Y-129786657D01*
X64175023Y-129739171D01*
X64072781Y-129686806D01*
X63973481Y-129629710D01*
X63877274Y-129568032D01*
X63784307Y-129501921D01*
X63694730Y-129431527D01*
X63608692Y-129356999D01*
X63526341Y-129278484D01*
X63447827Y-129196133D01*
X63373299Y-129110094D01*
X63302906Y-129020516D01*
X63236796Y-128927549D01*
X63175119Y-128831340D01*
X63118024Y-128732040D01*
X63065659Y-128629798D01*
X63018173Y-128524761D01*
X62975717Y-128417079D01*
X62938437Y-128306902D01*
X62906485Y-128194378D01*
X62880008Y-128079656D01*
X62859155Y-127962885D01*
X62844076Y-127844214D01*
X62834919Y-127723792D01*
X62831833Y-127601768D01*
X62834919Y-127479746D01*
X62844076Y-127359325D01*
X62859155Y-127240655D01*
X62880008Y-127123885D01*
X62906485Y-127009164D01*
X62938437Y-126896640D01*
X62975717Y-126786463D01*
X63018173Y-126678782D01*
X63065659Y-126573745D01*
X63118024Y-126471503D01*
X63175119Y-126372203D01*
X63236796Y-126275994D01*
X63302906Y-126183027D01*
X63373299Y-126093449D01*
X63447827Y-126007410D01*
X63526341Y-125925058D01*
X63608692Y-125846543D01*
X63694730Y-125772014D01*
X63784307Y-125701619D01*
X63877274Y-125635509D01*
X63973481Y-125573830D01*
X64072781Y-125516734D01*
X64175023Y-125464368D01*
X64280059Y-125416881D01*
X64387740Y-125374424D01*
X64497917Y-125337144D01*
X64610441Y-125305190D01*
X64725162Y-125278712D01*
X64841933Y-125257859D01*
X64960604Y-125242780D01*
X65081026Y-125233623D01*
X65203049Y-125230537D01*
X65325073Y-125233623D01*
D12*
X71467872Y-133384644D02*
X71675428Y-133400427D01*
X71879968Y-133426418D01*
X72081232Y-133462360D01*
X72278966Y-133507997D01*
X72472911Y-133563071D01*
X72662812Y-133627327D01*
X72848410Y-133700506D01*
X73029450Y-133782353D01*
X73205675Y-133872610D01*
X73376828Y-133971021D01*
X73542652Y-134077329D01*
X73702890Y-134191278D01*
X73857286Y-134312609D01*
X74005582Y-134441067D01*
X74147523Y-134576395D01*
X74282850Y-134718335D01*
X74411308Y-134866632D01*
X74532639Y-135021028D01*
X74646587Y-135181267D01*
X74752895Y-135347092D01*
X74851306Y-135518245D01*
X74941563Y-135694471D01*
X75023409Y-135875512D01*
X75096589Y-136061111D01*
X75160844Y-136251012D01*
X75215919Y-136444959D01*
X75261556Y-136642693D01*
X75297498Y-136843959D01*
X75323489Y-137048499D01*
X75339272Y-137256058D01*
X75344590Y-137466377D01*
X75339272Y-137676696D01*
X75323489Y-137884254D01*
X75297498Y-138088795D01*
X75261556Y-138290061D01*
X75215919Y-138487795D01*
X75160844Y-138681741D01*
X75096589Y-138871643D01*
X75023409Y-139057242D01*
X74941563Y-139238283D01*
X74851306Y-139414509D01*
X74752895Y-139585662D01*
X74646587Y-139751487D01*
X74532639Y-139911726D01*
X74411308Y-140066122D01*
X74282850Y-140214419D01*
X74147523Y-140356359D01*
X74005582Y-140491687D01*
X73857286Y-140620145D01*
X73702890Y-140741476D01*
X73542652Y-140855424D01*
X73376828Y-140961732D01*
X73205675Y-141060144D01*
X73029450Y-141150401D01*
X72848410Y-141232248D01*
X72662812Y-141305427D01*
X72472911Y-141369683D01*
X72278966Y-141424757D01*
X72081232Y-141470394D01*
X71879968Y-141506336D01*
X71675428Y-141532327D01*
X71467872Y-141548110D01*
X71257554Y-141553428D01*
X71047236Y-141548110D01*
X70839679Y-141532327D01*
X70635140Y-141506336D01*
X70433875Y-141470394D01*
X70236142Y-141424757D01*
X70042196Y-141369683D01*
X69852296Y-141305427D01*
X69666697Y-141232248D01*
X69485657Y-141150401D01*
X69309432Y-141060144D01*
X69138279Y-140961732D01*
X68972455Y-140855424D01*
X68812217Y-140741476D01*
X68657822Y-140620145D01*
X68509525Y-140491687D01*
X68367585Y-140356359D01*
X68232257Y-140214419D01*
X68103800Y-140066122D01*
X67982469Y-139911726D01*
X67868521Y-139751487D01*
X67762213Y-139585662D01*
X67663802Y-139414509D01*
X67573545Y-139238283D01*
X67491698Y-139057242D01*
X67418518Y-138871643D01*
X67354263Y-138681741D01*
X67299189Y-138487795D01*
X67253552Y-138290061D01*
X67217610Y-138088795D01*
X67191619Y-137884254D01*
X67175836Y-137676696D01*
X67170518Y-137466377D01*
X67175836Y-137256058D01*
X67191619Y-137048499D01*
X67217610Y-136843959D01*
X67253552Y-136642693D01*
X67299189Y-136444959D01*
X67354263Y-136251012D01*
X67418518Y-136061111D01*
X67491698Y-135875512D01*
X67573545Y-135694471D01*
X67663802Y-135518245D01*
X67762213Y-135347092D01*
X67868521Y-135181267D01*
X67982469Y-135021028D01*
X68103800Y-134866632D01*
X68232257Y-134718335D01*
X68367585Y-134576395D01*
X68509525Y-134441067D01*
X68657822Y-134312609D01*
X68812217Y-134191278D01*
X68972455Y-134077329D01*
X69138279Y-133971021D01*
X69309432Y-133872610D01*
X69485657Y-133782353D01*
X69666697Y-133700506D01*
X69852296Y-133627327D01*
X70042196Y-133563071D01*
X70236142Y-133507997D01*
X70433875Y-133462360D01*
X70635140Y-133426418D01*
X70839679Y-133400427D01*
X71047236Y-133384644D01*
X71257554Y-133379326D01*
X71467872Y-133384644D01*
X81458442Y-133384644D02*
X81665999Y-133400427D01*
X81870538Y-133426418D01*
X82071803Y-133462360D01*
X82269536Y-133507997D01*
X82463481Y-133563071D01*
X82653382Y-133627327D01*
X82838980Y-133700506D01*
X83020021Y-133782353D01*
X83196245Y-133872610D01*
X83367398Y-133971021D01*
X83533222Y-134077329D01*
X83693460Y-134191278D01*
X83847856Y-134312609D01*
X83996152Y-134441067D01*
X84138093Y-134576395D01*
X84273420Y-134718335D01*
X84401878Y-134866632D01*
X84523209Y-135021028D01*
X84637157Y-135181267D01*
X84743465Y-135347092D01*
X84841876Y-135518245D01*
X84932133Y-135694471D01*
X85013980Y-135875512D01*
X85087159Y-136061111D01*
X85151414Y-136251012D01*
X85206489Y-136444959D01*
X85252126Y-136642693D01*
X85288068Y-136843959D01*
X85314059Y-137048499D01*
X85329842Y-137256058D01*
X85335160Y-137466377D01*
X85329842Y-137676696D01*
X85314059Y-137884254D01*
X85288068Y-138088795D01*
X85252126Y-138290061D01*
X85206489Y-138487795D01*
X85151414Y-138681741D01*
X85087159Y-138871643D01*
X85013980Y-139057242D01*
X84932133Y-139238283D01*
X84841876Y-139414509D01*
X84743465Y-139585662D01*
X84637157Y-139751487D01*
X84523209Y-139911726D01*
X84401878Y-140066122D01*
X84273420Y-140214419D01*
X84138093Y-140356359D01*
X83996152Y-140491687D01*
X83847856Y-140620145D01*
X83693460Y-140741476D01*
X83533222Y-140855424D01*
X83367398Y-140961732D01*
X83196245Y-141060144D01*
X83020021Y-141150401D01*
X82838980Y-141232248D01*
X82653382Y-141305427D01*
X82463481Y-141369683D01*
X82269536Y-141424757D01*
X82071803Y-141470394D01*
X81870538Y-141506336D01*
X81665999Y-141532327D01*
X81458442Y-141548110D01*
X81248124Y-141553428D01*
X81037806Y-141548110D01*
X80830249Y-141532327D01*
X80625710Y-141506336D01*
X80424445Y-141470394D01*
X80226712Y-141424757D01*
X80032766Y-141369683D01*
X79842866Y-141305427D01*
X79657267Y-141232248D01*
X79476227Y-141150401D01*
X79300002Y-141060144D01*
X79128849Y-140961732D01*
X78963025Y-140855424D01*
X78802787Y-140741476D01*
X78648392Y-140620145D01*
X78500095Y-140491687D01*
X78358155Y-140356359D01*
X78222828Y-140214419D01*
X78094370Y-140066122D01*
X77973039Y-139911726D01*
X77859091Y-139751487D01*
X77752783Y-139585662D01*
X77654372Y-139414509D01*
X77564115Y-139238283D01*
X77482268Y-139057242D01*
X77409089Y-138871643D01*
X77344833Y-138681741D01*
X77289759Y-138487795D01*
X77244122Y-138290061D01*
X77208180Y-138088795D01*
X77182189Y-137884254D01*
X77166406Y-137676696D01*
X77161088Y-137466377D01*
X77166406Y-137256058D01*
X77182189Y-137048499D01*
X77208180Y-136843959D01*
X77244122Y-136642693D01*
X77289759Y-136444959D01*
X77344833Y-136251012D01*
X77409089Y-136061111D01*
X77482268Y-135875512D01*
X77564115Y-135694471D01*
X77654372Y-135518245D01*
X77752783Y-135347092D01*
X77859091Y-135181267D01*
X77973039Y-135021028D01*
X78094370Y-134866632D01*
X78222828Y-134718335D01*
X78358155Y-134576395D01*
X78500095Y-134441067D01*
X78648392Y-134312609D01*
X78802787Y-134191278D01*
X78963025Y-134077329D01*
X79128849Y-133971021D01*
X79300002Y-133872610D01*
X79476227Y-133782353D01*
X79657267Y-133700506D01*
X79842866Y-133627327D01*
X80032766Y-133563071D01*
X80226712Y-133507997D01*
X80424445Y-133462360D01*
X80625710Y-133426418D01*
X80830249Y-133400427D01*
X81037806Y-133384644D01*
X81248124Y-133379326D01*
X81458442Y-133384644D01*
X81458442Y-151246567D02*
X81665999Y-151262350D01*
X81870538Y-151288341D01*
X82071803Y-151324283D01*
X82269536Y-151369920D01*
X82463481Y-151424994D01*
X82653382Y-151489250D01*
X82838980Y-151562429D01*
X83020021Y-151644276D01*
X83196245Y-151734534D01*
X83367398Y-151832945D01*
X83533222Y-151939253D01*
X83693460Y-152053201D01*
X83847856Y-152174532D01*
X83996152Y-152302990D01*
X84138093Y-152438318D01*
X84273420Y-152580259D01*
X84401878Y-152728555D01*
X84523209Y-152882952D01*
X84637157Y-153043190D01*
X84743465Y-153209015D01*
X84841876Y-153380168D01*
X84932133Y-153556394D01*
X85013980Y-153737435D01*
X85087159Y-153923034D01*
X85151414Y-154112936D01*
X85206489Y-154306882D01*
X85252126Y-154504616D01*
X85288068Y-154705882D01*
X85314059Y-154910423D01*
X85329842Y-155117981D01*
X85335160Y-155328300D01*
X85329842Y-155538619D01*
X85314059Y-155746178D01*
X85288068Y-155950718D01*
X85252126Y-156151984D01*
X85206489Y-156349718D01*
X85151414Y-156543665D01*
X85087159Y-156733566D01*
X85013980Y-156919166D01*
X84932133Y-157100207D01*
X84841876Y-157276432D01*
X84743465Y-157447586D01*
X84637157Y-157613410D01*
X84523209Y-157773649D01*
X84401878Y-157928045D01*
X84273420Y-158076342D01*
X84138093Y-158218282D01*
X83996152Y-158353610D01*
X83847856Y-158482068D01*
X83693460Y-158603400D01*
X83533222Y-158717348D01*
X83367398Y-158823656D01*
X83196245Y-158922067D01*
X83020021Y-159012324D01*
X82838980Y-159094171D01*
X82653382Y-159167351D01*
X82463481Y-159231606D01*
X82269536Y-159286680D01*
X82071803Y-159332317D01*
X81870538Y-159368260D01*
X81665999Y-159394251D01*
X81458442Y-159410034D01*
X81248124Y-159415352D01*
X81037806Y-159410034D01*
X80830249Y-159394251D01*
X80625710Y-159368260D01*
X80424445Y-159332317D01*
X80226712Y-159286680D01*
X80032766Y-159231606D01*
X79842866Y-159167351D01*
X79657267Y-159094171D01*
X79476227Y-159012324D01*
X79300002Y-158922067D01*
X79128849Y-158823656D01*
X78963025Y-158717348D01*
X78802787Y-158603400D01*
X78648392Y-158482068D01*
X78500095Y-158353610D01*
X78358155Y-158218282D01*
X78222828Y-158076342D01*
X78094370Y-157928045D01*
X77973039Y-157773649D01*
X77859091Y-157613410D01*
X77752783Y-157447586D01*
X77654372Y-157276432D01*
X77564115Y-157100207D01*
X77482268Y-156919166D01*
X77409089Y-156733566D01*
X77344833Y-156543665D01*
X77289759Y-156349718D01*
X77244122Y-156151984D01*
X77208180Y-155950718D01*
X77182189Y-155746178D01*
X77166406Y-155538619D01*
X77161088Y-155328300D01*
X77166406Y-155117981D01*
X77182189Y-154910423D01*
X77208180Y-154705882D01*
X77244122Y-154504616D01*
X77289759Y-154306882D01*
X77344833Y-154112936D01*
X77409089Y-153923034D01*
X77482268Y-153737435D01*
X77564115Y-153556394D01*
X77654372Y-153380168D01*
X77752783Y-153209015D01*
X77859091Y-153043190D01*
X77973039Y-152882952D01*
X78094370Y-152728555D01*
X78222828Y-152580259D01*
X78358155Y-152438318D01*
X78500095Y-152302990D01*
X78648392Y-152174532D01*
X78802787Y-152053201D01*
X78963025Y-151939253D01*
X79128849Y-151832945D01*
X79300002Y-151734534D01*
X79476227Y-151644276D01*
X79657267Y-151562429D01*
X79842866Y-151489250D01*
X80032766Y-151424994D01*
X80226712Y-151369920D01*
X80424445Y-151324283D01*
X80625710Y-151288341D01*
X80830249Y-151262350D01*
X81037806Y-151246567D01*
X81248124Y-151241249D01*
X81458442Y-151246567D01*
X91449012Y-133384644D02*
X91656569Y-133400427D01*
X91861108Y-133426418D01*
X92062373Y-133462360D01*
X92260106Y-133507997D01*
X92454051Y-133563071D01*
X92643952Y-133627327D01*
X92829550Y-133700506D01*
X93010591Y-133782353D01*
X93186815Y-133872610D01*
X93357968Y-133971021D01*
X93523792Y-134077329D01*
X93684030Y-134191278D01*
X93838426Y-134312609D01*
X93986722Y-134441067D01*
X94128663Y-134576395D01*
X94263990Y-134718335D01*
X94392448Y-134866632D01*
X94513779Y-135021028D01*
X94627727Y-135181267D01*
X94734035Y-135347092D01*
X94832446Y-135518245D01*
X94922703Y-135694471D01*
X95004550Y-135875512D01*
X95077729Y-136061111D01*
X95141984Y-136251012D01*
X95197059Y-136444959D01*
X95242696Y-136642693D01*
X95278638Y-136843959D01*
X95304629Y-137048499D01*
X95320412Y-137256058D01*
X95325730Y-137466377D01*
X95320412Y-137676696D01*
X95304629Y-137884254D01*
X95278638Y-138088795D01*
X95242696Y-138290061D01*
X95197059Y-138487795D01*
X95141984Y-138681741D01*
X95077729Y-138871643D01*
X95004550Y-139057242D01*
X94922703Y-139238283D01*
X94832446Y-139414509D01*
X94734035Y-139585662D01*
X94627727Y-139751487D01*
X94513779Y-139911726D01*
X94392448Y-140066122D01*
X94263990Y-140214419D01*
X94128663Y-140356359D01*
X93986722Y-140491687D01*
X93838426Y-140620145D01*
X93684030Y-140741476D01*
X93523792Y-140855424D01*
X93357968Y-140961732D01*
X93186815Y-141060144D01*
X93010591Y-141150401D01*
X92829550Y-141232248D01*
X92643952Y-141305427D01*
X92454051Y-141369683D01*
X92260106Y-141424757D01*
X92062373Y-141470394D01*
X91861108Y-141506336D01*
X91656569Y-141532327D01*
X91449012Y-141548110D01*
X91238694Y-141553428D01*
X91028376Y-141548110D01*
X90820819Y-141532327D01*
X90616280Y-141506336D01*
X90415015Y-141470394D01*
X90217282Y-141424757D01*
X90023336Y-141369683D01*
X89833436Y-141305427D01*
X89647837Y-141232248D01*
X89466797Y-141150401D01*
X89290572Y-141060144D01*
X89119419Y-140961732D01*
X88953596Y-140855424D01*
X88793357Y-140741476D01*
X88638962Y-140620145D01*
X88490665Y-140491687D01*
X88348725Y-140356359D01*
X88213398Y-140214419D01*
X88084940Y-140066122D01*
X87963609Y-139911726D01*
X87849661Y-139751487D01*
X87743353Y-139585662D01*
X87644942Y-139414509D01*
X87554685Y-139238283D01*
X87472838Y-139057242D01*
X87399659Y-138871643D01*
X87335403Y-138681741D01*
X87280329Y-138487795D01*
X87234692Y-138290061D01*
X87198750Y-138088795D01*
X87172759Y-137884254D01*
X87156976Y-137676696D01*
X87151658Y-137466377D01*
X87156976Y-137256058D01*
X87172759Y-137048499D01*
X87198750Y-136843959D01*
X87234692Y-136642693D01*
X87280329Y-136444959D01*
X87335403Y-136251012D01*
X87399659Y-136061111D01*
X87472838Y-135875512D01*
X87554685Y-135694471D01*
X87644942Y-135518245D01*
X87743353Y-135347092D01*
X87849661Y-135181267D01*
X87963609Y-135021028D01*
X88084940Y-134866632D01*
X88213398Y-134718335D01*
X88348725Y-134576395D01*
X88490665Y-134441067D01*
X88638962Y-134312609D01*
X88793357Y-134191278D01*
X88953596Y-134077329D01*
X89119419Y-133971021D01*
X89290572Y-133872610D01*
X89466797Y-133782353D01*
X89647837Y-133700506D01*
X89833436Y-133627327D01*
X90023336Y-133563071D01*
X90217282Y-133507997D01*
X90415015Y-133462360D01*
X90616280Y-133426418D01*
X90820819Y-133400427D01*
X91028376Y-133384644D01*
X91238694Y-133379326D01*
X91449012Y-133384644D01*
X95372564Y-93971273D02*
X95552050Y-93984512D01*
X95728927Y-94006315D01*
X95902972Y-94036466D01*
X96073963Y-94074748D01*
X96241678Y-94120948D01*
X96405895Y-94174849D01*
X96566392Y-94236236D01*
X96722947Y-94304894D01*
X96875338Y-94380607D01*
X97023343Y-94463159D01*
X97166739Y-94552336D01*
X97305305Y-94647922D01*
X97438819Y-94749702D01*
X97567058Y-94857460D01*
X97689801Y-94970980D01*
X97806825Y-95090048D01*
X97917909Y-95214448D01*
X98022830Y-95343964D01*
X98121366Y-95478382D01*
X98213295Y-95617485D01*
X98298396Y-95761058D01*
X98376445Y-95908886D01*
X98447222Y-96060753D01*
X98510504Y-96216445D01*
X98566068Y-96375745D01*
X98613693Y-96538438D01*
X98653158Y-96704310D01*
X98684238Y-96873143D01*
X98706714Y-97044723D01*
X98720362Y-97218835D01*
X98724961Y-97395263D01*
X98720362Y-97571691D01*
X98706714Y-97745803D01*
X98684238Y-97917384D01*
X98653158Y-98086218D01*
X98613693Y-98252089D01*
X98566068Y-98414782D01*
X98510504Y-98574083D01*
X98447222Y-98729775D01*
X98376445Y-98881642D01*
X98298396Y-99029471D01*
X98213295Y-99173044D01*
X98121366Y-99312148D01*
X98022830Y-99446565D01*
X97917909Y-99576082D01*
X97806825Y-99700482D01*
X97689801Y-99819550D01*
X97567058Y-99933071D01*
X97438819Y-100040829D01*
X97305305Y-100142609D01*
X97166739Y-100238196D01*
X97023343Y-100327373D01*
X96875338Y-100409926D01*
X96722947Y-100485639D01*
X96566392Y-100554297D01*
X96405895Y-100615685D01*
X96241678Y-100669586D01*
X96073963Y-100715786D01*
X95902972Y-100754068D01*
X95728927Y-100784219D01*
X95552050Y-100806022D01*
X95372564Y-100819261D01*
X95190690Y-100823723D01*
X95008816Y-100819261D01*
X94829329Y-100806022D01*
X94652453Y-100784219D01*
X94478408Y-100754068D01*
X94307417Y-100715786D01*
X94139702Y-100669586D01*
X93975484Y-100615685D01*
X93814987Y-100554297D01*
X93658432Y-100485639D01*
X93506041Y-100409926D01*
X93358037Y-100327373D01*
X93214640Y-100238196D01*
X93076074Y-100142609D01*
X92942561Y-100040829D01*
X92814321Y-99933071D01*
X92691579Y-99819550D01*
X92574554Y-99700482D01*
X92463471Y-99576082D01*
X92358550Y-99446565D01*
X92260014Y-99312148D01*
X92168084Y-99173044D01*
X92082984Y-99029471D01*
X92004934Y-98881642D01*
X91934158Y-98729775D01*
X91870876Y-98574083D01*
X91815311Y-98414782D01*
X91767686Y-98252089D01*
X91728222Y-98086218D01*
X91697141Y-97917384D01*
X91674665Y-97745803D01*
X91661017Y-97571691D01*
X91656418Y-97395263D01*
X91661017Y-97218835D01*
X91674665Y-97044723D01*
X91697141Y-96873143D01*
X91728222Y-96704310D01*
X91767686Y-96538438D01*
X91815311Y-96375745D01*
X91870876Y-96216445D01*
X91934158Y-96060753D01*
X92004934Y-95908886D01*
X92082984Y-95761058D01*
X92168084Y-95617485D01*
X92260014Y-95478382D01*
X92358550Y-95343964D01*
X92463471Y-95214448D01*
X92574554Y-95090048D01*
X92691579Y-94970980D01*
X92814321Y-94857460D01*
X92942561Y-94749702D01*
X93076074Y-94647922D01*
X93214640Y-94552336D01*
X93358037Y-94463159D01*
X93506041Y-94380607D01*
X93658432Y-94304894D01*
X93814987Y-94236236D01*
X93975484Y-94174849D01*
X94139702Y-94120948D01*
X94307417Y-94074748D01*
X94478408Y-94036466D01*
X94652453Y-94006315D01*
X94829329Y-93984512D01*
X95008816Y-93971273D01*
X95190690Y-93966812D01*
X95372564Y-93971273D01*
X143596749Y-80328659D02*
X143804307Y-80344442D01*
X144008847Y-80370433D01*
X144210113Y-80406375D01*
X144407848Y-80452012D01*
X144601794Y-80507087D01*
X144791695Y-80571342D01*
X144977295Y-80644522D01*
X145158336Y-80726368D01*
X145334561Y-80816626D01*
X145505715Y-80915037D01*
X145671539Y-81021345D01*
X145831778Y-81135293D01*
X145986174Y-81256625D01*
X146134471Y-81385083D01*
X146276412Y-81520410D01*
X146411739Y-81662351D01*
X146540197Y-81810648D01*
X146661529Y-81965044D01*
X146775477Y-82125283D01*
X146881785Y-82291107D01*
X146980196Y-82462261D01*
X147070453Y-82638486D01*
X147152300Y-82819527D01*
X147225480Y-83005127D01*
X147289735Y-83195028D01*
X147344810Y-83388974D01*
X147390447Y-83586709D01*
X147426389Y-83787975D01*
X147452380Y-83992515D01*
X147468163Y-84200073D01*
X147473481Y-84410392D01*
X147468163Y-84620712D01*
X147452380Y-84828270D01*
X147426389Y-85032810D01*
X147390447Y-85234076D01*
X147344810Y-85431811D01*
X147289735Y-85625757D01*
X147225480Y-85815658D01*
X147152300Y-86001258D01*
X147070453Y-86182299D01*
X146980196Y-86358524D01*
X146881785Y-86529678D01*
X146775477Y-86695502D01*
X146661529Y-86855741D01*
X146540197Y-87010137D01*
X146411739Y-87158434D01*
X146276412Y-87300375D01*
X146134471Y-87435702D01*
X145986174Y-87564160D01*
X145831778Y-87685492D01*
X145671539Y-87799440D01*
X145505715Y-87905748D01*
X145334561Y-88004159D01*
X145158336Y-88094416D01*
X144977295Y-88176263D01*
X144791695Y-88249443D01*
X144601794Y-88313698D01*
X144407848Y-88368773D01*
X144210113Y-88414410D01*
X144008847Y-88450352D01*
X143804307Y-88476343D01*
X143596749Y-88492126D01*
X143386429Y-88497444D01*
X143176110Y-88492126D01*
X142968552Y-88476343D01*
X142764012Y-88450352D01*
X142562746Y-88414410D01*
X142365011Y-88368773D01*
X142171065Y-88313698D01*
X141981164Y-88249443D01*
X141795564Y-88176263D01*
X141614523Y-88094416D01*
X141438298Y-88004159D01*
X141267144Y-87905748D01*
X141101320Y-87799440D01*
X140941081Y-87685492D01*
X140786685Y-87564160D01*
X140638388Y-87435702D01*
X140496447Y-87300375D01*
X140361119Y-87158434D01*
X140232661Y-87010137D01*
X140111330Y-86855741D01*
X139997382Y-86695502D01*
X139891074Y-86529678D01*
X139792663Y-86358524D01*
X139702405Y-86182299D01*
X139620559Y-86001258D01*
X139547379Y-85815658D01*
X139483124Y-85625757D01*
X139428049Y-85431811D01*
X139382412Y-85234076D01*
X139346470Y-85032810D01*
X139320479Y-84828270D01*
X139304696Y-84620712D01*
X139299378Y-84410392D01*
X139304696Y-84200073D01*
X139320479Y-83992515D01*
X139346470Y-83787975D01*
X139382412Y-83586709D01*
X139428049Y-83388974D01*
X139483124Y-83195028D01*
X139547379Y-83005127D01*
X139620559Y-82819527D01*
X139702405Y-82638486D01*
X139792663Y-82462261D01*
X139891074Y-82291107D01*
X139997382Y-82125283D01*
X140111330Y-81965044D01*
X140232661Y-81810648D01*
X140361119Y-81662351D01*
X140496447Y-81520410D01*
X140638388Y-81385083D01*
X140786685Y-81256625D01*
X140941081Y-81135293D01*
X141101320Y-81021345D01*
X141267144Y-80915037D01*
X141438298Y-80816626D01*
X141614523Y-80726368D01*
X141795564Y-80644522D01*
X141981164Y-80571342D01*
X142171065Y-80507087D01*
X142365011Y-80452012D01*
X142562746Y-80406375D01*
X142764012Y-80370433D01*
X142968552Y-80344442D01*
X143176110Y-80328659D01*
X143386429Y-80323341D01*
X143596749Y-80328659D01*
X145715966Y-100688232D02*
X145923524Y-100704015D01*
X146128064Y-100730006D01*
X146329330Y-100765949D01*
X146527065Y-100811586D01*
X146721011Y-100866660D01*
X146910912Y-100930915D01*
X147096512Y-101004095D01*
X147277553Y-101085942D01*
X147453778Y-101176199D01*
X147624932Y-101274610D01*
X147790756Y-101380918D01*
X147950995Y-101494866D01*
X148105391Y-101616198D01*
X148253688Y-101744656D01*
X148395629Y-101879984D01*
X148530956Y-102021924D01*
X148659414Y-102170221D01*
X148780746Y-102324617D01*
X148894694Y-102484856D01*
X149001002Y-102650680D01*
X149099413Y-102821834D01*
X149189670Y-102998059D01*
X149271517Y-103179100D01*
X149344697Y-103364700D01*
X149408952Y-103554601D01*
X149464027Y-103748548D01*
X149509663Y-103946282D01*
X149545606Y-104147548D01*
X149571597Y-104352088D01*
X149587380Y-104559647D01*
X149592698Y-104769966D01*
X149587380Y-104980285D01*
X149571597Y-105187843D01*
X149545606Y-105392384D01*
X149509663Y-105593650D01*
X149464027Y-105791384D01*
X149408952Y-105985330D01*
X149344697Y-106175232D01*
X149271517Y-106360831D01*
X149189670Y-106541872D01*
X149099413Y-106718098D01*
X149001002Y-106889251D01*
X148894694Y-107055076D01*
X148780746Y-107215314D01*
X148659414Y-107369711D01*
X148530956Y-107518007D01*
X148395629Y-107659948D01*
X148253688Y-107795276D01*
X148105391Y-107923734D01*
X147950995Y-108045065D01*
X147790756Y-108159013D01*
X147624932Y-108265321D01*
X147453778Y-108363732D01*
X147277553Y-108453990D01*
X147096512Y-108535837D01*
X146910912Y-108609016D01*
X146721011Y-108673272D01*
X146527065Y-108728346D01*
X146329330Y-108773983D01*
X146128064Y-108809925D01*
X145923524Y-108835916D01*
X145715966Y-108851699D01*
X145505646Y-108857017D01*
X145295327Y-108851699D01*
X145087769Y-108835916D01*
X144883228Y-108809925D01*
X144681963Y-108773983D01*
X144484228Y-108728346D01*
X144290282Y-108673272D01*
X144100381Y-108609016D01*
X143914781Y-108535837D01*
X143733740Y-108453990D01*
X143557514Y-108363732D01*
X143386361Y-108265321D01*
X143220537Y-108159013D01*
X143060298Y-108045065D01*
X142905902Y-107923734D01*
X142757605Y-107795276D01*
X142615664Y-107659948D01*
X142480336Y-107518007D01*
X142351878Y-107369711D01*
X142230547Y-107215314D01*
X142116599Y-107055076D01*
X142010291Y-106889251D01*
X141911880Y-106718098D01*
X141821622Y-106541872D01*
X141739776Y-106360831D01*
X141666596Y-106175232D01*
X141602341Y-105985330D01*
X141547266Y-105791384D01*
X141501629Y-105593650D01*
X141465687Y-105392384D01*
X141439696Y-105187843D01*
X141423913Y-104980285D01*
X141418595Y-104769966D01*
X141423913Y-104559647D01*
X141439696Y-104352088D01*
X141465687Y-104147548D01*
X141501629Y-103946282D01*
X141547266Y-103748548D01*
X141602341Y-103554601D01*
X141666596Y-103364700D01*
X141739776Y-103179100D01*
X141821622Y-102998059D01*
X141911880Y-102821834D01*
X142010291Y-102650680D01*
X142116599Y-102484856D01*
X142230547Y-102324617D01*
X142351878Y-102170221D01*
X142480336Y-102021924D01*
X142615664Y-101879984D01*
X142757605Y-101744656D01*
X142905902Y-101616198D01*
X143060298Y-101494866D01*
X143220537Y-101380918D01*
X143386361Y-101274610D01*
X143557514Y-101176199D01*
X143733740Y-101085942D01*
X143914781Y-101004095D01*
X144100381Y-100930915D01*
X144290282Y-100866660D01*
X144484228Y-100811586D01*
X144681963Y-100765949D01*
X144883228Y-100730006D01*
X145087769Y-100704015D01*
X145295327Y-100688232D01*
X145505646Y-100682914D01*
X145715966Y-100688232D01*
X153965737Y-95014526D02*
X154173295Y-95030309D01*
X154377835Y-95056300D01*
X154579101Y-95092243D01*
X154776836Y-95137879D01*
X154970782Y-95192954D01*
X155160683Y-95257209D01*
X155346283Y-95330389D01*
X155527324Y-95412236D01*
X155703549Y-95502493D01*
X155874703Y-95600904D01*
X156040527Y-95707212D01*
X156200766Y-95821160D01*
X156355162Y-95942492D01*
X156503459Y-96070950D01*
X156645400Y-96206278D01*
X156780727Y-96348218D01*
X156909185Y-96496515D01*
X157030517Y-96650911D01*
X157144465Y-96811150D01*
X157250773Y-96976974D01*
X157349184Y-97148128D01*
X157439441Y-97324353D01*
X157521288Y-97505394D01*
X157594468Y-97690994D01*
X157658723Y-97880895D01*
X157713798Y-98074842D01*
X157759435Y-98272576D01*
X157795377Y-98473842D01*
X157821368Y-98678382D01*
X157837151Y-98885941D01*
X157842469Y-99096260D01*
X157837151Y-99306579D01*
X157821368Y-99514137D01*
X157795377Y-99718678D01*
X157759435Y-99919944D01*
X157713798Y-100117678D01*
X157658723Y-100311624D01*
X157594468Y-100501526D01*
X157521288Y-100687125D01*
X157439441Y-100868166D01*
X157349184Y-101044392D01*
X157250773Y-101215545D01*
X157144465Y-101381370D01*
X157030517Y-101541608D01*
X156909185Y-101696004D01*
X156780727Y-101844301D01*
X156645400Y-101986242D01*
X156503459Y-102121570D01*
X156355162Y-102250028D01*
X156200766Y-102371359D01*
X156040527Y-102485307D01*
X155874703Y-102591615D01*
X155703549Y-102690026D01*
X155527324Y-102780284D01*
X155346283Y-102862131D01*
X155160683Y-102935310D01*
X154970782Y-102999566D01*
X154776836Y-103054640D01*
X154579101Y-103100277D01*
X154377835Y-103136219D01*
X154173295Y-103162210D01*
X153965737Y-103177993D01*
X153755417Y-103183311D01*
X153545098Y-103177993D01*
X153337540Y-103162210D01*
X153133000Y-103136219D01*
X152931734Y-103100277D01*
X152733999Y-103054640D01*
X152540053Y-102999566D01*
X152350152Y-102935310D01*
X152164552Y-102862131D01*
X151983511Y-102780284D01*
X151807286Y-102690026D01*
X151636132Y-102591615D01*
X151470308Y-102485307D01*
X151310069Y-102371359D01*
X151155673Y-102250028D01*
X151007376Y-102121570D01*
X150865435Y-101986242D01*
X150730108Y-101844301D01*
X150601650Y-101696004D01*
X150480318Y-101541608D01*
X150366370Y-101381370D01*
X150260062Y-101215545D01*
X150161651Y-101044392D01*
X150071394Y-100868166D01*
X149989547Y-100687125D01*
X149916367Y-100501526D01*
X149852112Y-100311624D01*
X149797037Y-100117678D01*
X149751400Y-99919944D01*
X149715458Y-99718678D01*
X149689467Y-99514137D01*
X149673684Y-99306579D01*
X149668366Y-99096260D01*
X149673684Y-98885941D01*
X149689467Y-98678382D01*
X149715458Y-98473842D01*
X149751400Y-98272576D01*
X149797037Y-98074842D01*
X149852112Y-97880895D01*
X149916367Y-97690994D01*
X149989547Y-97505394D01*
X150071394Y-97324353D01*
X150161651Y-97148128D01*
X150260062Y-96976974D01*
X150366370Y-96811150D01*
X150480318Y-96650911D01*
X150601650Y-96496515D01*
X150730108Y-96348218D01*
X150865435Y-96206278D01*
X151007376Y-96070950D01*
X151155673Y-95942492D01*
X151310069Y-95821160D01*
X151470308Y-95707212D01*
X151636132Y-95600904D01*
X151807286Y-95502493D01*
X151983511Y-95412236D01*
X152164552Y-95330389D01*
X152350152Y-95257209D01*
X152540053Y-95192954D01*
X152733999Y-95137879D01*
X152931734Y-95092243D01*
X153133000Y-95056300D01*
X153337540Y-95030309D01*
X153545098Y-95014526D01*
X153755417Y-95009208D01*
X153965737Y-95014526D01*
X162215523Y-89338059D02*
X162423081Y-89353841D01*
X162627622Y-89379832D01*
X162828888Y-89415775D01*
X163026622Y-89461412D01*
X163220568Y-89516486D01*
X163410470Y-89580742D01*
X163596069Y-89653921D01*
X163777110Y-89735768D01*
X163953336Y-89826025D01*
X164124489Y-89924436D01*
X164290314Y-90030744D01*
X164450552Y-90144692D01*
X164604949Y-90266024D01*
X164753245Y-90394482D01*
X164895186Y-90529810D01*
X165030514Y-90671750D01*
X165158972Y-90820047D01*
X165280303Y-90974443D01*
X165394251Y-91134682D01*
X165500559Y-91300506D01*
X165598970Y-91471660D01*
X165689228Y-91647886D01*
X165771075Y-91828926D01*
X165844254Y-92014526D01*
X165908510Y-92204427D01*
X165963584Y-92398374D01*
X166009221Y-92596108D01*
X166045163Y-92797374D01*
X166071154Y-93001914D01*
X166086937Y-93209473D01*
X166092255Y-93419792D01*
X166086937Y-93630111D01*
X166071154Y-93837669D01*
X166045163Y-94042210D01*
X166009221Y-94243476D01*
X165963584Y-94441210D01*
X165908510Y-94635156D01*
X165844254Y-94825058D01*
X165771075Y-95010657D01*
X165689228Y-95191698D01*
X165598970Y-95367924D01*
X165500559Y-95539077D01*
X165394251Y-95704902D01*
X165280303Y-95865140D01*
X165158972Y-96019537D01*
X165030514Y-96167833D01*
X164895186Y-96309774D01*
X164753245Y-96445102D01*
X164604949Y-96573560D01*
X164450552Y-96694891D01*
X164290314Y-96808839D01*
X164124489Y-96915147D01*
X163953336Y-97013558D01*
X163777110Y-97103816D01*
X163596069Y-97185663D01*
X163410470Y-97258842D01*
X163220568Y-97323098D01*
X163026622Y-97378172D01*
X162828888Y-97423809D01*
X162627622Y-97459751D01*
X162423081Y-97485742D01*
X162215523Y-97501525D01*
X162005204Y-97506843D01*
X161794885Y-97501525D01*
X161587326Y-97485742D01*
X161382786Y-97459751D01*
X161181520Y-97423809D01*
X160983786Y-97378172D01*
X160789839Y-97323098D01*
X160599938Y-97258842D01*
X160414338Y-97185663D01*
X160233298Y-97103816D01*
X160057072Y-97013558D01*
X159885918Y-96915147D01*
X159720094Y-96808839D01*
X159559855Y-96694891D01*
X159405459Y-96573560D01*
X159257162Y-96445102D01*
X159115222Y-96309774D01*
X158979894Y-96167833D01*
X158851436Y-96019537D01*
X158730104Y-95865140D01*
X158616156Y-95704902D01*
X158509848Y-95539077D01*
X158411437Y-95367924D01*
X158321180Y-95191698D01*
X158239333Y-95010657D01*
X158166154Y-94825058D01*
X158101898Y-94635156D01*
X158046824Y-94441210D01*
X158001187Y-94243476D01*
X157965244Y-94042210D01*
X157939253Y-93837669D01*
X157923471Y-93630111D01*
X157918152Y-93419792D01*
X157923471Y-93209473D01*
X157939253Y-93001914D01*
X157965244Y-92797374D01*
X158001187Y-92596108D01*
X158046824Y-92398374D01*
X158101898Y-92204427D01*
X158166154Y-92014526D01*
X158239333Y-91828926D01*
X158321180Y-91647886D01*
X158411437Y-91471660D01*
X158509848Y-91300506D01*
X158616156Y-91134682D01*
X158730104Y-90974443D01*
X158851436Y-90820047D01*
X158979894Y-90671750D01*
X159115222Y-90529810D01*
X159257162Y-90394482D01*
X159405459Y-90266024D01*
X159559855Y-90144692D01*
X159720094Y-90030744D01*
X159885918Y-89924436D01*
X160057072Y-89826025D01*
X160233298Y-89735768D01*
X160414338Y-89653921D01*
X160599938Y-89580742D01*
X160789839Y-89516486D01*
X160983786Y-89461412D01*
X161181520Y-89415775D01*
X161382786Y-89379832D01*
X161587326Y-89353841D01*
X161794885Y-89338059D01*
X162005204Y-89332740D01*
X162215523Y-89338059D01*
X183262441Y-54734251D02*
X183441928Y-54747490D01*
X183618805Y-54769293D01*
X183792850Y-54799444D01*
X183963841Y-54837726D01*
X184131557Y-54883926D01*
X184295774Y-54937827D01*
X184456272Y-54999215D01*
X184612827Y-55067872D01*
X184765219Y-55143586D01*
X184913224Y-55226139D01*
X185056621Y-55315316D01*
X185195188Y-55410902D01*
X185328702Y-55512682D01*
X185456942Y-55620440D01*
X185579686Y-55733961D01*
X185696711Y-55853029D01*
X185807795Y-55977429D01*
X185912717Y-56106945D01*
X186011253Y-56241362D01*
X186103184Y-56380466D01*
X186188285Y-56524039D01*
X186266335Y-56671867D01*
X186337112Y-56823734D01*
X186400394Y-56979426D01*
X186455959Y-57138726D01*
X186503585Y-57301419D01*
X186543049Y-57467289D01*
X186574131Y-57636122D01*
X186596606Y-57807702D01*
X186610255Y-57981814D01*
X186614854Y-58158241D01*
X186610255Y-58334668D01*
X186596606Y-58508780D01*
X186574131Y-58680360D01*
X186543049Y-58849193D01*
X186503585Y-59015063D01*
X186455959Y-59177756D01*
X186400394Y-59337056D01*
X186337112Y-59492748D01*
X186266335Y-59644615D01*
X186188285Y-59792443D01*
X186103184Y-59936016D01*
X186011253Y-60075119D01*
X185912717Y-60209537D01*
X185807795Y-60339053D01*
X185696711Y-60463453D01*
X185579686Y-60582521D01*
X185456942Y-60696042D01*
X185328702Y-60803800D01*
X185195188Y-60905580D01*
X185056621Y-61001166D01*
X184913224Y-61090343D01*
X184765219Y-61172896D01*
X184612827Y-61248609D01*
X184456272Y-61317267D01*
X184295774Y-61378655D01*
X184131557Y-61432556D01*
X183963841Y-61478756D01*
X183792850Y-61517038D01*
X183618805Y-61547189D01*
X183441928Y-61568992D01*
X183262441Y-61582231D01*
X183080567Y-61586693D01*
X182898693Y-61582231D01*
X182719206Y-61568992D01*
X182542330Y-61547189D01*
X182368284Y-61517038D01*
X182197293Y-61478756D01*
X182029577Y-61432556D01*
X181865360Y-61378655D01*
X181704862Y-61317267D01*
X181548307Y-61248609D01*
X181395915Y-61172896D01*
X181247910Y-61090343D01*
X181104513Y-61001166D01*
X180965946Y-60905580D01*
X180832432Y-60803800D01*
X180704192Y-60696042D01*
X180581448Y-60582521D01*
X180464423Y-60463453D01*
X180353339Y-60339053D01*
X180248417Y-60209537D01*
X180149881Y-60075119D01*
X180057951Y-59936016D01*
X179972849Y-59792443D01*
X179894799Y-59644615D01*
X179824022Y-59492748D01*
X179760740Y-59337056D01*
X179705175Y-59177756D01*
X179657549Y-59015063D01*
X179618085Y-58849193D01*
X179587003Y-58680360D01*
X179564528Y-58508780D01*
X179550879Y-58334668D01*
X179546281Y-58158241D01*
X179550879Y-57981814D01*
X179564528Y-57807702D01*
X179587003Y-57636122D01*
X179618085Y-57467289D01*
X179657549Y-57301419D01*
X179705175Y-57138726D01*
X179760740Y-56979426D01*
X179824022Y-56823734D01*
X179894799Y-56671867D01*
X179972849Y-56524039D01*
X180057951Y-56380466D01*
X180149881Y-56241362D01*
X180248417Y-56106945D01*
X180353339Y-55977429D01*
X180464423Y-55853029D01*
X180581448Y-55733961D01*
X180704192Y-55620440D01*
X180832432Y-55512682D01*
X180965946Y-55410902D01*
X181104513Y-55315316D01*
X181247910Y-55226139D01*
X181395915Y-55143586D01*
X181548307Y-55067872D01*
X181704862Y-54999215D01*
X181865360Y-54937827D01*
X182029577Y-54883926D01*
X182197293Y-54837726D01*
X182368284Y-54799444D01*
X182542330Y-54769293D01*
X182719206Y-54747490D01*
X182898693Y-54734251D01*
X183080567Y-54729789D01*
X183262441Y-54734251D01*
X193996357Y-141492853D02*
X194139370Y-141503728D01*
X194280304Y-141521636D01*
X194418982Y-141546402D01*
X194555226Y-141577847D01*
X194688861Y-141615794D01*
X194819708Y-141660068D01*
X194947592Y-141710491D01*
X195072334Y-141766886D01*
X195193759Y-141829075D01*
X195311689Y-141896883D01*
X195425947Y-141970133D01*
X195536356Y-142048646D01*
X195642740Y-142132247D01*
X195744921Y-142220758D01*
X195842723Y-142314003D01*
X195935968Y-142411804D01*
X196024479Y-142513985D01*
X196108080Y-142620368D01*
X196186594Y-142730777D01*
X196259844Y-142845035D01*
X196327652Y-142962965D01*
X196389843Y-143084390D01*
X196446238Y-143209133D01*
X196496661Y-143337017D01*
X196540935Y-143467865D01*
X196578883Y-143601500D01*
X196610329Y-143737745D01*
X196635094Y-143876424D01*
X196653003Y-144017359D01*
X196663878Y-144160373D01*
X196667542Y-144305290D01*
X196663878Y-144450205D01*
X196653003Y-144593219D01*
X196635094Y-144734153D01*
X196610329Y-144872830D01*
X196578883Y-145009075D01*
X196540935Y-145142710D01*
X196496661Y-145273557D01*
X196446238Y-145401441D01*
X196389843Y-145526183D01*
X196327652Y-145647608D01*
X196259844Y-145765538D01*
X196186594Y-145879796D01*
X196108080Y-145990205D01*
X196024479Y-146096589D01*
X195935968Y-146198770D01*
X195842723Y-146296571D01*
X195744921Y-146389816D01*
X195642740Y-146478328D01*
X195536356Y-146561929D01*
X195425947Y-146640443D01*
X195311689Y-146713693D01*
X195193759Y-146781501D01*
X195072334Y-146843692D01*
X194947592Y-146900087D01*
X194819708Y-146950510D01*
X194688861Y-146994784D01*
X194555226Y-147032732D01*
X194418982Y-147064178D01*
X194280304Y-147088943D01*
X194139370Y-147106852D01*
X193996357Y-147117727D01*
X193851441Y-147121391D01*
X193706525Y-147117727D01*
X193563512Y-147106852D01*
X193422578Y-147088943D01*
X193283900Y-147064178D01*
X193147656Y-147032732D01*
X193014021Y-146994784D01*
X192883174Y-146950510D01*
X192755290Y-146900087D01*
X192630548Y-146843692D01*
X192509123Y-146781501D01*
X192391193Y-146713693D01*
X192276935Y-146640443D01*
X192166526Y-146561929D01*
X192060142Y-146478328D01*
X191957961Y-146389816D01*
X191860160Y-146296571D01*
X191766914Y-146198770D01*
X191678403Y-146096589D01*
X191594802Y-145990205D01*
X191516288Y-145879796D01*
X191443038Y-145765538D01*
X191375230Y-145647608D01*
X191313039Y-145526183D01*
X191256644Y-145401441D01*
X191206221Y-145273557D01*
X191161947Y-145142710D01*
X191123999Y-145009075D01*
X191092553Y-144872830D01*
X191067788Y-144734153D01*
X191049879Y-144593219D01*
X191039004Y-144450205D01*
X191035340Y-144305290D01*
X191039004Y-144160373D01*
X191049879Y-144017359D01*
X191067788Y-143876424D01*
X191092553Y-143737745D01*
X191123999Y-143601500D01*
X191161947Y-143467865D01*
X191206221Y-143337017D01*
X191256644Y-143209133D01*
X191313039Y-143084390D01*
X191375230Y-142962965D01*
X191443038Y-142845035D01*
X191516288Y-142730777D01*
X191594802Y-142620368D01*
X191678403Y-142513985D01*
X191766914Y-142411804D01*
X191860160Y-142314003D01*
X191957961Y-142220758D01*
X192060142Y-142132247D01*
X192166526Y-142048646D01*
X192276935Y-141970133D01*
X192391193Y-141896883D01*
X192509123Y-141829075D01*
X192630548Y-141766886D01*
X192755290Y-141710491D01*
X192883174Y-141660068D01*
X193014021Y-141615794D01*
X193147656Y-141577847D01*
X193283900Y-141546402D01*
X193422578Y-141521636D01*
X193563512Y-141503728D01*
X193706525Y-141492853D01*
X193851441Y-141489189D01*
X193996357Y-141492853D01*
D14*
X223972780Y-141184040D02*
X224075676Y-141191865D01*
X224177076Y-141204750D01*
X224276853Y-141222568D01*
X224374879Y-141245192D01*
X224471028Y-141272495D01*
X224565171Y-141304350D01*
X224657182Y-141340628D01*
X224746932Y-141381204D01*
X224834296Y-141425949D01*
X224919145Y-141474736D01*
X225001353Y-141527438D01*
X225080791Y-141583927D01*
X225157333Y-141644077D01*
X225230851Y-141707760D01*
X225301219Y-141774849D01*
X225368308Y-141845216D01*
X225431991Y-141918734D01*
X225492141Y-141995275D01*
X225548631Y-142074714D01*
X225601334Y-142156921D01*
X225650121Y-142241770D01*
X225694867Y-142329134D01*
X225735443Y-142418885D01*
X225771722Y-142510896D01*
X225803576Y-142605039D01*
X225830880Y-142701188D01*
X225853505Y-142799215D01*
X225871323Y-142898993D01*
X225884208Y-143000394D01*
X225892033Y-143103291D01*
X225894669Y-143207557D01*
X225892033Y-143311822D01*
X225884208Y-143414718D01*
X225871323Y-143516118D01*
X225853505Y-143615894D01*
X225830880Y-143713920D01*
X225803576Y-143810068D01*
X225771722Y-143904211D01*
X225735443Y-143996221D01*
X225694867Y-144085971D01*
X225650121Y-144173334D01*
X225601334Y-144258183D01*
X225548631Y-144340390D01*
X225492141Y-144419827D01*
X225431991Y-144496369D01*
X225368308Y-144569886D01*
X225301219Y-144640253D01*
X225230851Y-144707341D01*
X225157333Y-144771024D01*
X225080791Y-144831173D01*
X225001353Y-144887663D01*
X224919145Y-144940364D01*
X224834296Y-144989151D01*
X224746932Y-145033896D01*
X224657182Y-145074471D01*
X224565171Y-145110750D01*
X224471028Y-145142604D01*
X224374879Y-145169907D01*
X224276853Y-145192532D01*
X224177076Y-145210350D01*
X224075676Y-145223235D01*
X223972780Y-145231059D01*
X223868516Y-145233696D01*
X223764251Y-145231059D01*
X223661355Y-145223235D01*
X223559955Y-145210350D01*
X223460178Y-145192532D01*
X223362152Y-145169907D01*
X223266003Y-145142604D01*
X223171860Y-145110750D01*
X223079850Y-145074471D01*
X222990099Y-145033896D01*
X222902735Y-144989151D01*
X222817886Y-144940364D01*
X222735678Y-144887663D01*
X222656240Y-144831173D01*
X222579698Y-144771024D01*
X222506180Y-144707341D01*
X222435813Y-144640253D01*
X222368724Y-144569886D01*
X222305040Y-144496369D01*
X222244890Y-144419827D01*
X222188400Y-144340390D01*
X222135698Y-144258183D01*
X222086910Y-144173334D01*
X222042165Y-144085971D01*
X222001589Y-143996221D01*
X221965310Y-143904211D01*
X221933455Y-143810068D01*
X221906151Y-143713920D01*
X221883527Y-143615894D01*
X221865708Y-143516118D01*
X221852823Y-143414718D01*
X221844999Y-143311822D01*
X221842362Y-143207557D01*
X221844999Y-143103291D01*
X221852823Y-143000394D01*
X221865708Y-142898993D01*
X221883527Y-142799215D01*
X221906151Y-142701188D01*
X221933455Y-142605039D01*
X221965310Y-142510896D01*
X222001589Y-142418885D01*
X222042165Y-142329134D01*
X222086910Y-142241770D01*
X222135698Y-142156921D01*
X222188400Y-142074714D01*
X222244890Y-141995275D01*
X222305040Y-141918734D01*
X222368724Y-141845216D01*
X222435813Y-141774849D01*
X222506180Y-141707760D01*
X222579698Y-141644077D01*
X222656240Y-141583927D01*
X222735678Y-141527438D01*
X222817886Y-141474736D01*
X222902735Y-141425949D01*
X222990099Y-141381204D01*
X223079850Y-141340628D01*
X223171860Y-141304350D01*
X223266003Y-141272495D01*
X223362152Y-141245192D01*
X223460178Y-141222568D01*
X223559955Y-141204750D01*
X223661355Y-141191865D01*
X223764251Y-141184040D01*
X223868516Y-141181404D01*
X223972780Y-141184040D01*
D12*
X238254461Y-54734251D02*
X238433947Y-54747490D01*
X238610824Y-54769293D01*
X238784869Y-54799444D01*
X238955861Y-54837726D01*
X239123576Y-54883926D01*
X239287794Y-54937827D01*
X239448291Y-54999215D01*
X239604847Y-55067872D01*
X239757238Y-55143586D01*
X239905244Y-55226139D01*
X240048641Y-55315316D01*
X240187208Y-55410902D01*
X240320722Y-55512682D01*
X240448962Y-55620440D01*
X240571705Y-55733961D01*
X240688730Y-55853029D01*
X240799815Y-55977429D01*
X240904736Y-56106945D01*
X241003273Y-56241362D01*
X241095203Y-56380466D01*
X241180304Y-56524039D01*
X241258355Y-56671867D01*
X241329132Y-56823734D01*
X241392414Y-56979426D01*
X241447979Y-57138726D01*
X241495605Y-57301419D01*
X241535069Y-57467289D01*
X241566150Y-57636122D01*
X241588626Y-57807702D01*
X241602274Y-57981814D01*
X241606873Y-58158241D01*
X241602274Y-58334668D01*
X241588626Y-58508780D01*
X241566150Y-58680360D01*
X241535069Y-58849193D01*
X241495605Y-59015063D01*
X241447979Y-59177756D01*
X241392414Y-59337056D01*
X241329132Y-59492748D01*
X241258355Y-59644615D01*
X241180304Y-59792443D01*
X241095203Y-59936016D01*
X241003273Y-60075119D01*
X240904736Y-60209537D01*
X240799815Y-60339053D01*
X240688730Y-60463453D01*
X240571705Y-60582521D01*
X240448962Y-60696042D01*
X240320722Y-60803800D01*
X240187208Y-60905580D01*
X240048641Y-61001166D01*
X239905244Y-61090343D01*
X239757238Y-61172896D01*
X239604847Y-61248609D01*
X239448291Y-61317267D01*
X239287794Y-61378655D01*
X239123576Y-61432556D01*
X238955861Y-61478756D01*
X238784869Y-61517038D01*
X238610824Y-61547189D01*
X238433947Y-61568992D01*
X238254461Y-61582231D01*
X238072587Y-61586693D01*
X237890713Y-61582231D01*
X237711226Y-61568992D01*
X237534349Y-61547189D01*
X237360304Y-61517038D01*
X237189313Y-61478756D01*
X237021597Y-61432556D01*
X236857380Y-61378655D01*
X236696882Y-61317267D01*
X236540326Y-61248609D01*
X236387935Y-61172896D01*
X236239930Y-61090343D01*
X236096532Y-61001166D01*
X235957966Y-60905580D01*
X235824451Y-60803800D01*
X235696211Y-60696042D01*
X235573468Y-60582521D01*
X235456443Y-60463453D01*
X235345359Y-60339053D01*
X235240437Y-60209537D01*
X235141900Y-60075119D01*
X235049970Y-59936016D01*
X234964869Y-59792443D01*
X234886819Y-59644615D01*
X234816042Y-59492748D01*
X234752759Y-59337056D01*
X234697195Y-59177756D01*
X234649569Y-59015063D01*
X234610104Y-58849193D01*
X234579023Y-58680360D01*
X234556547Y-58508780D01*
X234542899Y-58334668D01*
X234538300Y-58158241D01*
X234542899Y-57981814D01*
X234556547Y-57807702D01*
X234579023Y-57636122D01*
X234610104Y-57467289D01*
X234649569Y-57301419D01*
X234697195Y-57138726D01*
X234752759Y-56979426D01*
X234816042Y-56823734D01*
X234886819Y-56671867D01*
X234964869Y-56524039D01*
X235049970Y-56380466D01*
X235141900Y-56241362D01*
X235240437Y-56106945D01*
X235345359Y-55977429D01*
X235456443Y-55853029D01*
X235573468Y-55733961D01*
X235696211Y-55620440D01*
X235824451Y-55512682D01*
X235957966Y-55410902D01*
X236096532Y-55315316D01*
X236239930Y-55226139D01*
X236387935Y-55143586D01*
X236540326Y-55067872D01*
X236696882Y-54999215D01*
X236857380Y-54937827D01*
X237021597Y-54883926D01*
X237189313Y-54837726D01*
X237360304Y-54799444D01*
X237534349Y-54769293D01*
X237711226Y-54747490D01*
X237890713Y-54734251D01*
X238072587Y-54729789D01*
X238254461Y-54734251D01*
X251752220Y-103261566D02*
X251959779Y-103277349D01*
X252164319Y-103303340D01*
X252365585Y-103339282D01*
X252563319Y-103384919D01*
X252757266Y-103439994D01*
X252947167Y-103504249D01*
X253132767Y-103577429D01*
X253313808Y-103659276D01*
X253490033Y-103749533D01*
X253661187Y-103847944D01*
X253827011Y-103954252D01*
X253987250Y-104068200D01*
X254141646Y-104189532D01*
X254289943Y-104317990D01*
X254431883Y-104453317D01*
X254567211Y-104595258D01*
X254695669Y-104743555D01*
X254817001Y-104897951D01*
X254930949Y-105058190D01*
X255037257Y-105224014D01*
X255135668Y-105395168D01*
X255225925Y-105571393D01*
X255307772Y-105752434D01*
X255380952Y-105938034D01*
X255445207Y-106127935D01*
X255500282Y-106321881D01*
X255545918Y-106519616D01*
X255581861Y-106720882D01*
X255607852Y-106925422D01*
X255623635Y-107132980D01*
X255628953Y-107343300D01*
X255623635Y-107553619D01*
X255607852Y-107761177D01*
X255581861Y-107965717D01*
X255545918Y-108166983D01*
X255500282Y-108364718D01*
X255445207Y-108558664D01*
X255380952Y-108748565D01*
X255307772Y-108934165D01*
X255225925Y-109115206D01*
X255135668Y-109291431D01*
X255037257Y-109462585D01*
X254930949Y-109628409D01*
X254817001Y-109788648D01*
X254695669Y-109943044D01*
X254567211Y-110091341D01*
X254431883Y-110233282D01*
X254289943Y-110368610D01*
X254141646Y-110497068D01*
X253987250Y-110618399D01*
X253827011Y-110732347D01*
X253661187Y-110838655D01*
X253490033Y-110937066D01*
X253313808Y-111027324D01*
X253132767Y-111109170D01*
X252947167Y-111182350D01*
X252757266Y-111246605D01*
X252563319Y-111301680D01*
X252365585Y-111347317D01*
X252164319Y-111383259D01*
X251959779Y-111409250D01*
X251752220Y-111425033D01*
X251541901Y-111430351D01*
X251331582Y-111425033D01*
X251124024Y-111409250D01*
X250919483Y-111383259D01*
X250718217Y-111347317D01*
X250520483Y-111301680D01*
X250326537Y-111246605D01*
X250136635Y-111182350D01*
X249951036Y-111109170D01*
X249769995Y-111027324D01*
X249593769Y-110937066D01*
X249422616Y-110838655D01*
X249256791Y-110732347D01*
X249096553Y-110618399D01*
X248942157Y-110497068D01*
X248793860Y-110368610D01*
X248651919Y-110233282D01*
X248516591Y-110091341D01*
X248388133Y-109943044D01*
X248266802Y-109788648D01*
X248152854Y-109628409D01*
X248046546Y-109462585D01*
X247948135Y-109291431D01*
X247857877Y-109115206D01*
X247776030Y-108934165D01*
X247702851Y-108748565D01*
X247638595Y-108558664D01*
X247583521Y-108364718D01*
X247537884Y-108166983D01*
X247501942Y-107965717D01*
X247475951Y-107761177D01*
X247460168Y-107553619D01*
X247454850Y-107343300D01*
X247460168Y-107132980D01*
X247475951Y-106925422D01*
X247501942Y-106720882D01*
X247537884Y-106519616D01*
X247583521Y-106321881D01*
X247638595Y-106127935D01*
X247702851Y-105938034D01*
X247776030Y-105752434D01*
X247857877Y-105571393D01*
X247948135Y-105395168D01*
X248046546Y-105224014D01*
X248152854Y-105058190D01*
X248266802Y-104897951D01*
X248388133Y-104743555D01*
X248516591Y-104595258D01*
X248651919Y-104453317D01*
X248793860Y-104317990D01*
X248942157Y-104189532D01*
X249096553Y-104068200D01*
X249256791Y-103954252D01*
X249422616Y-103847944D01*
X249593769Y-103749533D01*
X249769995Y-103659276D01*
X249951036Y-103577429D01*
X250136635Y-103504249D01*
X250326537Y-103439994D01*
X250520483Y-103384919D01*
X250718217Y-103339282D01*
X250919483Y-103303340D01*
X251124024Y-103277349D01*
X251331582Y-103261566D01*
X251541901Y-103256248D01*
X251752220Y-103261566D01*
X261591423Y-85172577D02*
X261798982Y-85188360D01*
X262003522Y-85214351D01*
X262204788Y-85250293D01*
X262402522Y-85295930D01*
X262596468Y-85351005D01*
X262786369Y-85415260D01*
X262971968Y-85488439D01*
X263153009Y-85570286D01*
X263329234Y-85660544D01*
X263500387Y-85758955D01*
X263666212Y-85865263D01*
X263826450Y-85979211D01*
X263980846Y-86100542D01*
X264129142Y-86229000D01*
X264271083Y-86364328D01*
X264406410Y-86506269D01*
X264534868Y-86654566D01*
X264656199Y-86808962D01*
X264770146Y-86969200D01*
X264876454Y-87135025D01*
X264974865Y-87306178D01*
X265065122Y-87482404D01*
X265146968Y-87663445D01*
X265220148Y-87849044D01*
X265284403Y-88038946D01*
X265339477Y-88232892D01*
X265385114Y-88430627D01*
X265421056Y-88631892D01*
X265447047Y-88836433D01*
X265462830Y-89043991D01*
X265468148Y-89254310D01*
X265462830Y-89464630D01*
X265447047Y-89672188D01*
X265421056Y-89876728D01*
X265385114Y-90077994D01*
X265339477Y-90275729D01*
X265284403Y-90469675D01*
X265220148Y-90659576D01*
X265146968Y-90845176D01*
X265065122Y-91026217D01*
X264974865Y-91202442D01*
X264876454Y-91373596D01*
X264770146Y-91539420D01*
X264656199Y-91699659D01*
X264534868Y-91854055D01*
X264406410Y-92002352D01*
X264271083Y-92144293D01*
X264129142Y-92279620D01*
X263980846Y-92408078D01*
X263826450Y-92529410D01*
X263666212Y-92643358D01*
X263500387Y-92749666D01*
X263329234Y-92848077D01*
X263153009Y-92938334D01*
X262971968Y-93020181D01*
X262786369Y-93093361D01*
X262596468Y-93157616D01*
X262402522Y-93212691D01*
X262204788Y-93258327D01*
X262003522Y-93294270D01*
X261798982Y-93320261D01*
X261591423Y-93336044D01*
X261381104Y-93341362D01*
X261170785Y-93336044D01*
X260963227Y-93320261D01*
X260758686Y-93294270D01*
X260557420Y-93258327D01*
X260359686Y-93212691D01*
X260165740Y-93157616D01*
X259975838Y-93093361D01*
X259790239Y-93020181D01*
X259609198Y-92938334D01*
X259432972Y-92848077D01*
X259261819Y-92749666D01*
X259095994Y-92643358D01*
X258935756Y-92529410D01*
X258781359Y-92408078D01*
X258633063Y-92279620D01*
X258491122Y-92144293D01*
X258355794Y-92002352D01*
X258227336Y-91854055D01*
X258106005Y-91699659D01*
X257992057Y-91539420D01*
X257885749Y-91373596D01*
X257787338Y-91202442D01*
X257697080Y-91026217D01*
X257615233Y-90845176D01*
X257542054Y-90659576D01*
X257477798Y-90469675D01*
X257422724Y-90275729D01*
X257377087Y-90077994D01*
X257341145Y-89876728D01*
X257315154Y-89672188D01*
X257299371Y-89464630D01*
X257294053Y-89254310D01*
X257299371Y-89043991D01*
X257315154Y-88836433D01*
X257341145Y-88631892D01*
X257377087Y-88430627D01*
X257422724Y-88232892D01*
X257477798Y-88038946D01*
X257542054Y-87849044D01*
X257615233Y-87663445D01*
X257697080Y-87482404D01*
X257787338Y-87306178D01*
X257885749Y-87135025D01*
X257992057Y-86969200D01*
X258106005Y-86808962D01*
X258227336Y-86654566D01*
X258355794Y-86506269D01*
X258491122Y-86364328D01*
X258633063Y-86229000D01*
X258781359Y-86100542D01*
X258935756Y-85979211D01*
X259095994Y-85865263D01*
X259261819Y-85758955D01*
X259432972Y-85660544D01*
X259609198Y-85570286D01*
X259790239Y-85488439D01*
X259975838Y-85415260D01*
X260165740Y-85351005D01*
X260359686Y-85295930D01*
X260557420Y-85250293D01*
X260758686Y-85214351D01*
X260963227Y-85188360D01*
X261170785Y-85172577D01*
X261381104Y-85167259D01*
X261591423Y-85172577D01*
X261591423Y-103261566D02*
X261798982Y-103277349D01*
X262003522Y-103303340D01*
X262204788Y-103339282D01*
X262402522Y-103384919D01*
X262596468Y-103439994D01*
X262786369Y-103504249D01*
X262971968Y-103577429D01*
X263153009Y-103659276D01*
X263329234Y-103749533D01*
X263500387Y-103847944D01*
X263666212Y-103954252D01*
X263826450Y-104068200D01*
X263980846Y-104189532D01*
X264129142Y-104317990D01*
X264271083Y-104453317D01*
X264406410Y-104595258D01*
X264534868Y-104743555D01*
X264656199Y-104897951D01*
X264770146Y-105058190D01*
X264876454Y-105224014D01*
X264974865Y-105395168D01*
X265065122Y-105571393D01*
X265146968Y-105752434D01*
X265220148Y-105938034D01*
X265284403Y-106127935D01*
X265339477Y-106321881D01*
X265385114Y-106519616D01*
X265421056Y-106720882D01*
X265447047Y-106925422D01*
X265462830Y-107132980D01*
X265468148Y-107343300D01*
X265462830Y-107553619D01*
X265447047Y-107761177D01*
X265421056Y-107965717D01*
X265385114Y-108166983D01*
X265339477Y-108364718D01*
X265284403Y-108558664D01*
X265220148Y-108748565D01*
X265146968Y-108934165D01*
X265065122Y-109115206D01*
X264974865Y-109291431D01*
X264876454Y-109462585D01*
X264770146Y-109628409D01*
X264656199Y-109788648D01*
X264534868Y-109943044D01*
X264406410Y-110091341D01*
X264271083Y-110233282D01*
X264129142Y-110368610D01*
X263980846Y-110497068D01*
X263826450Y-110618399D01*
X263666212Y-110732347D01*
X263500387Y-110838655D01*
X263329234Y-110937066D01*
X263153009Y-111027324D01*
X262971968Y-111109170D01*
X262786369Y-111182350D01*
X262596468Y-111246605D01*
X262402522Y-111301680D01*
X262204788Y-111347317D01*
X262003522Y-111383259D01*
X261798982Y-111409250D01*
X261591423Y-111425033D01*
X261381104Y-111430351D01*
X261170785Y-111425033D01*
X260963227Y-111409250D01*
X260758686Y-111383259D01*
X260557420Y-111347317D01*
X260359686Y-111301680D01*
X260165740Y-111246605D01*
X259975838Y-111182350D01*
X259790239Y-111109170D01*
X259609198Y-111027324D01*
X259432972Y-110937066D01*
X259261819Y-110838655D01*
X259095994Y-110732347D01*
X258935756Y-110618399D01*
X258781359Y-110497068D01*
X258633063Y-110368610D01*
X258491122Y-110233282D01*
X258355794Y-110091341D01*
X258227336Y-109943044D01*
X258106005Y-109788648D01*
X257992057Y-109628409D01*
X257885749Y-109462585D01*
X257787338Y-109291431D01*
X257697080Y-109115206D01*
X257615233Y-108934165D01*
X257542054Y-108748565D01*
X257477798Y-108558664D01*
X257422724Y-108364718D01*
X257377087Y-108166983D01*
X257341145Y-107965717D01*
X257315154Y-107761177D01*
X257299371Y-107553619D01*
X257294053Y-107343300D01*
X257299371Y-107132980D01*
X257315154Y-106925422D01*
X257341145Y-106720882D01*
X257377087Y-106519616D01*
X257422724Y-106321881D01*
X257477798Y-106127935D01*
X257542054Y-105938034D01*
X257615233Y-105752434D01*
X257697080Y-105571393D01*
X257787338Y-105395168D01*
X257885749Y-105224014D01*
X257992057Y-105058190D01*
X258106005Y-104897951D01*
X258227336Y-104743555D01*
X258355794Y-104595258D01*
X258491122Y-104453317D01*
X258633063Y-104317990D01*
X258781359Y-104189532D01*
X258935756Y-104068200D01*
X259095994Y-103954252D01*
X259261819Y-103847944D01*
X259432972Y-103749533D01*
X259609198Y-103659276D01*
X259790239Y-103577429D01*
X259975838Y-103504249D01*
X260165740Y-103439994D01*
X260359686Y-103384919D01*
X260557420Y-103339282D01*
X260758686Y-103303340D01*
X260963227Y-103277349D01*
X261170785Y-103261566D01*
X261381104Y-103256248D01*
X261591423Y-103261566D01*
X271430611Y-103261566D02*
X271638169Y-103277349D01*
X271842710Y-103303340D01*
X272043976Y-103339282D01*
X272241710Y-103384919D01*
X272435656Y-103439994D01*
X272625558Y-103504249D01*
X272811157Y-103577429D01*
X272992198Y-103659276D01*
X273168424Y-103749533D01*
X273339577Y-103847944D01*
X273505402Y-103954252D01*
X273665640Y-104068200D01*
X273820036Y-104189532D01*
X273968333Y-104317990D01*
X274110274Y-104453317D01*
X274245602Y-104595258D01*
X274374060Y-104743555D01*
X274495391Y-104897951D01*
X274609339Y-105058190D01*
X274715647Y-105224014D01*
X274814058Y-105395168D01*
X274904316Y-105571393D01*
X274986163Y-105752434D01*
X275059342Y-105938034D01*
X275123598Y-106127935D01*
X275178672Y-106321881D01*
X275224309Y-106519616D01*
X275260251Y-106720882D01*
X275286242Y-106925422D01*
X275302025Y-107132980D01*
X275307343Y-107343300D01*
X275302025Y-107553619D01*
X275286242Y-107761177D01*
X275260251Y-107965717D01*
X275224309Y-108166983D01*
X275178672Y-108364718D01*
X275123598Y-108558664D01*
X275059342Y-108748565D01*
X274986163Y-108934165D01*
X274904316Y-109115206D01*
X274814058Y-109291431D01*
X274715647Y-109462585D01*
X274609339Y-109628409D01*
X274495391Y-109788648D01*
X274374060Y-109943044D01*
X274245602Y-110091341D01*
X274110274Y-110233282D01*
X273968333Y-110368610D01*
X273820036Y-110497068D01*
X273665640Y-110618399D01*
X273505402Y-110732347D01*
X273339577Y-110838655D01*
X273168424Y-110937066D01*
X272992198Y-111027324D01*
X272811157Y-111109170D01*
X272625558Y-111182350D01*
X272435656Y-111246605D01*
X272241710Y-111301680D01*
X272043976Y-111347317D01*
X271842710Y-111383259D01*
X271638169Y-111409250D01*
X271430611Y-111425033D01*
X271220292Y-111430351D01*
X271009973Y-111425033D01*
X270802414Y-111409250D01*
X270597874Y-111383259D01*
X270396608Y-111347317D01*
X270198874Y-111301680D01*
X270004927Y-111246605D01*
X269815026Y-111182350D01*
X269629426Y-111109170D01*
X269448385Y-111027324D01*
X269272160Y-110937066D01*
X269101006Y-110838655D01*
X268935182Y-110732347D01*
X268774943Y-110618399D01*
X268620547Y-110497068D01*
X268472250Y-110368610D01*
X268330310Y-110233282D01*
X268194982Y-110091341D01*
X268066524Y-109943044D01*
X267945192Y-109788648D01*
X267831244Y-109628409D01*
X267724936Y-109462585D01*
X267626525Y-109291431D01*
X267536268Y-109115206D01*
X267454421Y-108934165D01*
X267381241Y-108748565D01*
X267316986Y-108558664D01*
X267261911Y-108364718D01*
X267216275Y-108166983D01*
X267180332Y-107965717D01*
X267154341Y-107761177D01*
X267138558Y-107553619D01*
X267133240Y-107343300D01*
X267138558Y-107132980D01*
X267154341Y-106925422D01*
X267180332Y-106720882D01*
X267216275Y-106519616D01*
X267261911Y-106321881D01*
X267316986Y-106127935D01*
X267381241Y-105938034D01*
X267454421Y-105752434D01*
X267536268Y-105571393D01*
X267626525Y-105395168D01*
X267724936Y-105224014D01*
X267831244Y-105058190D01*
X267945192Y-104897951D01*
X268066524Y-104743555D01*
X268194982Y-104595258D01*
X268330310Y-104453317D01*
X268472250Y-104317990D01*
X268620547Y-104189532D01*
X268774943Y-104068200D01*
X268935182Y-103954252D01*
X269101006Y-103847944D01*
X269272160Y-103749533D01*
X269448385Y-103659276D01*
X269629426Y-103577429D01*
X269815026Y-103504249D01*
X270004927Y-103439994D01*
X270198874Y-103384919D01*
X270396608Y-103339282D01*
X270597874Y-103303340D01*
X270802414Y-103277349D01*
X271009973Y-103261566D01*
X271220292Y-103256248D01*
X271430611Y-103261566D01*
X325680089Y-93832220D02*
X325859575Y-93845459D01*
X326036451Y-93867262D01*
X326210496Y-93897412D01*
X326381487Y-93935695D01*
X326549202Y-93981894D01*
X326713419Y-94035796D01*
X326873916Y-94097183D01*
X327030472Y-94165840D01*
X327182863Y-94241553D01*
X327330868Y-94324106D01*
X327474265Y-94413283D01*
X327612832Y-94508869D01*
X327746346Y-94610649D01*
X327874586Y-94718406D01*
X327997329Y-94831927D01*
X328114354Y-94950995D01*
X328225439Y-95075395D01*
X328330360Y-95204911D01*
X328428897Y-95339328D01*
X328520827Y-95478431D01*
X328605929Y-95622004D01*
X328683979Y-95769833D01*
X328754756Y-95921700D01*
X328818038Y-96077392D01*
X328873603Y-96236692D01*
X328921229Y-96399385D01*
X328960694Y-96565256D01*
X328991775Y-96734090D01*
X329014251Y-96905670D01*
X329027899Y-97079782D01*
X329032498Y-97256210D01*
X329027899Y-97432638D01*
X329014251Y-97606750D01*
X328991775Y-97778331D01*
X328960694Y-97947164D01*
X328921229Y-98113035D01*
X328873603Y-98275729D01*
X328818038Y-98435029D01*
X328754756Y-98590721D01*
X328683979Y-98742589D01*
X328605929Y-98890417D01*
X328520827Y-99033991D01*
X328428897Y-99173094D01*
X328330360Y-99307512D01*
X328225439Y-99437029D01*
X328114354Y-99561429D01*
X327997329Y-99680497D01*
X327874586Y-99794018D01*
X327746346Y-99901776D01*
X327612832Y-100003556D01*
X327474265Y-100099142D01*
X327330868Y-100188320D01*
X327182863Y-100270873D01*
X327030472Y-100346586D01*
X326873916Y-100415244D01*
X326713419Y-100476631D01*
X326549202Y-100530532D01*
X326381487Y-100576732D01*
X326210496Y-100615015D01*
X326036451Y-100645166D01*
X325859575Y-100666968D01*
X325680089Y-100680208D01*
X325498215Y-100684669D01*
X325316341Y-100680208D01*
X325136855Y-100666968D01*
X324959978Y-100645166D01*
X324785933Y-100615015D01*
X324614941Y-100576732D01*
X324447226Y-100530532D01*
X324283008Y-100476631D01*
X324122511Y-100415244D01*
X323965955Y-100346586D01*
X323813564Y-100270873D01*
X323665558Y-100188320D01*
X323522161Y-100099142D01*
X323383594Y-100003556D01*
X323250080Y-99901776D01*
X323121840Y-99794018D01*
X322999097Y-99680497D01*
X322882072Y-99561429D01*
X322770987Y-99437029D01*
X322666066Y-99307512D01*
X322567529Y-99173094D01*
X322475599Y-99033991D01*
X322390498Y-98890417D01*
X322312447Y-98742589D01*
X322241670Y-98590721D01*
X322178388Y-98435029D01*
X322122823Y-98275729D01*
X322075197Y-98113035D01*
X322035733Y-97947164D01*
X322004652Y-97778331D01*
X321982176Y-97606750D01*
X321968528Y-97432638D01*
X321963929Y-97256210D01*
X321968528Y-97079782D01*
X321982176Y-96905670D01*
X322004652Y-96734090D01*
X322035733Y-96565256D01*
X322075197Y-96399385D01*
X322122823Y-96236692D01*
X322178388Y-96077392D01*
X322241670Y-95921700D01*
X322312447Y-95769833D01*
X322390498Y-95622004D01*
X322475599Y-95478431D01*
X322567529Y-95339328D01*
X322666066Y-95204911D01*
X322770987Y-95075395D01*
X322882072Y-94950995D01*
X322999097Y-94831927D01*
X323121840Y-94718406D01*
X323250080Y-94610649D01*
X323383594Y-94508869D01*
X323522161Y-94413283D01*
X323665558Y-94324106D01*
X323813564Y-94241553D01*
X323965955Y-94165840D01*
X324122511Y-94097183D01*
X324283008Y-94035796D01*
X324447226Y-93981894D01*
X324614941Y-93935695D01*
X324785933Y-93897412D01*
X324959978Y-93867262D01*
X325136855Y-93845459D01*
X325316341Y-93832220D01*
X325498215Y-93827758D01*
X325680089Y-93832220D01*
X329784607Y-133233261D02*
X329992165Y-133249044D01*
X330196706Y-133275035D01*
X330397972Y-133310977D01*
X330595706Y-133356614D01*
X330789653Y-133411689D01*
X330979554Y-133475944D01*
X331165153Y-133549124D01*
X331346194Y-133630971D01*
X331522420Y-133721228D01*
X331693573Y-133819639D01*
X331859398Y-133925947D01*
X332019637Y-134039895D01*
X332174033Y-134161227D01*
X332322330Y-134289685D01*
X332464270Y-134425012D01*
X332599598Y-134566953D01*
X332728056Y-134715250D01*
X332849387Y-134869646D01*
X332963336Y-135029885D01*
X333069644Y-135195709D01*
X333168055Y-135366863D01*
X333258312Y-135543088D01*
X333340159Y-135724129D01*
X333413338Y-135909729D01*
X333477594Y-136099630D01*
X333532668Y-136293576D01*
X333578305Y-136491311D01*
X333614247Y-136692577D01*
X333640238Y-136897117D01*
X333656021Y-137104675D01*
X333661339Y-137314995D01*
X333656021Y-137525314D01*
X333640238Y-137732872D01*
X333614247Y-137937412D01*
X333578305Y-138138678D01*
X333532668Y-138336413D01*
X333477594Y-138530359D01*
X333413338Y-138720260D01*
X333340159Y-138905860D01*
X333258312Y-139086901D01*
X333168055Y-139263126D01*
X333069644Y-139434280D01*
X332963336Y-139600104D01*
X332849387Y-139760343D01*
X332728056Y-139914739D01*
X332599598Y-140063036D01*
X332464270Y-140204977D01*
X332322330Y-140340304D01*
X332174033Y-140468762D01*
X332019637Y-140590094D01*
X331859398Y-140704042D01*
X331693573Y-140810350D01*
X331522420Y-140908761D01*
X331346194Y-140999018D01*
X331165153Y-141080865D01*
X330979554Y-141154045D01*
X330789653Y-141218300D01*
X330595706Y-141273375D01*
X330397972Y-141319012D01*
X330196706Y-141354954D01*
X329992165Y-141380945D01*
X329784607Y-141396728D01*
X329574288Y-141402046D01*
X329363969Y-141396728D01*
X329156411Y-141380945D01*
X328951870Y-141354954D01*
X328750604Y-141319012D01*
X328552870Y-141273375D01*
X328358923Y-141218300D01*
X328169022Y-141154045D01*
X327983423Y-141080865D01*
X327802382Y-140999018D01*
X327626156Y-140908761D01*
X327455003Y-140810350D01*
X327289178Y-140704042D01*
X327128939Y-140590094D01*
X326974543Y-140468762D01*
X326826246Y-140340304D01*
X326684306Y-140204977D01*
X326548978Y-140063036D01*
X326420520Y-139914739D01*
X326299189Y-139760343D01*
X326185240Y-139600104D01*
X326078932Y-139434280D01*
X325980521Y-139263126D01*
X325890264Y-139086901D01*
X325808417Y-138905860D01*
X325735238Y-138720260D01*
X325670982Y-138530359D01*
X325615908Y-138336413D01*
X325570271Y-138138678D01*
X325534329Y-137937412D01*
X325508338Y-137732872D01*
X325492555Y-137525314D01*
X325487237Y-137314995D01*
X325492555Y-137104675D01*
X325508338Y-136897117D01*
X325534329Y-136692577D01*
X325570271Y-136491311D01*
X325615908Y-136293576D01*
X325670982Y-136099630D01*
X325735238Y-135909729D01*
X325808417Y-135724129D01*
X325890264Y-135543088D01*
X325980521Y-135366863D01*
X326078932Y-135195709D01*
X326185240Y-135029885D01*
X326299189Y-134869646D01*
X326420520Y-134715250D01*
X326548978Y-134566953D01*
X326684306Y-134425012D01*
X326826246Y-134289685D01*
X326974543Y-134161227D01*
X327128939Y-134039895D01*
X327289178Y-133925947D01*
X327455003Y-133819639D01*
X327626156Y-133721228D01*
X327802382Y-133630971D01*
X327983423Y-133549124D01*
X328169022Y-133475944D01*
X328358923Y-133411689D01*
X328552870Y-133356614D01*
X328750604Y-133310977D01*
X328951870Y-133275035D01*
X329156411Y-133249044D01*
X329363969Y-133233261D01*
X329574288Y-133227943D01*
X329784607Y-133233261D01*
X339775177Y-133233261D02*
X339982736Y-133249044D01*
X340187276Y-133275035D01*
X340388542Y-133310977D01*
X340586276Y-133356614D01*
X340780223Y-133411689D01*
X340970124Y-133475944D01*
X341155723Y-133549124D01*
X341336764Y-133630971D01*
X341512990Y-133721228D01*
X341684143Y-133819639D01*
X341849968Y-133925947D01*
X342010207Y-134039895D01*
X342164603Y-134161227D01*
X342312900Y-134289685D01*
X342454840Y-134425012D01*
X342590168Y-134566953D01*
X342718626Y-134715250D01*
X342839957Y-134869646D01*
X342953906Y-135029885D01*
X343060214Y-135195709D01*
X343158625Y-135366863D01*
X343248882Y-135543088D01*
X343330729Y-135724129D01*
X343403908Y-135909729D01*
X343468164Y-136099630D01*
X343523238Y-136293576D01*
X343568875Y-136491311D01*
X343604817Y-136692577D01*
X343630809Y-136897117D01*
X343646591Y-137104675D01*
X343651909Y-137314995D01*
X343646591Y-137525314D01*
X343630809Y-137732872D01*
X343604817Y-137937412D01*
X343568875Y-138138678D01*
X343523238Y-138336413D01*
X343468164Y-138530359D01*
X343403908Y-138720260D01*
X343330729Y-138905860D01*
X343248882Y-139086901D01*
X343158625Y-139263126D01*
X343060214Y-139434280D01*
X342953906Y-139600104D01*
X342839957Y-139760343D01*
X342718626Y-139914739D01*
X342590168Y-140063036D01*
X342454840Y-140204977D01*
X342312900Y-140340304D01*
X342164603Y-140468762D01*
X342010207Y-140590094D01*
X341849968Y-140704042D01*
X341684143Y-140810350D01*
X341512990Y-140908761D01*
X341336764Y-140999018D01*
X341155723Y-141080865D01*
X340970124Y-141154045D01*
X340780223Y-141218300D01*
X340586276Y-141273375D01*
X340388542Y-141319012D01*
X340187276Y-141354954D01*
X339982736Y-141380945D01*
X339775177Y-141396728D01*
X339564858Y-141402046D01*
X339354539Y-141396728D01*
X339146981Y-141380945D01*
X338942440Y-141354954D01*
X338741174Y-141319012D01*
X338543440Y-141273375D01*
X338349494Y-141218300D01*
X338159592Y-141154045D01*
X337973993Y-141080865D01*
X337792952Y-140999018D01*
X337616726Y-140908761D01*
X337445573Y-140810350D01*
X337279748Y-140704042D01*
X337119510Y-140590094D01*
X336965113Y-140468762D01*
X336816817Y-140340304D01*
X336674876Y-140204977D01*
X336539548Y-140063036D01*
X336411090Y-139914739D01*
X336289759Y-139760343D01*
X336175811Y-139600104D01*
X336069503Y-139434280D01*
X335971091Y-139263126D01*
X335880834Y-139086901D01*
X335798987Y-138905860D01*
X335725808Y-138720260D01*
X335661552Y-138530359D01*
X335606478Y-138336413D01*
X335560841Y-138138678D01*
X335524899Y-137937412D01*
X335498908Y-137732872D01*
X335483125Y-137525314D01*
X335477807Y-137314995D01*
X335483125Y-137104675D01*
X335498908Y-136897117D01*
X335524899Y-136692577D01*
X335560841Y-136491311D01*
X335606478Y-136293576D01*
X335661552Y-136099630D01*
X335725808Y-135909729D01*
X335798987Y-135724129D01*
X335880834Y-135543088D01*
X335971091Y-135366863D01*
X336069503Y-135195709D01*
X336175811Y-135029885D01*
X336289759Y-134869646D01*
X336411090Y-134715250D01*
X336539548Y-134566953D01*
X336674876Y-134425012D01*
X336816817Y-134289685D01*
X336965113Y-134161227D01*
X337119510Y-134039895D01*
X337279748Y-133925947D01*
X337445573Y-133819639D01*
X337616726Y-133721228D01*
X337792952Y-133630971D01*
X337973993Y-133549124D01*
X338159592Y-133475944D01*
X338349494Y-133411689D01*
X338543440Y-133356614D01*
X338741174Y-133310977D01*
X338942440Y-133275035D01*
X339146981Y-133249044D01*
X339354539Y-133233261D01*
X339564858Y-133227943D01*
X339775177Y-133233261D01*
X339775177Y-151246567D02*
X339982736Y-151262350D01*
X340187276Y-151288341D01*
X340388542Y-151324283D01*
X340586276Y-151369920D01*
X340780223Y-151424994D01*
X340970124Y-151489250D01*
X341155723Y-151562429D01*
X341336764Y-151644276D01*
X341512990Y-151734534D01*
X341684143Y-151832945D01*
X341849968Y-151939253D01*
X342010207Y-152053201D01*
X342164603Y-152174532D01*
X342312900Y-152302990D01*
X342454840Y-152438318D01*
X342590168Y-152580259D01*
X342718626Y-152728555D01*
X342839957Y-152882952D01*
X342953906Y-153043190D01*
X343060214Y-153209015D01*
X343158625Y-153380168D01*
X343248882Y-153556394D01*
X343330729Y-153737435D01*
X343403908Y-153923034D01*
X343468164Y-154112936D01*
X343523238Y-154306882D01*
X343568875Y-154504616D01*
X343604817Y-154705882D01*
X343630809Y-154910423D01*
X343646591Y-155117981D01*
X343651909Y-155328300D01*
X343646591Y-155538619D01*
X343630809Y-155746178D01*
X343604817Y-155950718D01*
X343568875Y-156151984D01*
X343523238Y-156349718D01*
X343468164Y-156543665D01*
X343403908Y-156733566D01*
X343330729Y-156919166D01*
X343248882Y-157100207D01*
X343158625Y-157276432D01*
X343060214Y-157447586D01*
X342953906Y-157613410D01*
X342839957Y-157773649D01*
X342718626Y-157928045D01*
X342590168Y-158076342D01*
X342454840Y-158218282D01*
X342312900Y-158353610D01*
X342164603Y-158482068D01*
X342010207Y-158603400D01*
X341849968Y-158717348D01*
X341684143Y-158823656D01*
X341512990Y-158922067D01*
X341336764Y-159012324D01*
X341155723Y-159094171D01*
X340970124Y-159167351D01*
X340780223Y-159231606D01*
X340586276Y-159286680D01*
X340388542Y-159332317D01*
X340187276Y-159368260D01*
X339982736Y-159394251D01*
X339775177Y-159410034D01*
X339564858Y-159415352D01*
X339354539Y-159410034D01*
X339146981Y-159394251D01*
X338942440Y-159368260D01*
X338741174Y-159332317D01*
X338543440Y-159286680D01*
X338349494Y-159231606D01*
X338159592Y-159167351D01*
X337973993Y-159094171D01*
X337792952Y-159012324D01*
X337616726Y-158922067D01*
X337445573Y-158823656D01*
X337279748Y-158717348D01*
X337119510Y-158603400D01*
X336965113Y-158482068D01*
X336816817Y-158353610D01*
X336674876Y-158218282D01*
X336539548Y-158076342D01*
X336411090Y-157928045D01*
X336289759Y-157773649D01*
X336175811Y-157613410D01*
X336069503Y-157447586D01*
X335971091Y-157276432D01*
X335880834Y-157100207D01*
X335798987Y-156919166D01*
X335725808Y-156733566D01*
X335661552Y-156543665D01*
X335606478Y-156349718D01*
X335560841Y-156151984D01*
X335524899Y-155950718D01*
X335498908Y-155746178D01*
X335483125Y-155538619D01*
X335477807Y-155328300D01*
X335483125Y-155117981D01*
X335498908Y-154910423D01*
X335524899Y-154705882D01*
X335560841Y-154504616D01*
X335606478Y-154306882D01*
X335661552Y-154112936D01*
X335725808Y-153923034D01*
X335798987Y-153737435D01*
X335880834Y-153556394D01*
X335971091Y-153380168D01*
X336069503Y-153209015D01*
X336175811Y-153043190D01*
X336289759Y-152882952D01*
X336411090Y-152728555D01*
X336539548Y-152580259D01*
X336674876Y-152438318D01*
X336816817Y-152302990D01*
X336965113Y-152174532D01*
X337119510Y-152053201D01*
X337279748Y-151939253D01*
X337445573Y-151832945D01*
X337616726Y-151734534D01*
X337792952Y-151644276D01*
X337973993Y-151562429D01*
X338159592Y-151489250D01*
X338349494Y-151424994D01*
X338543440Y-151369920D01*
X338741174Y-151324283D01*
X338942440Y-151288341D01*
X339146981Y-151262350D01*
X339354539Y-151246567D01*
X339564858Y-151241249D01*
X339775177Y-151246567D01*
X349765747Y-133233261D02*
X349973306Y-133249044D01*
X350177846Y-133275035D01*
X350379112Y-133310977D01*
X350576846Y-133356614D01*
X350770793Y-133411689D01*
X350960694Y-133475944D01*
X351146294Y-133549124D01*
X351327335Y-133630971D01*
X351503560Y-133721228D01*
X351674714Y-133819639D01*
X351840538Y-133925947D01*
X352000777Y-134039895D01*
X352155173Y-134161227D01*
X352303470Y-134289685D01*
X352445410Y-134425012D01*
X352580738Y-134566953D01*
X352709196Y-134715250D01*
X352830528Y-134869646D01*
X352944476Y-135029885D01*
X353050784Y-135195709D01*
X353149195Y-135366863D01*
X353239452Y-135543088D01*
X353321299Y-135724129D01*
X353394479Y-135909729D01*
X353458734Y-136099630D01*
X353513808Y-136293576D01*
X353559445Y-136491311D01*
X353595388Y-136692577D01*
X353621379Y-136897117D01*
X353637162Y-137104675D01*
X353642480Y-137314995D01*
X353637162Y-137525314D01*
X353621379Y-137732872D01*
X353595388Y-137937412D01*
X353559445Y-138138678D01*
X353513808Y-138336413D01*
X353458734Y-138530359D01*
X353394479Y-138720260D01*
X353321299Y-138905860D01*
X353239452Y-139086901D01*
X353149195Y-139263126D01*
X353050784Y-139434280D01*
X352944476Y-139600104D01*
X352830528Y-139760343D01*
X352709196Y-139914739D01*
X352580738Y-140063036D01*
X352445410Y-140204977D01*
X352303470Y-140340304D01*
X352155173Y-140468762D01*
X352000777Y-140590094D01*
X351840538Y-140704042D01*
X351674714Y-140810350D01*
X351503560Y-140908761D01*
X351327335Y-140999018D01*
X351146294Y-141080865D01*
X350960694Y-141154045D01*
X350770793Y-141218300D01*
X350576846Y-141273375D01*
X350379112Y-141319012D01*
X350177846Y-141354954D01*
X349973306Y-141380945D01*
X349765747Y-141396728D01*
X349555428Y-141402046D01*
X349345109Y-141396728D01*
X349137551Y-141380945D01*
X348933010Y-141354954D01*
X348731744Y-141319012D01*
X348534010Y-141273375D01*
X348340064Y-141218300D01*
X348150162Y-141154045D01*
X347964563Y-141080865D01*
X347783522Y-140999018D01*
X347607296Y-140908761D01*
X347436143Y-140810350D01*
X347270318Y-140704042D01*
X347110080Y-140590094D01*
X346955683Y-140468762D01*
X346807387Y-140340304D01*
X346665446Y-140204977D01*
X346530118Y-140063036D01*
X346401660Y-139914739D01*
X346280329Y-139760343D01*
X346166381Y-139600104D01*
X346060073Y-139434280D01*
X345961662Y-139263126D01*
X345871404Y-139086901D01*
X345789557Y-138905860D01*
X345716378Y-138720260D01*
X345652122Y-138530359D01*
X345597048Y-138336413D01*
X345551411Y-138138678D01*
X345515469Y-137937412D01*
X345489478Y-137732872D01*
X345473695Y-137525314D01*
X345468377Y-137314995D01*
X345473695Y-137104675D01*
X345489478Y-136897117D01*
X345515469Y-136692577D01*
X345551411Y-136491311D01*
X345597048Y-136293576D01*
X345652122Y-136099630D01*
X345716378Y-135909729D01*
X345789557Y-135724129D01*
X345871404Y-135543088D01*
X345961662Y-135366863D01*
X346060073Y-135195709D01*
X346166381Y-135029885D01*
X346280329Y-134869646D01*
X346401660Y-134715250D01*
X346530118Y-134566953D01*
X346665446Y-134425012D01*
X346807387Y-134289685D01*
X346955683Y-134161227D01*
X347110080Y-134039895D01*
X347270318Y-133925947D01*
X347436143Y-133819639D01*
X347607296Y-133721228D01*
X347783522Y-133630971D01*
X347964563Y-133549124D01*
X348150162Y-133475944D01*
X348340064Y-133411689D01*
X348534010Y-133356614D01*
X348731744Y-133310977D01*
X348933010Y-133275035D01*
X349137551Y-133249044D01*
X349345109Y-133233261D01*
X349555428Y-133227943D01*
X349765747Y-133233261D01*
D13*
X355702289Y-126224193D02*
X355822710Y-126233350D01*
X355941380Y-126248429D01*
X356058151Y-126269282D01*
X356172873Y-126295759D01*
X356285397Y-126327713D01*
X356395574Y-126364992D01*
X356503255Y-126407449D01*
X356608292Y-126454935D01*
X356710534Y-126507301D01*
X356809835Y-126564397D01*
X356906043Y-126626075D01*
X356999010Y-126692185D01*
X357088588Y-126762579D01*
X357174627Y-126837108D01*
X357256979Y-126915622D01*
X357335493Y-126997974D01*
X357410022Y-127084013D01*
X357480417Y-127173590D01*
X357546527Y-127266558D01*
X357608205Y-127362766D01*
X357665302Y-127462066D01*
X357717667Y-127564309D01*
X357765153Y-127669346D01*
X357807611Y-127777027D01*
X357844891Y-127887204D01*
X357876844Y-127999729D01*
X357903322Y-128114451D01*
X357924175Y-128231222D01*
X357939254Y-128349893D01*
X357948411Y-128470314D01*
X357951497Y-128592338D01*
X357948411Y-128714361D01*
X357939254Y-128834781D01*
X357924175Y-128953451D01*
X357903322Y-129070221D01*
X357876844Y-129184943D01*
X357844891Y-129297466D01*
X357807611Y-129407643D01*
X357765153Y-129515325D01*
X357717667Y-129620361D01*
X357665302Y-129722604D01*
X357608205Y-129821904D01*
X357546527Y-129918112D01*
X357480417Y-130011080D01*
X357410022Y-130100658D01*
X357335493Y-130186697D01*
X357256979Y-130269048D01*
X357174627Y-130347563D01*
X357088588Y-130422092D01*
X356999010Y-130492487D01*
X356906043Y-130558598D01*
X356809835Y-130620276D01*
X356710534Y-130677373D01*
X356608292Y-130729739D01*
X356503255Y-130777225D01*
X356395574Y-130819683D01*
X356285397Y-130856963D01*
X356172873Y-130888916D01*
X356058151Y-130915394D01*
X355941380Y-130936247D01*
X355822710Y-130951327D01*
X355702289Y-130960484D01*
X355580266Y-130963569D01*
X355458243Y-130960484D01*
X355337821Y-130951327D01*
X355219151Y-130936247D01*
X355102380Y-130915394D01*
X354987659Y-130888916D01*
X354875135Y-130856963D01*
X354764958Y-130819683D01*
X354657277Y-130777225D01*
X354552240Y-130729739D01*
X354449998Y-130677373D01*
X354350698Y-130620276D01*
X354254490Y-130558598D01*
X354161522Y-130492487D01*
X354071945Y-130422092D01*
X353985906Y-130347563D01*
X353903555Y-130269048D01*
X353825040Y-130186697D01*
X353750511Y-130100658D01*
X353680117Y-130011080D01*
X353614007Y-129918112D01*
X353552329Y-129821904D01*
X353495233Y-129722604D01*
X353442867Y-129620361D01*
X353395381Y-129515325D01*
X353352924Y-129407643D01*
X353315644Y-129297466D01*
X353283691Y-129184943D01*
X353257213Y-129070221D01*
X353236360Y-128953451D01*
X353221281Y-128834781D01*
X353212124Y-128714361D01*
X353209038Y-128592338D01*
X353212124Y-128470314D01*
X353221281Y-128349893D01*
X353236360Y-128231222D01*
X353257213Y-128114451D01*
X353283691Y-127999729D01*
X353315644Y-127887204D01*
X353352924Y-127777027D01*
X353395381Y-127669346D01*
X353442867Y-127564309D01*
X353495233Y-127462066D01*
X353552329Y-127362766D01*
X353614007Y-127266558D01*
X353680117Y-127173590D01*
X353750511Y-127084013D01*
X353825040Y-126997974D01*
X353903555Y-126915622D01*
X353985906Y-126837108D01*
X354071945Y-126762579D01*
X354161522Y-126692185D01*
X354254490Y-126626075D01*
X354350698Y-126564397D01*
X354449998Y-126507301D01*
X354552240Y-126454935D01*
X354657277Y-126407449D01*
X354764958Y-126364992D01*
X354875135Y-126327713D01*
X354987659Y-126295759D01*
X355102380Y-126269282D01*
X355219151Y-126248429D01*
X355337821Y-126233350D01*
X355458243Y-126224193D01*
X355580266Y-126221107D01*
X355702289Y-126224193D01*
D15*
X71435343Y-98095488D02*
X71532058Y-98102674D01*
X71627951Y-98114576D01*
X71722861Y-98131127D01*
X71816627Y-98152262D01*
X71909089Y-98177913D01*
X72000085Y-98208014D01*
X72089455Y-98242498D01*
X72177038Y-98281298D01*
X72262672Y-98324349D01*
X72346196Y-98371582D01*
X72427451Y-98422931D01*
X72506274Y-98478330D01*
X72582505Y-98537712D01*
X72655984Y-98601011D01*
X72726548Y-98668159D01*
X72793699Y-98738721D01*
X72857000Y-98812198D01*
X72916385Y-98888429D01*
X72971787Y-98967252D01*
X73023139Y-99048508D01*
X73070375Y-99132034D01*
X73113427Y-99217669D01*
X73152230Y-99305254D01*
X73186716Y-99394626D01*
X73216819Y-99485624D01*
X73242472Y-99578088D01*
X73263608Y-99671857D01*
X73280160Y-99766769D01*
X73292063Y-99862663D01*
X73299249Y-99959379D01*
X73301652Y-100056755D01*
X73299238Y-100154097D01*
X73292043Y-100250782D01*
X73280132Y-100346647D01*
X73263573Y-100441532D01*
X73242431Y-100535275D01*
X73216774Y-100627716D01*
X73186668Y-100718692D01*
X73152180Y-100808044D01*
X73113377Y-100895610D01*
X73070324Y-100981229D01*
X73023090Y-101064739D01*
X72971740Y-101145981D01*
X72916341Y-101224791D01*
X72856960Y-101301011D01*
X72793663Y-101374477D01*
X72726517Y-101445030D01*
X72655959Y-101512167D01*
X72582488Y-101575456D01*
X72506264Y-101634829D01*
X72427448Y-101690221D01*
X72346202Y-101741564D01*
X72262687Y-101788791D01*
X72177062Y-101831837D01*
X72089490Y-101870634D01*
X72000130Y-101905115D01*
X71909144Y-101935215D01*
X71816693Y-101960866D01*
X71722938Y-101982002D01*
X71628039Y-101998555D01*
X71532157Y-102010460D01*
X71435454Y-102017650D01*
X71338090Y-102020057D01*
X68234177Y-102020057D01*
X68136813Y-102017656D01*
X68040110Y-102010472D01*
X67944228Y-101998572D01*
X67849329Y-101982024D01*
X67755574Y-101960894D01*
X67663123Y-101935249D01*
X67572137Y-101905154D01*
X67482777Y-101870678D01*
X67395205Y-101831886D01*
X67309580Y-101788845D01*
X67226064Y-101741622D01*
X67144818Y-101690283D01*
X67066003Y-101634895D01*
X66989779Y-101575526D01*
X66916308Y-101512240D01*
X66845750Y-101445106D01*
X66778603Y-101374559D01*
X66715304Y-101301098D01*
X66655920Y-101224884D01*
X66600517Y-101146077D01*
X66549162Y-101064840D01*
X66501921Y-100981331D01*
X66458863Y-100895714D01*
X66420052Y-100808147D01*
X66385557Y-100718793D01*
X66355443Y-100627812D01*
X66329779Y-100535365D01*
X66308630Y-100441612D01*
X66292063Y-100346716D01*
X66280145Y-100250836D01*
X66272943Y-100154134D01*
X66270524Y-100056770D01*
X66272938Y-99959351D01*
X66280135Y-99862599D01*
X66292049Y-99766674D01*
X66308613Y-99671736D01*
X66329760Y-99577947D01*
X66355424Y-99485467D01*
X66385537Y-99394456D01*
X66420033Y-99305076D01*
X66458846Y-99217487D01*
X66501907Y-99131850D01*
X66549152Y-99048324D01*
X66600513Y-98967072D01*
X66655922Y-98888254D01*
X66715315Y-98812029D01*
X66778623Y-98738560D01*
X66845780Y-98668007D01*
X66916350Y-98600867D01*
X66989834Y-98537577D01*
X67066071Y-98478204D01*
X67144900Y-98422813D01*
X67226159Y-98371472D01*
X67309689Y-98324248D01*
X67395328Y-98281207D01*
X67482915Y-98242416D01*
X67572288Y-98207941D01*
X67663288Y-98177850D01*
X67755754Y-98152209D01*
X67849523Y-98131084D01*
X67944435Y-98114543D01*
X68040330Y-98102652D01*
X68137045Y-98095477D01*
X68234421Y-98093086D01*
X71337968Y-98093086D01*
X71435343Y-98095488D01*
D12*
X218056698Y-51418784D02*
X227045754Y-51695685D01*
X231637487Y-51924776D01*
X236074075Y-52235009D01*
X240190558Y-52641919D01*
X242077211Y-52886482D01*
X243821976Y-53161041D01*
X243821976Y-56021331D01*
X253386081Y-57265573D01*
X262960249Y-58955877D01*
X272481381Y-61048904D01*
X281886379Y-63501316D01*
X291112145Y-66269775D01*
X300095580Y-69310945D01*
X308773586Y-72581486D01*
X317083066Y-76038061D01*
X324960919Y-79637331D01*
X332344050Y-83335960D01*
X339169358Y-87090609D01*
X345373746Y-90857940D01*
X350894116Y-94594614D01*
X355667369Y-98257295D01*
X359630407Y-101802644D01*
X362720132Y-105187324D01*
X362720132Y-139843101D01*
X360268601Y-144291923D01*
X360268601Y-150046608D01*
X360062257Y-150376519D01*
X359854581Y-150687245D01*
X359644656Y-150981556D01*
X359431563Y-151262222D01*
X359214386Y-151532013D01*
X358992207Y-151793700D01*
X358764108Y-152050052D01*
X358529171Y-152303840D01*
X357767607Y-152990905D01*
X356997380Y-153659541D01*
X356217496Y-154308992D01*
X355426958Y-154938501D01*
X354624771Y-155547314D01*
X353809939Y-156134674D01*
X352981466Y-156699824D01*
X352138356Y-157242008D01*
X351279615Y-157760470D01*
X350404245Y-158254455D01*
X349511250Y-158723205D01*
X348599637Y-159165965D01*
X347668407Y-159581979D01*
X346716566Y-159970490D01*
X345743118Y-160330742D01*
X344747067Y-160661979D01*
X344078859Y-160863074D01*
X343397392Y-161049642D01*
X342704237Y-161221932D01*
X342000969Y-161380190D01*
X340570389Y-161655600D01*
X339118238Y-161877851D01*
X337657105Y-162048921D01*
X336199578Y-162170786D01*
X334758246Y-162245426D01*
X333345696Y-162274818D01*
X326657731Y-162274818D01*
X326657731Y-165837913D01*
X94195420Y-165837913D01*
X94195420Y-162274818D01*
X87507462Y-162274818D01*
X86094906Y-162245426D01*
X84653570Y-162170786D01*
X83196042Y-162048921D01*
X81734910Y-161877851D01*
X80282761Y-161655600D01*
X78852184Y-161380190D01*
X78148918Y-161221932D01*
X77455766Y-161049642D01*
X76774300Y-160863074D01*
X76106095Y-160661979D01*
X75110047Y-160330742D01*
X74136602Y-159970490D01*
X73184764Y-159581979D01*
X72253537Y-159165965D01*
X71341925Y-158723205D01*
X70448932Y-158254455D01*
X69573563Y-157760470D01*
X68714822Y-157242008D01*
X67871712Y-156699824D01*
X67043239Y-156134674D01*
X66228405Y-155547314D01*
X65426217Y-154938501D01*
X64635677Y-154308992D01*
X63855790Y-153659541D01*
X63085559Y-152990905D01*
X62323990Y-152303840D01*
X62089049Y-152050052D01*
X61860946Y-151793700D01*
X61638764Y-151532013D01*
X61421586Y-151262222D01*
X61208493Y-150981556D01*
X61103191Y-150836279D01*
X60998567Y-150687245D01*
X60894506Y-150534107D01*
X60790892Y-150376519D01*
X60687612Y-150214135D01*
X60584549Y-150046608D01*
X60584549Y-144291923D01*
X58133011Y-139843101D01*
X58133011Y-105187324D01*
X59564767Y-103517777D01*
X61222739Y-101802644D01*
X65185780Y-98257295D01*
X69959035Y-94594614D01*
X75479407Y-90857940D01*
X81683798Y-87090609D01*
X88509108Y-83335960D01*
X95892240Y-79637331D01*
X103770096Y-76038061D01*
X112079578Y-72581486D01*
X120757586Y-69310945D01*
X129741024Y-66269775D01*
X138966792Y-63501316D01*
X148371792Y-61048904D01*
X157892927Y-58955877D01*
X167467097Y-57265573D01*
X177031205Y-56021331D01*
X177031205Y-53161041D01*
X178775965Y-52886482D01*
X180662614Y-52641919D01*
X184779091Y-52235009D01*
X189215677Y-51924776D01*
X193807410Y-51695685D01*
X202796473Y-51418784D01*
X210426591Y-51280021D01*
X218056698Y-51418784D01*
D10*
%TO.C,REF\u002A\u002A*%
X210936230Y-119018058D02*
X211231597Y-119039239D01*
X211525866Y-119074534D01*
X211818490Y-119123942D01*
X212108919Y-119187465D01*
X212396607Y-119265101D01*
X212681004Y-119356851D01*
X212961563Y-119462714D01*
X213237736Y-119582691D01*
X213508974Y-119716781D01*
X213774730Y-119864985D01*
X214034455Y-120027302D01*
X214287601Y-120203733D01*
X214533620Y-120394276D01*
X214771963Y-120598933D01*
X215002084Y-120817703D01*
X215111896Y-120931034D01*
X215218653Y-121047002D01*
X215322312Y-121165541D01*
X215422833Y-121286589D01*
X215520172Y-121410079D01*
X215614288Y-121535950D01*
X215705139Y-121664135D01*
X215792682Y-121794570D01*
X215876876Y-121927193D01*
X215957679Y-122061938D01*
X216035048Y-122198740D01*
X216108942Y-122337537D01*
X216179318Y-122478263D01*
X216246134Y-122620854D01*
X216309349Y-122765247D01*
X216368921Y-122911376D01*
X219516382Y-122911376D01*
X219583155Y-123191287D01*
X219641029Y-123472665D01*
X219690005Y-123755300D01*
X219730083Y-124038983D01*
X219761262Y-124323505D01*
X219783542Y-124608657D01*
X219796925Y-124894228D01*
X219801408Y-125180009D01*
X219796993Y-125465792D01*
X219783680Y-125751366D01*
X219761468Y-126036522D01*
X219730357Y-126321050D01*
X219690349Y-126604741D01*
X219641441Y-126887386D01*
X219583635Y-127168776D01*
X219516931Y-127448700D01*
X216368921Y-127448181D01*
X216309389Y-127594337D01*
X216246214Y-127738756D01*
X216179438Y-127881375D01*
X216109103Y-128022129D01*
X216035252Y-128160952D01*
X215957926Y-128297780D01*
X215877169Y-128432548D01*
X215793023Y-128565191D01*
X215705531Y-128695644D01*
X215614734Y-128823844D01*
X215520675Y-128949724D01*
X215423397Y-129073220D01*
X215322942Y-129194267D01*
X215219352Y-129312801D01*
X215112670Y-129428756D01*
X215002939Y-129542068D01*
X214781271Y-129753069D01*
X214550444Y-129951977D01*
X214310965Y-130138583D01*
X214063338Y-130312677D01*
X213808070Y-130474050D01*
X213545666Y-130622492D01*
X213276633Y-130757794D01*
X213001476Y-130879745D01*
X212720700Y-130988136D01*
X212434812Y-131082758D01*
X212144318Y-131163401D01*
X211849723Y-131229856D01*
X211551533Y-131281912D01*
X211250254Y-131319360D01*
X210946391Y-131341990D01*
X210640451Y-131349594D01*
X210334510Y-131342033D01*
X210030644Y-131319445D01*
X209729359Y-131282038D01*
X209431160Y-131230021D01*
X209136552Y-131163604D01*
X208846041Y-131082996D01*
X208560132Y-130988405D01*
X208279331Y-130880041D01*
X208004142Y-130758112D01*
X207735071Y-130622828D01*
X207472624Y-130474399D01*
X207217306Y-130313031D01*
X206969622Y-130138936D01*
X206730078Y-129952322D01*
X206499178Y-129753398D01*
X206277429Y-129542373D01*
X206167641Y-129429007D01*
X206060910Y-129313005D01*
X205957277Y-129194431D01*
X205856785Y-129073348D01*
X205759476Y-128949823D01*
X205665391Y-128823918D01*
X205574573Y-128695699D01*
X205487064Y-128565229D01*
X205402905Y-128432573D01*
X205322138Y-128297796D01*
X205244805Y-128160961D01*
X205170949Y-128022134D01*
X205100611Y-127881377D01*
X205033833Y-127738757D01*
X204970658Y-127594337D01*
X204911126Y-127448181D01*
X201763116Y-127448730D01*
X201696394Y-127168841D01*
X201638567Y-126887487D01*
X201589637Y-126604877D01*
X201549604Y-126321221D01*
X201518467Y-126036729D01*
X201496226Y-125751608D01*
X201482881Y-125466069D01*
X201478433Y-125180320D01*
X201482881Y-124894572D01*
X201496226Y-124609033D01*
X201518467Y-124323912D01*
X201549604Y-124039419D01*
X201589637Y-123755763D01*
X201638567Y-123473154D01*
X201696394Y-123191800D01*
X201763116Y-122911911D01*
X204910592Y-122911895D01*
X204970184Y-122765723D01*
X205033421Y-122621289D01*
X205100262Y-122478657D01*
X205170665Y-122337890D01*
X205244587Y-122199052D01*
X205321989Y-122062208D01*
X205402828Y-121927422D01*
X205487062Y-121794757D01*
X205574650Y-121664278D01*
X205665550Y-121536048D01*
X205759721Y-121410132D01*
X205857120Y-121286592D01*
X205957707Y-121165495D01*
X206061440Y-121046902D01*
X206168277Y-120930879D01*
X206278177Y-120817489D01*
X206508342Y-120598722D01*
X206746727Y-120394070D01*
X206992784Y-120203533D01*
X207245966Y-120027111D01*
X207505724Y-119864804D01*
X207771509Y-119716612D01*
X208042775Y-119582534D01*
X208318972Y-119462571D01*
X208599553Y-119356723D01*
X208883969Y-119264990D01*
X209171672Y-119187371D01*
X209462114Y-119123866D01*
X209754748Y-119074476D01*
X210049024Y-119039201D01*
X210344396Y-119018039D01*
X210640313Y-119010992D01*
X210936230Y-119018058D01*
%TA.AperFunction,Profile*%
G36*
X210936230Y-119018058D02*
G01*
X211231597Y-119039239D01*
X211525866Y-119074534D01*
X211818490Y-119123942D01*
X212108919Y-119187465D01*
X212396607Y-119265101D01*
X212681004Y-119356851D01*
X212961563Y-119462714D01*
X213237736Y-119582691D01*
X213508974Y-119716781D01*
X213774730Y-119864985D01*
X214034455Y-120027302D01*
X214287601Y-120203733D01*
X214533620Y-120394276D01*
X214771963Y-120598933D01*
X215002084Y-120817703D01*
X215111896Y-120931034D01*
X215218653Y-121047002D01*
X215322312Y-121165541D01*
X215422833Y-121286589D01*
X215520172Y-121410079D01*
X215614288Y-121535950D01*
X215705139Y-121664135D01*
X215792682Y-121794570D01*
X215876876Y-121927193D01*
X215957679Y-122061938D01*
X216035048Y-122198740D01*
X216108942Y-122337537D01*
X216179318Y-122478263D01*
X216246134Y-122620854D01*
X216309349Y-122765247D01*
X216368921Y-122911376D01*
X219516382Y-122911376D01*
X219583155Y-123191287D01*
X219641029Y-123472665D01*
X219690005Y-123755300D01*
X219730083Y-124038983D01*
X219761262Y-124323505D01*
X219783542Y-124608657D01*
X219796925Y-124894228D01*
X219801408Y-125180009D01*
X219796993Y-125465792D01*
X219783680Y-125751366D01*
X219761468Y-126036522D01*
X219730357Y-126321050D01*
X219690349Y-126604741D01*
X219641441Y-126887386D01*
X219583635Y-127168776D01*
X219516931Y-127448700D01*
X216368921Y-127448181D01*
X216309389Y-127594337D01*
X216246214Y-127738756D01*
X216179438Y-127881375D01*
X216109103Y-128022129D01*
X216035252Y-128160952D01*
X215957926Y-128297780D01*
X215877169Y-128432548D01*
X215793023Y-128565191D01*
X215705531Y-128695644D01*
X215614734Y-128823844D01*
X215520675Y-128949724D01*
X215423397Y-129073220D01*
X215322942Y-129194267D01*
X215219352Y-129312801D01*
X215112670Y-129428756D01*
X215002939Y-129542068D01*
X214781271Y-129753069D01*
X214550444Y-129951977D01*
X214310965Y-130138583D01*
X214063338Y-130312677D01*
X213808070Y-130474050D01*
X213545666Y-130622492D01*
X213276633Y-130757794D01*
X213001476Y-130879745D01*
X212720700Y-130988136D01*
X212434812Y-131082758D01*
X212144318Y-131163401D01*
X211849723Y-131229856D01*
X211551533Y-131281912D01*
X211250254Y-131319360D01*
X210946391Y-131341990D01*
X210640451Y-131349594D01*
X210334510Y-131342033D01*
X210030644Y-131319445D01*
X209729359Y-131282038D01*
X209431160Y-131230021D01*
X209136552Y-131163604D01*
X208846041Y-131082996D01*
X208560132Y-130988405D01*
X208279331Y-130880041D01*
X208004142Y-130758112D01*
X207735071Y-130622828D01*
X207472624Y-130474399D01*
X207217306Y-130313031D01*
X206969622Y-130138936D01*
X206730078Y-129952322D01*
X206499178Y-129753398D01*
X206277429Y-129542373D01*
X206167641Y-129429007D01*
X206060910Y-129313005D01*
X205957277Y-129194431D01*
X205856785Y-129073348D01*
X205759476Y-128949823D01*
X205665391Y-128823918D01*
X205574573Y-128695699D01*
X205487064Y-128565229D01*
X205402905Y-128432573D01*
X205322138Y-128297796D01*
X205244805Y-128160961D01*
X205170949Y-128022134D01*
X205100611Y-127881377D01*
X205033833Y-127738757D01*
X204970658Y-127594337D01*
X204911126Y-127448181D01*
X201763116Y-127448730D01*
X201696394Y-127168841D01*
X201638567Y-126887487D01*
X201589637Y-126604877D01*
X201549604Y-126321221D01*
X201518467Y-126036729D01*
X201496226Y-125751608D01*
X201482881Y-125466069D01*
X201478433Y-125180320D01*
X201482881Y-124894572D01*
X201496226Y-124609033D01*
X201518467Y-124323912D01*
X201549604Y-124039419D01*
X201589637Y-123755763D01*
X201638567Y-123473154D01*
X201696394Y-123191800D01*
X201763116Y-122911911D01*
X204910592Y-122911895D01*
X204970184Y-122765723D01*
X205033421Y-122621289D01*
X205100262Y-122478657D01*
X205170665Y-122337890D01*
X205244587Y-122199052D01*
X205321989Y-122062208D01*
X205402828Y-121927422D01*
X205487062Y-121794757D01*
X205574650Y-121664278D01*
X205665550Y-121536048D01*
X205759721Y-121410132D01*
X205857120Y-121286592D01*
X205957707Y-121165495D01*
X206061440Y-121046902D01*
X206168277Y-120930879D01*
X206278177Y-120817489D01*
X206508342Y-120598722D01*
X206746727Y-120394070D01*
X206992784Y-120203533D01*
X207245966Y-120027111D01*
X207505724Y-119864804D01*
X207771509Y-119716612D01*
X208042775Y-119582534D01*
X208318972Y-119462571D01*
X208599553Y-119356723D01*
X208883969Y-119264990D01*
X209171672Y-119187371D01*
X209462114Y-119123866D01*
X209754748Y-119074476D01*
X210049024Y-119039201D01*
X210344396Y-119018039D01*
X210640313Y-119010992D01*
X210936230Y-119018058D01*
G37*
%TD.AperFunction*%
%TD*%
M02*
